G04*
G04 #@! TF.GenerationSoftware,Altium Limited,Altium Designer,23.0.1 (38)*
G04*
G04 Layer_Color=32896*
%FSLAX44Y44*%
%MOMM*%
G71*
G04*
G04 #@! TF.SameCoordinates,29EA246D-3BC2-426E-A151-39073B1FECC7*
G04*
G04*
G04 #@! TF.FilePolarity,Positive*
G04*
G01*
G75*
%ADD98C,0.1000*%
D98*
X1548091Y390980D02*
Y400980D01*
X1543092Y395980D02*
X1553092D01*
X1485900Y380732D02*
Y390732D01*
X1480900Y385732D02*
X1490900D01*
X1695530Y396240D02*
X1705530D01*
X1700530Y391240D02*
Y401240D01*
X1639650Y439420D02*
X1649650D01*
X1644650Y434420D02*
Y444420D01*
X1694260Y436760D02*
X1704260D01*
X1699260Y431760D02*
Y441760D01*
X1695530Y355600D02*
X1705530D01*
X1700530Y350600D02*
Y360600D01*
X1638380Y376100D02*
X1648380D01*
X1643380Y371100D02*
Y381100D01*
X1395810Y562610D02*
X1405810D01*
X1400810Y557610D02*
Y567610D01*
X1398150Y481410D02*
Y491410D01*
X1393150Y486410D02*
X1403150D01*
X1347470Y430610D02*
Y440610D01*
X1342470Y435610D02*
X1352470D01*
X1320800Y387430D02*
Y397430D01*
X1315800Y392430D02*
X1325800D01*
X1299330Y431880D02*
Y441880D01*
X1294330Y436880D02*
X1304330D01*
M02*
