G04*
G04 #@! TF.GenerationSoftware,Altium Limited,Altium Designer,23.0.1 (38)*
G04*
G04 Layer_Color=32768*
%FSLAX44Y44*%
%MOMM*%
G71*
G04*
G04 #@! TF.SameCoordinates,29EA246D-3BC2-426E-A151-39073B1FECC7*
G04*
G04*
G04 #@! TF.FilePolarity,Positive*
G04*
G01*
G75*
%ADD97C,0.1524*%
D97*
X1423924Y331470D02*
G03*
X1426464Y328930I2540J0D01*
G01*
X1443736D02*
G03*
X1446276Y331470I0J2540D01*
G01*
Y346710D02*
G03*
X1443736Y349250I-2540J0D01*
G01*
X1426464D02*
G03*
X1423924Y346710I0J-2540D01*
G01*
X1534160Y466090D02*
G03*
X1536700Y463550I2540J0D01*
G01*
Y485902D02*
G03*
X1534160Y483362I0J-2540D01*
G01*
X1554480D02*
G03*
X1551940Y485902I-2540J0D01*
G01*
Y463550D02*
G03*
X1554480Y466090I0J2540D01*
G01*
X1399286Y359410D02*
G03*
X1396746Y361950I-2540J0D01*
G01*
X1379474D02*
G03*
X1376934Y359410I0J-2540D01*
G01*
Y344170D02*
G03*
X1379474Y341630I2540J0D01*
G01*
X1396746D02*
G03*
X1399286Y344170I0J2540D01*
G01*
X1426464Y349250D02*
X1443736D01*
X1423924Y331470D02*
Y346710D01*
X1446276Y331470D02*
Y346710D01*
X1426464Y328930D02*
X1443736D01*
X1554480Y466090D02*
Y483362D01*
X1536700Y485902D02*
X1551940D01*
X1536700Y463550D02*
X1551940D01*
X1534160Y466090D02*
Y483362D01*
X1379474Y341630D02*
X1396746D01*
X1399286Y344170D02*
Y359410D01*
X1376934Y344170D02*
Y359410D01*
X1379474Y361950D02*
X1396746D01*
M02*
