G04*
G04 #@! TF.GenerationSoftware,Altium Limited,Altium Designer,23.0.1 (38)*
G04*
G04 Layer_Color=8388736*
%FSLAX44Y44*%
%MOMM*%
G71*
G04*
G04 #@! TF.SameCoordinates,29EA246D-3BC2-426E-A151-39073B1FECC7*
G04*
G04*
G04 #@! TF.FilePolarity,Negative*
G04*
G01*
G75*
%ADD21R,1.0000X1.3500*%
%ADD22R,1.3046X1.4562*%
%ADD23R,1.2065X1.5082*%
%ADD24R,1.4549X1.5562*%
%ADD25R,0.6500X0.7000*%
%ADD26R,0.9500X1.3500*%
%ADD28R,1.5242X0.5780*%
%ADD31R,1.3500X1.0000*%
G04:AMPARAMS|DCode=32|XSize=1.5242mm|YSize=0.578mm|CornerRadius=0.289mm|HoleSize=0mm|Usage=FLASHONLY|Rotation=0.000|XOffset=0mm|YOffset=0mm|HoleType=Round|Shape=RoundedRectangle|*
%AMROUNDEDRECTD32*
21,1,1.5242,0.0000,0,0,0.0*
21,1,0.9463,0.5780,0,0,0.0*
1,1,0.5780,0.4731,0.0000*
1,1,0.5780,-0.4731,0.0000*
1,1,0.5780,-0.4731,0.0000*
1,1,0.5780,0.4731,0.0000*
%
%ADD32ROUNDEDRECTD32*%
%ADD34R,1.3500X0.9500*%
%ADD35R,1.9000X2.4000*%
%ADD39R,0.7000X1.0000*%
%ADD41O,2.1532X0.8032*%
%ADD42O,0.8032X2.1532*%
%ADD43R,1.4882X1.6732*%
%ADD44R,1.2532X1.6532*%
%ADD45R,1.7632X0.4832*%
%ADD46R,0.4832X1.7632*%
%ADD47R,0.8382X1.4732*%
%ADD48R,1.4732X0.8382*%
%ADD49R,1.1032X1.7532*%
%ADD50R,1.3032X1.5032*%
%ADD51R,1.2032X1.5532*%
%ADD52C,5.2032*%
%ADD53C,3.0032*%
%ADD54C,2.5582*%
%ADD55C,1.5382*%
%ADD56C,1.7332*%
%ADD57C,1.6012*%
%ADD58R,1.5732X1.5732*%
%ADD59C,1.5732*%
%ADD60C,1.4032*%
%ADD61R,1.4032X1.4032*%
%ADD62C,0.8032*%
D21*
X1470500Y547370D02*
D03*
X1671160Y544830D02*
D03*
X1604170D02*
D03*
X1520030Y547370D02*
D03*
X1550670Y584200D02*
D03*
X1449230D02*
D03*
X1361504Y939800D02*
D03*
Y1022350D02*
D03*
X1415890Y909320D02*
D03*
X1550670Y902970D02*
D03*
X1504950Y871220D02*
D03*
X1551940Y872490D02*
D03*
X1598930Y585470D02*
D03*
X1648780D02*
D03*
X1518920D02*
D03*
X1557180Y546100D02*
D03*
X1361120Y821690D02*
D03*
X1341120D02*
D03*
X1577180Y546100D02*
D03*
X1570670Y584200D02*
D03*
X1500030Y547370D02*
D03*
X1498920Y585470D02*
D03*
X1624170Y544830D02*
D03*
X1668780Y585470D02*
D03*
X1618930D02*
D03*
X1651160Y544830D02*
D03*
X1344930Y745490D02*
D03*
X1364930D02*
D03*
X1644650Y875240D02*
D03*
X1624650D02*
D03*
X1578770D02*
D03*
X1598770D02*
D03*
X1646821Y904240D02*
D03*
X1626821D02*
D03*
X1531940Y872490D02*
D03*
X1484950Y871220D02*
D03*
X1341504Y904240D02*
D03*
X1361504D02*
D03*
X1596390Y900430D02*
D03*
X1576390D02*
D03*
X1530670Y902970D02*
D03*
X1395890Y909320D02*
D03*
X1341504Y1054817D02*
D03*
X1361504D02*
D03*
X1341504Y1022350D02*
D03*
Y939800D02*
D03*
X1450500Y547370D02*
D03*
X1469230Y584200D02*
D03*
D22*
X1535868Y445770D02*
D03*
X1587106D02*
D03*
X1570990D02*
D03*
X1519752D02*
D03*
D23*
X1624330D02*
D03*
X1645347D02*
D03*
D24*
X1388843Y481330D02*
D03*
X1370330D02*
D03*
D25*
X1591780Y1107440D02*
D03*
X1605280D02*
D03*
D26*
X1608970Y989330D02*
D03*
X1606550Y1031240D02*
D03*
Y1069340D02*
D03*
X1592700Y1150620D02*
D03*
X1644650Y1189990D02*
D03*
X1631950Y1150620D02*
D03*
X1648220Y989330D02*
D03*
X1649490Y1029970D02*
D03*
X1648460Y1068070D02*
D03*
X1630680Y1107440D02*
D03*
X1577340Y748030D02*
D03*
X1562340D02*
D03*
X1530350Y744220D02*
D03*
X1545350D02*
D03*
X1645680Y1107440D02*
D03*
X1633460Y1068070D02*
D03*
X1634490Y1029970D02*
D03*
X1633220Y989330D02*
D03*
X1646950Y1150620D02*
D03*
X1629650Y1189990D02*
D03*
X1608970Y1188720D02*
D03*
X1593970D02*
D03*
X1649730Y951230D02*
D03*
X1634730D02*
D03*
X1591550Y1069340D02*
D03*
Y1031240D02*
D03*
X1607700Y951230D02*
D03*
X1592700D02*
D03*
X1593970Y989330D02*
D03*
X1607700Y1150620D02*
D03*
X1357004Y872490D02*
D03*
X1342003D02*
D03*
X1357004Y982980D02*
D03*
X1342003D02*
D03*
Y789940D02*
D03*
X1357004D02*
D03*
D28*
X1452456Y640690D02*
D03*
X1658620Y641350D02*
D03*
X1624754Y621690D02*
D03*
X1504526Y641960D02*
D03*
X1554268Y640690D02*
D03*
D31*
X1525270Y830580D02*
D03*
Y810580D02*
D03*
D32*
X1554268Y621690D02*
D03*
X1572472Y631190D02*
D03*
X1504526Y622960D02*
D03*
X1522730Y632460D02*
D03*
X1624754Y640690D02*
D03*
X1606550Y631190D02*
D03*
X1658620Y622350D02*
D03*
X1676824Y631850D02*
D03*
X1452456Y621690D02*
D03*
X1470660Y631190D02*
D03*
D34*
X1477010Y398540D02*
D03*
Y383540D02*
D03*
X1437640Y397270D02*
D03*
Y382270D02*
D03*
D35*
X1437280Y447040D02*
D03*
X1478280D02*
D03*
D39*
X1657900Y333220D02*
D03*
Y393220D02*
D03*
X1694900Y333220D02*
D03*
Y393220D02*
D03*
D41*
X1621110Y393760D02*
D03*
Y385760D02*
D03*
Y377760D02*
D03*
Y369760D02*
D03*
Y361760D02*
D03*
Y353760D02*
D03*
Y345760D02*
D03*
Y337760D02*
D03*
X1536110D02*
D03*
Y345760D02*
D03*
Y353760D02*
D03*
Y361760D02*
D03*
Y369760D02*
D03*
Y377760D02*
D03*
Y385760D02*
D03*
Y393760D02*
D03*
D42*
X1606610Y323260D02*
D03*
X1598610D02*
D03*
X1590610D02*
D03*
X1582610D02*
D03*
X1574610D02*
D03*
X1566610D02*
D03*
X1558610D02*
D03*
X1550610D02*
D03*
Y408260D02*
D03*
X1558610D02*
D03*
X1566610D02*
D03*
X1574610D02*
D03*
X1582610D02*
D03*
X1590610D02*
D03*
X1598610D02*
D03*
X1606610D02*
D03*
D43*
X1327560Y482600D02*
D03*
X1308100D02*
D03*
D44*
X1340770Y1090734D02*
D03*
Y1164035D02*
D03*
X1359270D02*
D03*
X1359270Y1090734D02*
D03*
D45*
X1400920Y798630D02*
D03*
Y778630D02*
D03*
Y763630D02*
D03*
X1484520Y773630D02*
D03*
Y813630D02*
D03*
Y808630D02*
D03*
Y803630D02*
D03*
Y798630D02*
D03*
Y793630D02*
D03*
Y788630D02*
D03*
Y783630D02*
D03*
Y778630D02*
D03*
Y768630D02*
D03*
Y763630D02*
D03*
Y758630D02*
D03*
X1400920D02*
D03*
Y768630D02*
D03*
Y773630D02*
D03*
Y783630D02*
D03*
Y788630D02*
D03*
Y793630D02*
D03*
Y803630D02*
D03*
Y808630D02*
D03*
Y813630D02*
D03*
D46*
X1425220Y744330D02*
D03*
X1435220D02*
D03*
X1455220D02*
D03*
X1440220Y827930D02*
D03*
X1435220D02*
D03*
X1430220D02*
D03*
X1415220D02*
D03*
X1420220D02*
D03*
X1425220D02*
D03*
X1445220D02*
D03*
X1450220D02*
D03*
X1455220D02*
D03*
X1460220D02*
D03*
X1465220D02*
D03*
X1470220D02*
D03*
Y744330D02*
D03*
X1465220D02*
D03*
X1460220D02*
D03*
X1450220D02*
D03*
X1445220D02*
D03*
X1440220D02*
D03*
X1430220D02*
D03*
X1420220D02*
D03*
X1415220D02*
D03*
D47*
X1439164Y339090D02*
D03*
X1431036D02*
D03*
X1384046Y351790D02*
D03*
X1392174D02*
D03*
D48*
X1544320Y470662D02*
D03*
Y478790D02*
D03*
D49*
X1506220Y905510D02*
D03*
X1479720D02*
D03*
X1430020Y868680D02*
D03*
X1456520D02*
D03*
X1410970D02*
D03*
X1384470D02*
D03*
X1431290Y908050D02*
D03*
X1457790D02*
D03*
D50*
X1344003Y1201420D02*
D03*
X1365004D02*
D03*
X1344003Y1128118D02*
D03*
X1365004D02*
D03*
X1385570Y525780D02*
D03*
X1364570D02*
D03*
X1366520Y429260D02*
D03*
X1387520D02*
D03*
D51*
X1327150Y336550D02*
D03*
X1312150D02*
D03*
D52*
X1694180Y247650D02*
D03*
X1267460D02*
D03*
X1694180Y1207770D02*
D03*
X1267460D02*
D03*
D53*
X1416050Y1155700D02*
D03*
X1543050D02*
D03*
D54*
X1398900Y1187500D02*
D03*
X1560200D02*
D03*
D55*
X1423650Y1074500D02*
D03*
Y1089100D02*
D03*
X1535450Y1074500D02*
D03*
Y1089100D02*
D03*
D56*
X1418650Y952500D02*
D03*
X1444000D02*
D03*
X1515100D02*
D03*
X1540450D02*
D03*
D57*
X1418650Y977900D02*
D03*
X1438950D02*
D03*
X1459250D02*
D03*
X1499850D02*
D03*
X1520150D02*
D03*
X1540450D02*
D03*
X1469400Y1003300D02*
D03*
X1489700D02*
D03*
X1510000D02*
D03*
X1530300D02*
D03*
X1449100D02*
D03*
X1428800D02*
D03*
D58*
X1375410Y297180D02*
D03*
X1363980Y650240D02*
D03*
X1615440Y745490D02*
D03*
D59*
X1350010Y297180D02*
D03*
X1324610D02*
D03*
X1299210D02*
D03*
X1363980Y624840D02*
D03*
X1338580Y650240D02*
D03*
Y624840D02*
D03*
X1313180Y650240D02*
D03*
Y624840D02*
D03*
X1640840Y745490D02*
D03*
D60*
X1625870Y815340D02*
D03*
X1601470D02*
D03*
D61*
X1577070D02*
D03*
D62*
X1406540Y992490D02*
D03*
X1583690Y848360D02*
D03*
X1496060Y332601D02*
D03*
X1569747Y304615D02*
D03*
X1581150Y928370D02*
D03*
X1553210Y443230D02*
D03*
X1596529Y389890D02*
D03*
X1671320Y420370D02*
D03*
X1416315Y785125D02*
D03*
X1425990Y774763D02*
D03*
X1437640Y777240D02*
D03*
X1418590Y720090D02*
D03*
X1543050Y725170D02*
D03*
X1466850Y782320D02*
D03*
X1362710Y767080D02*
D03*
X1577340Y1093470D02*
D03*
X1651000Y928370D02*
D03*
X1656080Y887730D02*
D03*
X1619250Y929640D02*
D03*
X1374140Y501650D02*
D03*
X1561720Y362225D02*
D03*
X1532890Y289560D02*
D03*
X1507490Y464820D02*
D03*
X1421130Y364490D02*
D03*
X1357630Y355600D02*
D03*
X1435100Y588010D02*
D03*
X1394460Y501650D02*
D03*
X1299210Y365760D02*
D03*
X1327334Y366846D02*
D03*
X1484630Y486049D02*
D03*
X1633220Y464820D02*
D03*
X1567180Y346710D02*
D03*
X1559560Y374650D02*
D03*
X1476745Y330465D02*
D03*
X1504950Y313230D02*
D03*
X1517650Y525780D02*
D03*
X1277620Y464820D02*
D03*
X1686560Y529590D02*
D03*
X1535430Y659130D02*
D03*
Y589280D02*
D03*
X1560506Y469187D02*
D03*
X1677670Y657860D02*
D03*
X1633220Y589280D02*
D03*
X1591310Y568960D02*
D03*
X1431290Y657860D02*
D03*
X1441450Y654050D02*
D03*
X1485900Y659130D02*
D03*
X1386840Y741680D02*
D03*
X1527810Y848360D02*
D03*
X1667510Y981710D02*
D03*
X1616710Y1089660D02*
D03*
X1371600Y923290D02*
D03*
X1372870Y878840D02*
D03*
X1380490Y1017270D02*
D03*
X1318260Y1076960D02*
D03*
X1461770Y796290D02*
D03*
X1557020Y927100D02*
D03*
X1617980Y1009650D02*
D03*
X1625368Y422698D02*
D03*
X1490980Y725170D02*
D03*
X1507950Y741220D02*
D03*
X1523719Y729440D02*
D03*
X1569720Y782320D02*
D03*
X1540665Y792710D02*
D03*
X1528378Y795110D02*
D03*
X1562100Y805180D02*
D03*
X1497860Y801820D02*
D03*
X1464310Y687070D02*
D03*
X1518920Y605790D02*
D03*
X1509396Y824150D02*
D03*
X1372870Y810166D02*
D03*
X1565910Y567690D02*
D03*
X1493520Y414020D02*
D03*
X1376680Y845820D02*
D03*
M02*
