G04*
G04 #@! TF.GenerationSoftware,Altium Limited,Altium Designer,23.0.1 (38)*
G04*
G04 Layer_Physical_Order=3*
G04 Layer_Color=16440176*
%FSLAX44Y44*%
%MOMM*%
G71*
G04*
G04 #@! TF.SameCoordinates,29EA246D-3BC2-426E-A151-39073B1FECC7*
G04*
G04*
G04 #@! TF.FilePolarity,Positive*
G04*
G01*
G75*
%ADD64C,5.0000*%
%ADD65C,2.8000*%
%ADD66C,2.3550*%
%ADD67C,1.3350*%
%ADD68C,1.5300*%
%ADD69C,1.3980*%
%ADD70R,1.3700X1.3700*%
%ADD71C,1.3700*%
%ADD72C,1.2000*%
%ADD73R,1.2000X1.2000*%
%ADD74C,0.6000*%
G36*
X1717040Y278130D02*
X1250950D01*
Y458470D01*
X1717040D01*
Y278130D01*
D02*
G37*
G36*
Y1224296D02*
X1715832Y1223904D01*
X1714774Y1225359D01*
X1711769Y1228364D01*
X1708331Y1230863D01*
X1704544Y1232792D01*
X1700502Y1234105D01*
X1696305Y1234770D01*
X1692055D01*
X1687858Y1234105D01*
X1683816Y1232792D01*
X1680029Y1230863D01*
X1676591Y1228364D01*
X1673586Y1225359D01*
X1671087Y1221921D01*
X1669158Y1218134D01*
X1667845Y1214092D01*
X1667180Y1209895D01*
Y1205645D01*
X1667845Y1201448D01*
X1669158Y1197406D01*
X1671087Y1193619D01*
X1673586Y1190181D01*
X1676591Y1187176D01*
X1680029Y1184678D01*
X1683816Y1182748D01*
X1687858Y1181435D01*
X1692055Y1180770D01*
X1696305D01*
X1700502Y1181435D01*
X1704544Y1182748D01*
X1708331Y1184678D01*
X1711769Y1187176D01*
X1714774Y1190181D01*
X1715832Y1191637D01*
X1717040Y1191244D01*
Y472390D01*
X1564374D01*
X1563338Y473426D01*
X1561500Y474187D01*
X1559511D01*
X1557673Y473426D01*
X1556638Y472390D01*
X1249680D01*
Y1185744D01*
X1250950Y1186391D01*
X1253309Y1184678D01*
X1257096Y1182748D01*
X1261137Y1181435D01*
X1265335Y1180770D01*
X1269585D01*
X1273783Y1181435D01*
X1277824Y1182748D01*
X1281611Y1184678D01*
X1285049Y1187176D01*
X1288054Y1190181D01*
X1290553Y1193619D01*
X1292482Y1197406D01*
X1293795Y1201448D01*
X1294460Y1205645D01*
Y1209895D01*
X1293795Y1214092D01*
X1292482Y1218134D01*
X1290553Y1221921D01*
X1288054Y1225359D01*
X1285049Y1228364D01*
X1281611Y1230863D01*
X1277824Y1232792D01*
X1273783Y1234105D01*
X1269585Y1234770D01*
X1265335D01*
X1261137Y1234105D01*
X1257096Y1232792D01*
X1253309Y1230863D01*
X1250950Y1229149D01*
X1249680Y1229796D01*
Y1238200D01*
X1717040D01*
Y1224296D01*
D02*
G37*
%LPC*%
G36*
X1626362Y427698D02*
X1624373D01*
X1622536Y426936D01*
X1621129Y425530D01*
X1620368Y423692D01*
Y421703D01*
X1621129Y419865D01*
X1622536Y418459D01*
X1624373Y417698D01*
X1626362D01*
X1628200Y418459D01*
X1629607Y419865D01*
X1630368Y421703D01*
Y423692D01*
X1629607Y425530D01*
X1628200Y426936D01*
X1626362Y427698D01*
D02*
G37*
G36*
X1672315Y425370D02*
X1670325D01*
X1668488Y424609D01*
X1667081Y423202D01*
X1666320Y421365D01*
Y419375D01*
X1667081Y417538D01*
X1668488Y416131D01*
X1670325Y415370D01*
X1672315D01*
X1674152Y416131D01*
X1675559Y417538D01*
X1676320Y419375D01*
Y421365D01*
X1675559Y423202D01*
X1674152Y424609D01*
X1672315Y425370D01*
D02*
G37*
G36*
X1494515Y419020D02*
X1492525D01*
X1490688Y418259D01*
X1489281Y416852D01*
X1488520Y415015D01*
Y413025D01*
X1489281Y411188D01*
X1490688Y409781D01*
X1492525Y409020D01*
X1494515D01*
X1496352Y409781D01*
X1497759Y411188D01*
X1498520Y413025D01*
Y415015D01*
X1497759Y416852D01*
X1496352Y418259D01*
X1494515Y419020D01*
D02*
G37*
G36*
X1597524Y394890D02*
X1595535D01*
X1593697Y394129D01*
X1592290Y392722D01*
X1591529Y390885D01*
Y388895D01*
X1592290Y387058D01*
X1593697Y385651D01*
X1595535Y384890D01*
X1597524D01*
X1599362Y385651D01*
X1600768Y387058D01*
X1601529Y388895D01*
Y390885D01*
X1600768Y392722D01*
X1599362Y394129D01*
X1597524Y394890D01*
D02*
G37*
G36*
X1560555Y379650D02*
X1558565D01*
X1556728Y378889D01*
X1555321Y377482D01*
X1554560Y375645D01*
Y373655D01*
X1555321Y371818D01*
X1556728Y370411D01*
X1558565Y369650D01*
X1560555D01*
X1562392Y370411D01*
X1563799Y371818D01*
X1564560Y373655D01*
Y375645D01*
X1563799Y377482D01*
X1562392Y378889D01*
X1560555Y379650D01*
D02*
G37*
G36*
X1328329Y371846D02*
X1326340D01*
X1324502Y371084D01*
X1323096Y369678D01*
X1322334Y367840D01*
Y365851D01*
X1323096Y364013D01*
X1324502Y362607D01*
X1326340Y361846D01*
X1328329D01*
X1330167Y362607D01*
X1331573Y364013D01*
X1332334Y365851D01*
Y367840D01*
X1331573Y369678D01*
X1330167Y371084D01*
X1328329Y371846D01*
D02*
G37*
G36*
X1422125Y369490D02*
X1420135D01*
X1418298Y368729D01*
X1416891Y367322D01*
X1416130Y365485D01*
Y363495D01*
X1416891Y361658D01*
X1418298Y360251D01*
X1420135Y359490D01*
X1422125D01*
X1423962Y360251D01*
X1425369Y361658D01*
X1426130Y363495D01*
Y365485D01*
X1425369Y367322D01*
X1423962Y368729D01*
X1422125Y369490D01*
D02*
G37*
G36*
X1358625Y360600D02*
X1356635D01*
X1354798Y359839D01*
X1353391Y358432D01*
X1352630Y356595D01*
Y354605D01*
X1353391Y352768D01*
X1354798Y351361D01*
X1356635Y350600D01*
X1358625D01*
X1360462Y351361D01*
X1361869Y352768D01*
X1362630Y354605D01*
Y356595D01*
X1361869Y358432D01*
X1360462Y359839D01*
X1358625Y360600D01*
D02*
G37*
G36*
X1568175Y351710D02*
X1566185D01*
X1564348Y350949D01*
X1562941Y349542D01*
X1562180Y347705D01*
Y345715D01*
X1562941Y343878D01*
X1564348Y342471D01*
X1566185Y341710D01*
X1568175D01*
X1570012Y342471D01*
X1571419Y343878D01*
X1572180Y345715D01*
Y347705D01*
X1571419Y349542D01*
X1570012Y350949D01*
X1568175Y351710D01*
D02*
G37*
G36*
X1477740Y335465D02*
X1475751D01*
X1473913Y334703D01*
X1472507Y333297D01*
X1471745Y331459D01*
Y329470D01*
X1472507Y327632D01*
X1473913Y326226D01*
X1475751Y325465D01*
X1477740D01*
X1479578Y326226D01*
X1480984Y327632D01*
X1481745Y329470D01*
Y331459D01*
X1480984Y333297D01*
X1479578Y334703D01*
X1477740Y335465D01*
D02*
G37*
G36*
X1505945Y318230D02*
X1503955D01*
X1502118Y317469D01*
X1500711Y316062D01*
X1499950Y314225D01*
Y312235D01*
X1500711Y310398D01*
X1502118Y308991D01*
X1503955Y308230D01*
X1505945D01*
X1507782Y308991D01*
X1509189Y310398D01*
X1509950Y312235D01*
Y314225D01*
X1509189Y316062D01*
X1507782Y317469D01*
X1505945Y318230D01*
D02*
G37*
G36*
X1384260Y306030D02*
X1366560D01*
Y288330D01*
X1384260D01*
Y306030D01*
D02*
G37*
G36*
X1351175D02*
X1348845D01*
X1346594Y305427D01*
X1344576Y304262D01*
X1342928Y302614D01*
X1341763Y300596D01*
X1341160Y298345D01*
Y296015D01*
X1341763Y293764D01*
X1342928Y291746D01*
X1344576Y290098D01*
X1346594Y288933D01*
X1348845Y288330D01*
X1351175D01*
X1353426Y288933D01*
X1355444Y290098D01*
X1357092Y291746D01*
X1358257Y293764D01*
X1358860Y296015D01*
Y298345D01*
X1358257Y300596D01*
X1357092Y302614D01*
X1355444Y304262D01*
X1353426Y305427D01*
X1351175Y306030D01*
D02*
G37*
G36*
X1325775D02*
X1323445D01*
X1321194Y305427D01*
X1319176Y304262D01*
X1317528Y302614D01*
X1316363Y300596D01*
X1315760Y298345D01*
Y296015D01*
X1316363Y293764D01*
X1317528Y291746D01*
X1319176Y290098D01*
X1321194Y288933D01*
X1323445Y288330D01*
X1325775D01*
X1328026Y288933D01*
X1330044Y290098D01*
X1331692Y291746D01*
X1332857Y293764D01*
X1333460Y296015D01*
Y298345D01*
X1332857Y300596D01*
X1331692Y302614D01*
X1330044Y304262D01*
X1328026Y305427D01*
X1325775Y306030D01*
D02*
G37*
G36*
X1300375D02*
X1298045D01*
X1295794Y305427D01*
X1293776Y304262D01*
X1292128Y302614D01*
X1290963Y300596D01*
X1290360Y298345D01*
Y296015D01*
X1290963Y293764D01*
X1292128Y291746D01*
X1293776Y290098D01*
X1295794Y288933D01*
X1298045Y288330D01*
X1300375D01*
X1302626Y288933D01*
X1304644Y290098D01*
X1306292Y291746D01*
X1307457Y293764D01*
X1308060Y296015D01*
Y298345D01*
X1307457Y300596D01*
X1306292Y302614D01*
X1304644Y304262D01*
X1302626Y305427D01*
X1300375Y306030D01*
D02*
G37*
G36*
X1533885Y294560D02*
X1531895D01*
X1530058Y293799D01*
X1528651Y292392D01*
X1527890Y290555D01*
Y288565D01*
X1528651Y286728D01*
X1530058Y285321D01*
X1531895Y284560D01*
X1533885D01*
X1535722Y285321D01*
X1537129Y286728D01*
X1537890Y288565D01*
Y290555D01*
X1537129Y292392D01*
X1535722Y293799D01*
X1533885Y294560D01*
D02*
G37*
G36*
X1562014Y1201275D02*
X1558387D01*
X1554883Y1200336D01*
X1551742Y1198522D01*
X1549177Y1195958D01*
X1547364Y1192817D01*
X1546425Y1189313D01*
Y1185686D01*
X1547364Y1182183D01*
X1549177Y1179042D01*
X1551742Y1176477D01*
X1554883Y1174663D01*
X1558387Y1173725D01*
X1562014D01*
X1565517Y1174663D01*
X1568658Y1176477D01*
X1571223Y1179042D01*
X1573036Y1182183D01*
X1573975Y1185686D01*
Y1189313D01*
X1573036Y1192817D01*
X1571223Y1195958D01*
X1568658Y1198522D01*
X1565517Y1200336D01*
X1562014Y1201275D01*
D02*
G37*
G36*
X1400713D02*
X1397086D01*
X1393583Y1200336D01*
X1390442Y1198522D01*
X1387877Y1195958D01*
X1386064Y1192817D01*
X1385125Y1189313D01*
Y1185686D01*
X1386064Y1182183D01*
X1387877Y1179042D01*
X1390442Y1176477D01*
X1393583Y1174663D01*
X1397086Y1173725D01*
X1400713D01*
X1404217Y1174663D01*
X1407358Y1176477D01*
X1409923Y1179042D01*
X1411736Y1182183D01*
X1412675Y1185686D01*
Y1189313D01*
X1411736Y1192817D01*
X1409923Y1195958D01*
X1407358Y1198522D01*
X1404217Y1200336D01*
X1400713Y1201275D01*
D02*
G37*
G36*
X1544626Y1171700D02*
X1541474D01*
X1538383Y1171085D01*
X1535471Y1169879D01*
X1532851Y1168128D01*
X1530622Y1165899D01*
X1528871Y1163279D01*
X1527665Y1160367D01*
X1527050Y1157276D01*
Y1154124D01*
X1527665Y1151033D01*
X1528871Y1148121D01*
X1530622Y1145501D01*
X1532851Y1143272D01*
X1535471Y1141521D01*
X1538383Y1140315D01*
X1541474Y1139700D01*
X1544626D01*
X1547717Y1140315D01*
X1550629Y1141521D01*
X1553249Y1143272D01*
X1555478Y1145501D01*
X1557229Y1148121D01*
X1558435Y1151033D01*
X1559050Y1154124D01*
Y1157276D01*
X1558435Y1160367D01*
X1557229Y1163279D01*
X1555478Y1165899D01*
X1553249Y1168128D01*
X1550629Y1169879D01*
X1547717Y1171085D01*
X1544626Y1171700D01*
D02*
G37*
G36*
X1417626D02*
X1414474D01*
X1411383Y1171085D01*
X1408471Y1169879D01*
X1405851Y1168128D01*
X1403622Y1165899D01*
X1401871Y1163279D01*
X1400665Y1160367D01*
X1400050Y1157276D01*
Y1154124D01*
X1400665Y1151033D01*
X1401871Y1148121D01*
X1403622Y1145501D01*
X1405851Y1143272D01*
X1408471Y1141521D01*
X1411383Y1140315D01*
X1414474Y1139700D01*
X1417626D01*
X1420717Y1140315D01*
X1423629Y1141521D01*
X1426249Y1143272D01*
X1428478Y1145501D01*
X1430229Y1148121D01*
X1431435Y1151033D01*
X1432050Y1154124D01*
Y1157276D01*
X1431435Y1160367D01*
X1430229Y1163279D01*
X1428478Y1165899D01*
X1426249Y1168128D01*
X1423629Y1169879D01*
X1420717Y1171085D01*
X1417626Y1171700D01*
D02*
G37*
G36*
X1578335Y1098470D02*
X1576345D01*
X1574508Y1097709D01*
X1573101Y1096302D01*
X1572340Y1094465D01*
Y1092475D01*
X1573101Y1090638D01*
X1574508Y1089231D01*
X1576345Y1088470D01*
X1578335D01*
X1580172Y1089231D01*
X1581579Y1090638D01*
X1582340Y1092475D01*
Y1094465D01*
X1581579Y1096302D01*
X1580172Y1097709D01*
X1578335Y1098470D01*
D02*
G37*
G36*
X1536592Y1097775D02*
X1534308D01*
X1532101Y1097184D01*
X1530123Y1096042D01*
X1528508Y1094427D01*
X1527366Y1092449D01*
X1526775Y1090242D01*
Y1087958D01*
X1527366Y1085752D01*
X1528508Y1083774D01*
X1529648Y1082634D01*
X1529980Y1081800D01*
X1529648Y1080966D01*
X1528508Y1079827D01*
X1527366Y1077849D01*
X1526775Y1075642D01*
Y1073358D01*
X1527366Y1071152D01*
X1528508Y1069174D01*
X1530123Y1067559D01*
X1532101Y1066416D01*
X1534308Y1065825D01*
X1536592D01*
X1538798Y1066416D01*
X1540776Y1067559D01*
X1542392Y1069174D01*
X1543534Y1071152D01*
X1544125Y1073358D01*
Y1075642D01*
X1543534Y1077849D01*
X1542392Y1079827D01*
X1541252Y1080966D01*
X1540919Y1081800D01*
X1541252Y1082634D01*
X1542392Y1083774D01*
X1543534Y1085752D01*
X1544125Y1087958D01*
Y1090242D01*
X1543534Y1092449D01*
X1542392Y1094427D01*
X1540776Y1096042D01*
X1538798Y1097184D01*
X1536592Y1097775D01*
D02*
G37*
G36*
X1424792D02*
X1422508D01*
X1420302Y1097184D01*
X1418324Y1096042D01*
X1416709Y1094427D01*
X1415566Y1092449D01*
X1414975Y1090242D01*
Y1087958D01*
X1415566Y1085752D01*
X1416709Y1083774D01*
X1417848Y1082634D01*
X1418181Y1081800D01*
X1417848Y1080966D01*
X1416709Y1079827D01*
X1415566Y1077849D01*
X1414975Y1075642D01*
Y1073358D01*
X1415566Y1071152D01*
X1416709Y1069174D01*
X1418324Y1067559D01*
X1420302Y1066416D01*
X1422508Y1065825D01*
X1424792D01*
X1426999Y1066416D01*
X1428977Y1067559D01*
X1430592Y1069174D01*
X1431734Y1071152D01*
X1432325Y1073358D01*
Y1075642D01*
X1431734Y1077849D01*
X1430592Y1079827D01*
X1429452Y1080966D01*
X1429120Y1081800D01*
X1429452Y1082634D01*
X1430592Y1083774D01*
X1431734Y1085752D01*
X1432325Y1087958D01*
Y1090242D01*
X1431734Y1092449D01*
X1430592Y1094427D01*
X1428977Y1096042D01*
X1426999Y1097184D01*
X1424792Y1097775D01*
D02*
G37*
G36*
X1618975Y1014650D02*
X1616985D01*
X1615148Y1013889D01*
X1613741Y1012482D01*
X1612980Y1010645D01*
Y1008655D01*
X1613741Y1006818D01*
X1615148Y1005411D01*
X1616985Y1004650D01*
X1618975D01*
X1620812Y1005411D01*
X1622219Y1006818D01*
X1622980Y1008655D01*
Y1010645D01*
X1622219Y1012482D01*
X1620812Y1013889D01*
X1618975Y1014650D01*
D02*
G37*
G36*
X1531484Y1012290D02*
X1529117D01*
X1526830Y1011677D01*
X1524780Y1010494D01*
X1523106Y1008820D01*
X1521923Y1006770D01*
X1521310Y1004484D01*
Y1002116D01*
X1521923Y999830D01*
X1523106Y997780D01*
X1524780Y996106D01*
X1526830Y994923D01*
X1529117Y994310D01*
X1531484D01*
X1533770Y994923D01*
X1535820Y996106D01*
X1537494Y997780D01*
X1538678Y999830D01*
X1539290Y1002116D01*
Y1004484D01*
X1538678Y1006770D01*
X1537494Y1008820D01*
X1535820Y1010494D01*
X1533770Y1011677D01*
X1531484Y1012290D01*
D02*
G37*
G36*
X1511184D02*
X1508817D01*
X1506530Y1011677D01*
X1504480Y1010494D01*
X1502806Y1008820D01*
X1501623Y1006770D01*
X1501010Y1004484D01*
Y1002116D01*
X1501623Y999830D01*
X1502806Y997780D01*
X1504480Y996106D01*
X1506530Y994923D01*
X1508817Y994310D01*
X1511184D01*
X1513470Y994923D01*
X1515520Y996106D01*
X1517194Y997780D01*
X1518377Y999830D01*
X1518990Y1002116D01*
Y1004484D01*
X1518377Y1006770D01*
X1517194Y1008820D01*
X1515520Y1010494D01*
X1513470Y1011677D01*
X1511184Y1012290D01*
D02*
G37*
G36*
X1490883D02*
X1488516D01*
X1486230Y1011677D01*
X1484180Y1010494D01*
X1482506Y1008820D01*
X1481322Y1006770D01*
X1480710Y1004484D01*
Y1002116D01*
X1481322Y999830D01*
X1482506Y997780D01*
X1484180Y996106D01*
X1486230Y994923D01*
X1488516Y994310D01*
X1490883D01*
X1493170Y994923D01*
X1495220Y996106D01*
X1496894Y997780D01*
X1498077Y999830D01*
X1498690Y1002116D01*
Y1004484D01*
X1498077Y1006770D01*
X1496894Y1008820D01*
X1495220Y1010494D01*
X1493170Y1011677D01*
X1490883Y1012290D01*
D02*
G37*
G36*
X1470584D02*
X1468217D01*
X1465930Y1011677D01*
X1463880Y1010494D01*
X1462206Y1008820D01*
X1461023Y1006770D01*
X1460410Y1004484D01*
Y1002116D01*
X1461023Y999830D01*
X1462206Y997780D01*
X1463880Y996106D01*
X1465930Y994923D01*
X1468217Y994310D01*
X1470584D01*
X1472870Y994923D01*
X1474920Y996106D01*
X1476594Y997780D01*
X1477778Y999830D01*
X1478390Y1002116D01*
Y1004484D01*
X1477778Y1006770D01*
X1476594Y1008820D01*
X1474920Y1010494D01*
X1472870Y1011677D01*
X1470584Y1012290D01*
D02*
G37*
G36*
X1450284D02*
X1447916D01*
X1445630Y1011677D01*
X1443580Y1010494D01*
X1441906Y1008820D01*
X1440723Y1006770D01*
X1440110Y1004484D01*
Y1002116D01*
X1440723Y999830D01*
X1441906Y997780D01*
X1443580Y996106D01*
X1445630Y994923D01*
X1447916Y994310D01*
X1450284D01*
X1452570Y994923D01*
X1454620Y996106D01*
X1456294Y997780D01*
X1457477Y999830D01*
X1458090Y1002116D01*
Y1004484D01*
X1457477Y1006770D01*
X1456294Y1008820D01*
X1454620Y1010494D01*
X1452570Y1011677D01*
X1450284Y1012290D01*
D02*
G37*
G36*
X1429983D02*
X1427616D01*
X1425330Y1011677D01*
X1423280Y1010494D01*
X1421606Y1008820D01*
X1420422Y1006770D01*
X1419810Y1004484D01*
Y1002116D01*
X1420422Y999830D01*
X1421606Y997780D01*
X1423280Y996106D01*
X1425330Y994923D01*
X1427616Y994310D01*
X1429983D01*
X1432270Y994923D01*
X1434320Y996106D01*
X1435994Y997780D01*
X1437177Y999830D01*
X1437790Y1002116D01*
Y1004484D01*
X1437177Y1006770D01*
X1435994Y1008820D01*
X1434320Y1010494D01*
X1432270Y1011677D01*
X1429983Y1012290D01*
D02*
G37*
G36*
X1407534Y997490D02*
X1405545D01*
X1403707Y996729D01*
X1402301Y995322D01*
X1401540Y993485D01*
Y991496D01*
X1402301Y989658D01*
X1403707Y988251D01*
X1405545Y987490D01*
X1407534D01*
X1409372Y988251D01*
X1410779Y989658D01*
X1411540Y991496D01*
Y993485D01*
X1410779Y995322D01*
X1409372Y996729D01*
X1407534Y997490D01*
D02*
G37*
G36*
X1541634Y986890D02*
X1539267D01*
X1536980Y986277D01*
X1534930Y985094D01*
X1533256Y983420D01*
X1532073Y981370D01*
X1531460Y979084D01*
Y976716D01*
X1532073Y974430D01*
X1533256Y972380D01*
X1534930Y970706D01*
X1536980Y969523D01*
X1539267Y968910D01*
X1541634D01*
X1543920Y969523D01*
X1545970Y970706D01*
X1547644Y972380D01*
X1548827Y974430D01*
X1549440Y976716D01*
Y979084D01*
X1548827Y981370D01*
X1547644Y983420D01*
X1545970Y985094D01*
X1543920Y986277D01*
X1541634Y986890D01*
D02*
G37*
G36*
X1521333D02*
X1518966D01*
X1516680Y986277D01*
X1514630Y985094D01*
X1512956Y983420D01*
X1511772Y981370D01*
X1511160Y979084D01*
Y976716D01*
X1511772Y974430D01*
X1512956Y972380D01*
X1514630Y970706D01*
X1516680Y969523D01*
X1518966Y968910D01*
X1521333D01*
X1523620Y969523D01*
X1525670Y970706D01*
X1527344Y972380D01*
X1528527Y974430D01*
X1529140Y976716D01*
Y979084D01*
X1528527Y981370D01*
X1527344Y983420D01*
X1525670Y985094D01*
X1523620Y986277D01*
X1521333Y986890D01*
D02*
G37*
G36*
X1501034D02*
X1498667D01*
X1496380Y986277D01*
X1494330Y985094D01*
X1492656Y983420D01*
X1491473Y981370D01*
X1490860Y979084D01*
Y976716D01*
X1491473Y974430D01*
X1492656Y972380D01*
X1494330Y970706D01*
X1496380Y969523D01*
X1498667Y968910D01*
X1501034D01*
X1503320Y969523D01*
X1505370Y970706D01*
X1507044Y972380D01*
X1508228Y974430D01*
X1508840Y976716D01*
Y979084D01*
X1508228Y981370D01*
X1507044Y983420D01*
X1505370Y985094D01*
X1503320Y986277D01*
X1501034Y986890D01*
D02*
G37*
G36*
X1460433D02*
X1458066D01*
X1455780Y986277D01*
X1453730Y985094D01*
X1452056Y983420D01*
X1450872Y981370D01*
X1450260Y979084D01*
Y976716D01*
X1450872Y974430D01*
X1452056Y972380D01*
X1453730Y970706D01*
X1455780Y969523D01*
X1458066Y968910D01*
X1460433D01*
X1462720Y969523D01*
X1464770Y970706D01*
X1466444Y972380D01*
X1467627Y974430D01*
X1468240Y976716D01*
Y979084D01*
X1467627Y981370D01*
X1466444Y983420D01*
X1464770Y985094D01*
X1462720Y986277D01*
X1460433Y986890D01*
D02*
G37*
G36*
X1440134D02*
X1437767D01*
X1435480Y986277D01*
X1433430Y985094D01*
X1431756Y983420D01*
X1430573Y981370D01*
X1429960Y979084D01*
Y976716D01*
X1430573Y974430D01*
X1431756Y972380D01*
X1433430Y970706D01*
X1435480Y969523D01*
X1437767Y968910D01*
X1440134D01*
X1442420Y969523D01*
X1444470Y970706D01*
X1446144Y972380D01*
X1447328Y974430D01*
X1447940Y976716D01*
Y979084D01*
X1447328Y981370D01*
X1446144Y983420D01*
X1444470Y985094D01*
X1442420Y986277D01*
X1440134Y986890D01*
D02*
G37*
G36*
X1419834D02*
X1417466D01*
X1415180Y986277D01*
X1413130Y985094D01*
X1411456Y983420D01*
X1410273Y981370D01*
X1409660Y979084D01*
Y976716D01*
X1410273Y974430D01*
X1411456Y972380D01*
X1413130Y970706D01*
X1415180Y969523D01*
X1417466Y968910D01*
X1419834D01*
X1422120Y969523D01*
X1424170Y970706D01*
X1425844Y972380D01*
X1427027Y974430D01*
X1427640Y976716D01*
Y979084D01*
X1427027Y981370D01*
X1425844Y983420D01*
X1424170Y985094D01*
X1422120Y986277D01*
X1419834Y986890D01*
D02*
G37*
G36*
X1541720Y962150D02*
X1539180D01*
X1536725Y961492D01*
X1534525Y960222D01*
X1532728Y958425D01*
X1531458Y956225D01*
X1530800Y953771D01*
Y951229D01*
X1531458Y948775D01*
X1532728Y946575D01*
X1534525Y944778D01*
X1536725Y943508D01*
X1539180Y942850D01*
X1541720D01*
X1544175Y943508D01*
X1546375Y944778D01*
X1548172Y946575D01*
X1549442Y948775D01*
X1550100Y951229D01*
Y953771D01*
X1549442Y956225D01*
X1548172Y958425D01*
X1546375Y960222D01*
X1544175Y961492D01*
X1541720Y962150D01*
D02*
G37*
G36*
X1516370D02*
X1513829D01*
X1511375Y961492D01*
X1509175Y960222D01*
X1507378Y958425D01*
X1506107Y956225D01*
X1505450Y953771D01*
Y951229D01*
X1506107Y948775D01*
X1507378Y946575D01*
X1509175Y944778D01*
X1511375Y943508D01*
X1513829Y942850D01*
X1516370D01*
X1518825Y943508D01*
X1521025Y944778D01*
X1522822Y946575D01*
X1524092Y948775D01*
X1524750Y951229D01*
Y953771D01*
X1524092Y956225D01*
X1522822Y958425D01*
X1521025Y960222D01*
X1518825Y961492D01*
X1516370Y962150D01*
D02*
G37*
G36*
X1445271D02*
X1442730D01*
X1440275Y961492D01*
X1438075Y960222D01*
X1436278Y958425D01*
X1435008Y956225D01*
X1434350Y953771D01*
Y951229D01*
X1435008Y948775D01*
X1436278Y946575D01*
X1438075Y944778D01*
X1440275Y943508D01*
X1442730Y942850D01*
X1445271D01*
X1447725Y943508D01*
X1449925Y944778D01*
X1451722Y946575D01*
X1452993Y948775D01*
X1453650Y951229D01*
Y953771D01*
X1452993Y956225D01*
X1451722Y958425D01*
X1449925Y960222D01*
X1447725Y961492D01*
X1445271Y962150D01*
D02*
G37*
G36*
X1419920D02*
X1417379D01*
X1414925Y961492D01*
X1412725Y960222D01*
X1410928Y958425D01*
X1409658Y956225D01*
X1409000Y953771D01*
Y951229D01*
X1409658Y948775D01*
X1410928Y946575D01*
X1412725Y944778D01*
X1414925Y943508D01*
X1417379Y942850D01*
X1419920D01*
X1422375Y943508D01*
X1424575Y944778D01*
X1426372Y946575D01*
X1427642Y948775D01*
X1428300Y951229D01*
Y953771D01*
X1427642Y956225D01*
X1426372Y958425D01*
X1424575Y960222D01*
X1422375Y961492D01*
X1419920Y962150D01*
D02*
G37*
G36*
X1620245Y934640D02*
X1618255D01*
X1616418Y933879D01*
X1615011Y932472D01*
X1614250Y930635D01*
Y928645D01*
X1615011Y926808D01*
X1616418Y925401D01*
X1618255Y924640D01*
X1620245D01*
X1622082Y925401D01*
X1623489Y926808D01*
X1624250Y928645D01*
Y930635D01*
X1623489Y932472D01*
X1622082Y933879D01*
X1620245Y934640D01*
D02*
G37*
G36*
X1651995Y933370D02*
X1650005D01*
X1648168Y932609D01*
X1646761Y931202D01*
X1646000Y929365D01*
Y927375D01*
X1646761Y925538D01*
X1648168Y924131D01*
X1650005Y923370D01*
X1651995D01*
X1653832Y924131D01*
X1655239Y925538D01*
X1656000Y927375D01*
Y929365D01*
X1655239Y931202D01*
X1653832Y932609D01*
X1651995Y933370D01*
D02*
G37*
G36*
X1582145D02*
X1580155D01*
X1578318Y932609D01*
X1576911Y931202D01*
X1576150Y929365D01*
Y927375D01*
X1576911Y925538D01*
X1578318Y924131D01*
X1580155Y923370D01*
X1582145D01*
X1583982Y924131D01*
X1585389Y925538D01*
X1586150Y927375D01*
Y929365D01*
X1585389Y931202D01*
X1583982Y932609D01*
X1582145Y933370D01*
D02*
G37*
G36*
X1657075Y892730D02*
X1655085D01*
X1653248Y891969D01*
X1651841Y890562D01*
X1651080Y888725D01*
Y886735D01*
X1651841Y884898D01*
X1653248Y883491D01*
X1655085Y882730D01*
X1657075D01*
X1658912Y883491D01*
X1660319Y884898D01*
X1661080Y886735D01*
Y888725D01*
X1660319Y890562D01*
X1658912Y891969D01*
X1657075Y892730D01*
D02*
G37*
G36*
X1373865Y883840D02*
X1371875D01*
X1370038Y883079D01*
X1368631Y881672D01*
X1367870Y879835D01*
Y877845D01*
X1368631Y876008D01*
X1370038Y874601D01*
X1371875Y873840D01*
X1373865D01*
X1375702Y874601D01*
X1377109Y876008D01*
X1377870Y877845D01*
Y879835D01*
X1377109Y881672D01*
X1375702Y883079D01*
X1373865Y883840D01*
D02*
G37*
G36*
X1584685Y853360D02*
X1582695D01*
X1580858Y852599D01*
X1579451Y851192D01*
X1578690Y849355D01*
Y847365D01*
X1579451Y845528D01*
X1580858Y844121D01*
X1582695Y843360D01*
X1584685D01*
X1586522Y844121D01*
X1587929Y845528D01*
X1588690Y847365D01*
Y849355D01*
X1587929Y851192D01*
X1586522Y852599D01*
X1584685Y853360D01*
D02*
G37*
G36*
X1377675Y850820D02*
X1375685D01*
X1373848Y850059D01*
X1372441Y848652D01*
X1371680Y846815D01*
Y844825D01*
X1372441Y842988D01*
X1373848Y841581D01*
X1375685Y840820D01*
X1377675D01*
X1379512Y841581D01*
X1380919Y842988D01*
X1381680Y844825D01*
Y846815D01*
X1380919Y848652D01*
X1379512Y850059D01*
X1377675Y850820D01*
D02*
G37*
G36*
X1510391Y829150D02*
X1508402D01*
X1506564Y828389D01*
X1505157Y826982D01*
X1504396Y825145D01*
Y823155D01*
X1505157Y821318D01*
X1506564Y819911D01*
X1508402Y819150D01*
X1510391D01*
X1512229Y819911D01*
X1513635Y821318D01*
X1514396Y823155D01*
Y825145D01*
X1513635Y826982D01*
X1512229Y828389D01*
X1510391Y829150D01*
D02*
G37*
G36*
X1626924Y823340D02*
X1624817D01*
X1622782Y822795D01*
X1620958Y821742D01*
X1619469Y820252D01*
X1618416Y818428D01*
X1617870Y816393D01*
Y814287D01*
X1618416Y812252D01*
X1619469Y810428D01*
X1620958Y808938D01*
X1622782Y807885D01*
X1624817Y807340D01*
X1626924D01*
X1628958Y807885D01*
X1630782Y808938D01*
X1632272Y810428D01*
X1633325Y812252D01*
X1633870Y814287D01*
Y816393D01*
X1633325Y818428D01*
X1632272Y820252D01*
X1630782Y821742D01*
X1628958Y822795D01*
X1626924Y823340D01*
D02*
G37*
G36*
X1602523D02*
X1600417D01*
X1598382Y822795D01*
X1596558Y821742D01*
X1595068Y820252D01*
X1594015Y818428D01*
X1593470Y816393D01*
Y814287D01*
X1594015Y812252D01*
X1595068Y810428D01*
X1596558Y808938D01*
X1598382Y807885D01*
X1600417Y807340D01*
X1602523D01*
X1604558Y807885D01*
X1606382Y808938D01*
X1607872Y810428D01*
X1608925Y812252D01*
X1609470Y814287D01*
Y816393D01*
X1608925Y818428D01*
X1607872Y820252D01*
X1606382Y821742D01*
X1604558Y822795D01*
X1602523Y823340D01*
D02*
G37*
G36*
X1585070D02*
X1569070D01*
Y807340D01*
X1585070D01*
Y823340D01*
D02*
G37*
G36*
X1373865Y815166D02*
X1371875D01*
X1370038Y814405D01*
X1368631Y812999D01*
X1367870Y811161D01*
Y809172D01*
X1368631Y807334D01*
X1370038Y805928D01*
X1371875Y805166D01*
X1373865D01*
X1375702Y805928D01*
X1377109Y807334D01*
X1377870Y809172D01*
Y811161D01*
X1377109Y812999D01*
X1375702Y814405D01*
X1373865Y815166D01*
D02*
G37*
G36*
X1563095Y810180D02*
X1561105D01*
X1559268Y809419D01*
X1557861Y808012D01*
X1557100Y806175D01*
Y804185D01*
X1557861Y802348D01*
X1559268Y800941D01*
X1561105Y800180D01*
X1563095D01*
X1564932Y800941D01*
X1566339Y802348D01*
X1567100Y804185D01*
Y806175D01*
X1566339Y808012D01*
X1564932Y809419D01*
X1563095Y810180D01*
D02*
G37*
G36*
X1498854Y806820D02*
X1496865D01*
X1495027Y806059D01*
X1493621Y804652D01*
X1492860Y802815D01*
Y800826D01*
X1493621Y798988D01*
X1495027Y797581D01*
X1496865Y796820D01*
X1498854D01*
X1500692Y797581D01*
X1502099Y798988D01*
X1502860Y800826D01*
Y802815D01*
X1502099Y804652D01*
X1500692Y806059D01*
X1498854Y806820D01*
D02*
G37*
G36*
X1529373Y800110D02*
X1527384D01*
X1525546Y799349D01*
X1524140Y797942D01*
X1523378Y796105D01*
Y794116D01*
X1524140Y792278D01*
X1525546Y790871D01*
X1527384Y790110D01*
X1529373D01*
X1531211Y790871D01*
X1532617Y792278D01*
X1533378Y794116D01*
Y796105D01*
X1532617Y797942D01*
X1531211Y799349D01*
X1529373Y800110D01*
D02*
G37*
G36*
X1541659Y797710D02*
X1539670D01*
X1537832Y796949D01*
X1536426Y795542D01*
X1535665Y793705D01*
Y791715D01*
X1536426Y789878D01*
X1537832Y788471D01*
X1539670Y787710D01*
X1541659D01*
X1543497Y788471D01*
X1544903Y789878D01*
X1545665Y791715D01*
Y793705D01*
X1544903Y795542D01*
X1543497Y796949D01*
X1541659Y797710D01*
D02*
G37*
G36*
X1417309Y790125D02*
X1415320D01*
X1413482Y789363D01*
X1412076Y787957D01*
X1411315Y786119D01*
Y784130D01*
X1412076Y782292D01*
X1413482Y780886D01*
X1415320Y780125D01*
X1417309D01*
X1419147Y780886D01*
X1420553Y782292D01*
X1421315Y784130D01*
Y786119D01*
X1420553Y787957D01*
X1419147Y789363D01*
X1417309Y790125D01*
D02*
G37*
G36*
X1570715Y787320D02*
X1568725D01*
X1566888Y786559D01*
X1565481Y785152D01*
X1564720Y783315D01*
Y781325D01*
X1565481Y779488D01*
X1566888Y778081D01*
X1568725Y777320D01*
X1570715D01*
X1572552Y778081D01*
X1573959Y779488D01*
X1574720Y781325D01*
Y783315D01*
X1573959Y785152D01*
X1572552Y786559D01*
X1570715Y787320D01*
D02*
G37*
G36*
X1467845D02*
X1465855D01*
X1464018Y786559D01*
X1462611Y785152D01*
X1461850Y783315D01*
Y781325D01*
X1462611Y779488D01*
X1464018Y778081D01*
X1465855Y777320D01*
X1467845D01*
X1469682Y778081D01*
X1471089Y779488D01*
X1471850Y781325D01*
Y783315D01*
X1471089Y785152D01*
X1469682Y786559D01*
X1467845Y787320D01*
D02*
G37*
G36*
X1363705Y772080D02*
X1361715D01*
X1359878Y771319D01*
X1358471Y769912D01*
X1357710Y768075D01*
Y766085D01*
X1358471Y764248D01*
X1359878Y762841D01*
X1361715Y762080D01*
X1363705D01*
X1365542Y762841D01*
X1366949Y764248D01*
X1367710Y766085D01*
Y768075D01*
X1366949Y769912D01*
X1365542Y771319D01*
X1363705Y772080D01*
D02*
G37*
G36*
X1642005Y754340D02*
X1639675D01*
X1637424Y753737D01*
X1635406Y752572D01*
X1633758Y750924D01*
X1632593Y748906D01*
X1631990Y746655D01*
Y744325D01*
X1632593Y742074D01*
X1633758Y740056D01*
X1635406Y738408D01*
X1637424Y737243D01*
X1639675Y736640D01*
X1642005D01*
X1644256Y737243D01*
X1646274Y738408D01*
X1647922Y740056D01*
X1649087Y742074D01*
X1649690Y744325D01*
Y746655D01*
X1649087Y748906D01*
X1647922Y750924D01*
X1646274Y752572D01*
X1644256Y753737D01*
X1642005Y754340D01*
D02*
G37*
G36*
X1624290D02*
X1606590D01*
Y736640D01*
X1624290D01*
Y754340D01*
D02*
G37*
G36*
X1508945Y746220D02*
X1506955D01*
X1505118Y745459D01*
X1503711Y744052D01*
X1502950Y742215D01*
Y740225D01*
X1503711Y738388D01*
X1505118Y736981D01*
X1506955Y736220D01*
X1508945D01*
X1510782Y736981D01*
X1512189Y738388D01*
X1512950Y740225D01*
Y742215D01*
X1512189Y744052D01*
X1510782Y745459D01*
X1508945Y746220D01*
D02*
G37*
G36*
X1524714Y734440D02*
X1522725D01*
X1520887Y733679D01*
X1519480Y732272D01*
X1518719Y730435D01*
Y728445D01*
X1519480Y726608D01*
X1520887Y725201D01*
X1522725Y724440D01*
X1524714D01*
X1526552Y725201D01*
X1527958Y726608D01*
X1528719Y728445D01*
Y730435D01*
X1527958Y732272D01*
X1526552Y733679D01*
X1524714Y734440D01*
D02*
G37*
G36*
X1544045Y730170D02*
X1542055D01*
X1540218Y729409D01*
X1538811Y728002D01*
X1538050Y726165D01*
Y724175D01*
X1538811Y722338D01*
X1540218Y720931D01*
X1542055Y720170D01*
X1544045D01*
X1545882Y720931D01*
X1547289Y722338D01*
X1548050Y724175D01*
Y726165D01*
X1547289Y728002D01*
X1545882Y729409D01*
X1544045Y730170D01*
D02*
G37*
G36*
X1491975D02*
X1489985D01*
X1488148Y729409D01*
X1486741Y728002D01*
X1485980Y726165D01*
Y724175D01*
X1486741Y722338D01*
X1488148Y720931D01*
X1489985Y720170D01*
X1491975D01*
X1493812Y720931D01*
X1495219Y722338D01*
X1495980Y724175D01*
Y726165D01*
X1495219Y728002D01*
X1493812Y729409D01*
X1491975Y730170D01*
D02*
G37*
G36*
X1419585Y725090D02*
X1417595D01*
X1415758Y724329D01*
X1414351Y722922D01*
X1413590Y721085D01*
Y719095D01*
X1414351Y717258D01*
X1415758Y715851D01*
X1417595Y715090D01*
X1419585D01*
X1421422Y715851D01*
X1422829Y717258D01*
X1423590Y719095D01*
Y721085D01*
X1422829Y722922D01*
X1421422Y724329D01*
X1419585Y725090D01*
D02*
G37*
G36*
X1465305Y692070D02*
X1463315D01*
X1461478Y691309D01*
X1460071Y689902D01*
X1459310Y688065D01*
Y686075D01*
X1460071Y684238D01*
X1461478Y682831D01*
X1463315Y682070D01*
X1465305D01*
X1467142Y682831D01*
X1468549Y684238D01*
X1469310Y686075D01*
Y688065D01*
X1468549Y689902D01*
X1467142Y691309D01*
X1465305Y692070D01*
D02*
G37*
G36*
X1442445Y659050D02*
X1440455D01*
X1438618Y658289D01*
X1437211Y656882D01*
X1436450Y655045D01*
Y653055D01*
X1437211Y651218D01*
X1438618Y649811D01*
X1440455Y649050D01*
X1442445D01*
X1444282Y649811D01*
X1445689Y651218D01*
X1446450Y653055D01*
Y655045D01*
X1445689Y656882D01*
X1444282Y658289D01*
X1442445Y659050D01*
D02*
G37*
G36*
X1372830Y659090D02*
X1355130D01*
Y641390D01*
X1372830D01*
Y659090D01*
D02*
G37*
G36*
X1339745D02*
X1337415D01*
X1335164Y658487D01*
X1333146Y657322D01*
X1331498Y655674D01*
X1330333Y653656D01*
X1329730Y651405D01*
Y649075D01*
X1330333Y646824D01*
X1331498Y644806D01*
X1333146Y643158D01*
X1335164Y641993D01*
X1337415Y641390D01*
X1339745D01*
X1341996Y641993D01*
X1344014Y643158D01*
X1345662Y644806D01*
X1346827Y646824D01*
X1347430Y649075D01*
Y651405D01*
X1346827Y653656D01*
X1345662Y655674D01*
X1344014Y657322D01*
X1341996Y658487D01*
X1339745Y659090D01*
D02*
G37*
G36*
X1314345D02*
X1312015D01*
X1309764Y658487D01*
X1307746Y657322D01*
X1306098Y655674D01*
X1304933Y653656D01*
X1304330Y651405D01*
Y649075D01*
X1304933Y646824D01*
X1306098Y644806D01*
X1307746Y643158D01*
X1309764Y641993D01*
X1312015Y641390D01*
X1314345D01*
X1316596Y641993D01*
X1318614Y643158D01*
X1320262Y644806D01*
X1321427Y646824D01*
X1322030Y649075D01*
Y651405D01*
X1321427Y653656D01*
X1320262Y655674D01*
X1318614Y657322D01*
X1316596Y658487D01*
X1314345Y659090D01*
D02*
G37*
G36*
X1365145Y633690D02*
X1362815D01*
X1360564Y633087D01*
X1358546Y631922D01*
X1356898Y630274D01*
X1355733Y628256D01*
X1355130Y626005D01*
Y623675D01*
X1355733Y621424D01*
X1356898Y619406D01*
X1358546Y617758D01*
X1360564Y616593D01*
X1362815Y615990D01*
X1365145D01*
X1367396Y616593D01*
X1369414Y617758D01*
X1371062Y619406D01*
X1372227Y621424D01*
X1372830Y623675D01*
Y626005D01*
X1372227Y628256D01*
X1371062Y630274D01*
X1369414Y631922D01*
X1367396Y633087D01*
X1365145Y633690D01*
D02*
G37*
G36*
X1339745D02*
X1337415D01*
X1335164Y633087D01*
X1333146Y631922D01*
X1331498Y630274D01*
X1330333Y628256D01*
X1329730Y626005D01*
Y623675D01*
X1330333Y621424D01*
X1331498Y619406D01*
X1333146Y617758D01*
X1335164Y616593D01*
X1337415Y615990D01*
X1339745D01*
X1341996Y616593D01*
X1344014Y617758D01*
X1345662Y619406D01*
X1346827Y621424D01*
X1347430Y623675D01*
Y626005D01*
X1346827Y628256D01*
X1345662Y630274D01*
X1344014Y631922D01*
X1341996Y633087D01*
X1339745Y633690D01*
D02*
G37*
G36*
X1314345D02*
X1312015D01*
X1309764Y633087D01*
X1307746Y631922D01*
X1306098Y630274D01*
X1304933Y628256D01*
X1304330Y626005D01*
Y623675D01*
X1304933Y621424D01*
X1306098Y619406D01*
X1307746Y617758D01*
X1309764Y616593D01*
X1312015Y615990D01*
X1314345D01*
X1316596Y616593D01*
X1318614Y617758D01*
X1320262Y619406D01*
X1321427Y621424D01*
X1322030Y623675D01*
Y626005D01*
X1321427Y628256D01*
X1320262Y630274D01*
X1318614Y631922D01*
X1316596Y633087D01*
X1314345Y633690D01*
D02*
G37*
G36*
X1519915Y610790D02*
X1517925D01*
X1516088Y610029D01*
X1514681Y608622D01*
X1513920Y606785D01*
Y604795D01*
X1514681Y602958D01*
X1516088Y601551D01*
X1517925Y600790D01*
X1519915D01*
X1521752Y601551D01*
X1523159Y602958D01*
X1523920Y604795D01*
Y606785D01*
X1523159Y608622D01*
X1521752Y610029D01*
X1519915Y610790D01*
D02*
G37*
G36*
X1566905Y572690D02*
X1564915D01*
X1563078Y571929D01*
X1561671Y570522D01*
X1560910Y568685D01*
Y566695D01*
X1561671Y564858D01*
X1563078Y563451D01*
X1564915Y562690D01*
X1566905D01*
X1568742Y563451D01*
X1570149Y564858D01*
X1570910Y566695D01*
Y568685D01*
X1570149Y570522D01*
X1568742Y571929D01*
X1566905Y572690D01*
D02*
G37*
G36*
X1687555Y534590D02*
X1685565D01*
X1683728Y533829D01*
X1682321Y532422D01*
X1681560Y530585D01*
Y528595D01*
X1682321Y526758D01*
X1683728Y525351D01*
X1685565Y524590D01*
X1687555D01*
X1689392Y525351D01*
X1690799Y526758D01*
X1691560Y528595D01*
Y530585D01*
X1690799Y532422D01*
X1689392Y533829D01*
X1687555Y534590D01*
D02*
G37*
G36*
X1518645Y530780D02*
X1516655D01*
X1514818Y530019D01*
X1513411Y528612D01*
X1512650Y526775D01*
Y524785D01*
X1513411Y522948D01*
X1514818Y521541D01*
X1516655Y520780D01*
X1518645D01*
X1520482Y521541D01*
X1521889Y522948D01*
X1522650Y524785D01*
Y526775D01*
X1521889Y528612D01*
X1520482Y530019D01*
X1518645Y530780D01*
D02*
G37*
G36*
X1395455Y506650D02*
X1393465D01*
X1391628Y505889D01*
X1390221Y504482D01*
X1389460Y502645D01*
Y500655D01*
X1390221Y498818D01*
X1391628Y497411D01*
X1393465Y496650D01*
X1395455D01*
X1397292Y497411D01*
X1398699Y498818D01*
X1399460Y500655D01*
Y502645D01*
X1398699Y504482D01*
X1397292Y505889D01*
X1395455Y506650D01*
D02*
G37*
G36*
X1375135D02*
X1373145D01*
X1371308Y505889D01*
X1369901Y504482D01*
X1369140Y502645D01*
Y500655D01*
X1369901Y498818D01*
X1371308Y497411D01*
X1373145Y496650D01*
X1375135D01*
X1376972Y497411D01*
X1378379Y498818D01*
X1379140Y500655D01*
Y502645D01*
X1378379Y504482D01*
X1376972Y505889D01*
X1375135Y506650D01*
D02*
G37*
G36*
X1485625Y491049D02*
X1483635D01*
X1481798Y490288D01*
X1480391Y488882D01*
X1479630Y487044D01*
Y485055D01*
X1480391Y483217D01*
X1481798Y481811D01*
X1483635Y481049D01*
X1485625D01*
X1487462Y481811D01*
X1488869Y483217D01*
X1489630Y485055D01*
Y487044D01*
X1488869Y488882D01*
X1487462Y490288D01*
X1485625Y491049D01*
D02*
G37*
%LPD*%
D64*
X1694180Y247650D02*
D03*
X1267460D02*
D03*
X1694180Y1207770D02*
D03*
X1267460D02*
D03*
D65*
X1416050Y1155700D02*
D03*
X1543050D02*
D03*
D66*
X1398900Y1187500D02*
D03*
X1560200D02*
D03*
D67*
X1423650Y1074500D02*
D03*
Y1089100D02*
D03*
X1535450Y1074500D02*
D03*
Y1089100D02*
D03*
D68*
X1418650Y952500D02*
D03*
X1444000D02*
D03*
X1515100D02*
D03*
X1540450D02*
D03*
D69*
X1418650Y977900D02*
D03*
X1438950D02*
D03*
X1459250D02*
D03*
X1499850D02*
D03*
X1520150D02*
D03*
X1540450D02*
D03*
X1469400Y1003300D02*
D03*
X1489700D02*
D03*
X1510000D02*
D03*
X1530300D02*
D03*
X1449100D02*
D03*
X1428800D02*
D03*
D70*
X1375410Y297180D02*
D03*
X1363980Y650240D02*
D03*
X1615440Y745490D02*
D03*
D71*
X1350010Y297180D02*
D03*
X1324610D02*
D03*
X1299210D02*
D03*
X1363980Y624840D02*
D03*
X1338580Y650240D02*
D03*
Y624840D02*
D03*
X1313180Y650240D02*
D03*
Y624840D02*
D03*
X1640840Y745490D02*
D03*
D72*
X1625870Y815340D02*
D03*
X1601470D02*
D03*
D73*
X1577070D02*
D03*
D74*
X1406540Y992490D02*
D03*
X1583690Y848360D02*
D03*
X1496060Y332601D02*
D03*
X1569747Y304615D02*
D03*
X1581150Y928370D02*
D03*
X1553210Y443230D02*
D03*
X1596529Y389890D02*
D03*
X1671320Y420370D02*
D03*
X1416315Y785125D02*
D03*
X1425990Y774763D02*
D03*
X1437640Y777240D02*
D03*
X1418590Y720090D02*
D03*
X1543050Y725170D02*
D03*
X1466850Y782320D02*
D03*
X1362710Y767080D02*
D03*
X1577340Y1093470D02*
D03*
X1651000Y928370D02*
D03*
X1656080Y887730D02*
D03*
X1619250Y929640D02*
D03*
X1374140Y501650D02*
D03*
X1561720Y362225D02*
D03*
X1532890Y289560D02*
D03*
X1507490Y464820D02*
D03*
X1421130Y364490D02*
D03*
X1357630Y355600D02*
D03*
X1435100Y588010D02*
D03*
X1394460Y501650D02*
D03*
X1299210Y365760D02*
D03*
X1327334Y366846D02*
D03*
X1484630Y486049D02*
D03*
X1633220Y464820D02*
D03*
X1567180Y346710D02*
D03*
X1559560Y374650D02*
D03*
X1476745Y330465D02*
D03*
X1504950Y313230D02*
D03*
X1517650Y525780D02*
D03*
X1277620Y464820D02*
D03*
X1686560Y529590D02*
D03*
X1535430Y659130D02*
D03*
Y589280D02*
D03*
X1560506Y469187D02*
D03*
X1677670Y657860D02*
D03*
X1633220Y589280D02*
D03*
X1591310Y568960D02*
D03*
X1431290Y657860D02*
D03*
X1441450Y654050D02*
D03*
X1485900Y659130D02*
D03*
X1386840Y741680D02*
D03*
X1527810Y848360D02*
D03*
X1667510Y981710D02*
D03*
X1616710Y1089660D02*
D03*
X1371600Y923290D02*
D03*
X1372870Y878840D02*
D03*
X1380490Y1017270D02*
D03*
X1318260Y1076960D02*
D03*
X1461770Y796290D02*
D03*
X1557020Y927100D02*
D03*
X1617980Y1009650D02*
D03*
X1625368Y422698D02*
D03*
X1490980Y725170D02*
D03*
X1507950Y741220D02*
D03*
X1523719Y729440D02*
D03*
X1569720Y782320D02*
D03*
X1540665Y792710D02*
D03*
X1528378Y795110D02*
D03*
X1562100Y805180D02*
D03*
X1497860Y801820D02*
D03*
X1464310Y687070D02*
D03*
X1518920Y605790D02*
D03*
X1509396Y824150D02*
D03*
X1372870Y810166D02*
D03*
X1565910Y567690D02*
D03*
X1493520Y414020D02*
D03*
X1376680Y845820D02*
D03*
M02*
