G04*
G04 #@! TF.GenerationSoftware,Altium Limited,Altium Designer,23.0.1 (38)*
G04*
G04 Layer_Color=16711935*
%FSLAX44Y44*%
%MOMM*%
G71*
G04*
G04 #@! TF.SameCoordinates,29EA246D-3BC2-426E-A151-39073B1FECC7*
G04*
G04*
G04 #@! TF.FilePolarity,Positive*
G04*
G01*
G75*
%ADD11C,0.2000*%
%ADD15C,0.2540*%
%ADD16C,0.1270*%
%ADD98C,0.1000*%
G36*
X1408207Y757514D02*
X1397602D01*
Y759643D01*
X1408207D01*
Y757514D01*
D02*
G37*
G36*
X1408179Y767489D02*
X1397578D01*
Y769671D01*
X1408179D01*
Y767489D01*
D02*
G37*
G36*
X1408208Y762570D02*
X1397658D01*
Y764642D01*
X1408208D01*
Y762570D01*
D02*
G37*
G36*
X1408172Y772511D02*
X1397600D01*
Y774678D01*
X1408172D01*
Y772511D01*
D02*
G37*
G36*
X1408181Y777558D02*
X1397646D01*
Y779669D01*
X1408181D01*
Y777558D01*
D02*
G37*
G36*
X1408182Y782576D02*
X1397665D01*
Y784668D01*
X1408182D01*
Y782576D01*
D02*
G37*
G36*
X1421237Y741038D02*
X1419126D01*
Y751613D01*
X1421237D01*
Y741038D01*
D02*
G37*
G36*
X1416223Y741097D02*
X1414186D01*
Y751627D01*
X1416223D01*
Y741097D01*
D02*
G37*
G36*
X1426239Y741061D02*
X1424150D01*
Y751611D01*
X1426239D01*
Y741061D01*
D02*
G37*
G36*
X1431266Y741012D02*
X1429101D01*
Y751584D01*
X1431266D01*
Y741012D01*
D02*
G37*
G36*
X1436275Y741024D02*
X1434113D01*
Y751575D01*
X1436275D01*
Y741024D01*
D02*
G37*
G36*
X1441274Y741051D02*
X1439140D01*
Y751577D01*
X1441274D01*
Y741051D01*
D02*
G37*
G36*
X1446269Y741074D02*
X1444162D01*
Y751581D01*
X1446269D01*
Y741074D01*
D02*
G37*
G36*
X1451259Y741095D02*
X1449184D01*
Y751591D01*
X1451259D01*
Y741095D01*
D02*
G37*
G36*
X1456256Y741105D02*
X1454194D01*
Y751594D01*
X1456256D01*
Y741105D01*
D02*
G37*
G36*
X1461305Y741085D02*
X1459173D01*
Y751545D01*
X1461305D01*
Y741085D01*
D02*
G37*
G36*
X1466268Y741111D02*
X1464200D01*
Y751582D01*
X1466268D01*
Y741111D01*
D02*
G37*
G36*
X1471368Y741087D02*
X1469176D01*
Y751482D01*
X1471368D01*
Y741087D01*
D02*
G37*
G36*
X1487810Y757638D02*
X1477227D01*
Y759540D01*
X1487810D01*
Y757638D01*
D02*
G37*
G36*
X1487812Y762646D02*
X1477235D01*
Y764539D01*
X1487812D01*
Y762646D01*
D02*
G37*
G36*
X1487785Y767648D02*
X1477236D01*
Y769565D01*
X1487785D01*
Y767648D01*
D02*
G37*
G36*
X1487753Y777648D02*
X1477236D01*
Y779598D01*
X1487753D01*
Y777648D01*
D02*
G37*
G36*
X1487802Y772662D02*
X1477250D01*
Y774548D01*
X1487802D01*
Y772662D01*
D02*
G37*
G36*
X1487783Y782673D02*
X1477262D01*
Y784567D01*
X1487783D01*
Y782673D01*
D02*
G37*
G36*
X1408151Y792570D02*
X1397658D01*
Y794699D01*
X1408151D01*
Y792570D01*
D02*
G37*
G36*
X1408167Y787571D02*
X1397660D01*
Y789683D01*
X1408167D01*
Y787571D01*
D02*
G37*
G36*
X1408129Y797568D02*
X1397657D01*
Y799721D01*
X1408129D01*
Y797568D01*
D02*
G37*
G36*
X1408126Y802580D02*
X1397669D01*
Y804724D01*
X1408126D01*
Y802580D01*
D02*
G37*
G36*
X1408141Y807599D02*
X1397688D01*
Y809710D01*
X1408141D01*
Y807599D01*
D02*
G37*
G36*
X1408110Y812598D02*
X1397687D01*
Y814741D01*
X1408110D01*
Y812598D01*
D02*
G37*
G36*
X1421148Y820643D02*
X1419231D01*
Y831202D01*
X1421148D01*
Y820643D01*
D02*
G37*
G36*
X1416100Y820641D02*
X1414230D01*
Y831250D01*
X1416100D01*
Y820641D01*
D02*
G37*
G36*
X1426123Y820656D02*
X1424245D01*
Y831227D01*
X1426123D01*
Y820656D01*
D02*
G37*
G36*
X1431166Y820650D02*
X1429239D01*
Y831184D01*
X1431166D01*
Y820650D01*
D02*
G37*
G36*
X1436153Y820664D02*
X1434253D01*
Y831197D01*
X1436153D01*
Y820664D01*
D02*
G37*
G36*
X1441165Y820667D02*
X1439256D01*
Y831186D01*
X1441165D01*
Y820667D01*
D02*
G37*
G36*
X1487766Y792683D02*
X1477272D01*
Y794584D01*
X1487766D01*
Y792683D01*
D02*
G37*
G36*
X1487778Y787682D02*
X1477271D01*
Y789572D01*
X1487778D01*
Y787682D01*
D02*
G37*
G36*
X1487753Y797680D02*
X1477269D01*
Y799597D01*
X1487753D01*
Y797680D01*
D02*
G37*
G36*
X1487747Y807702D02*
X1477290D01*
Y809604D01*
X1487747D01*
Y807702D01*
D02*
G37*
G36*
X1487755Y802699D02*
X1477288D01*
Y804595D01*
X1487755D01*
Y802699D01*
D02*
G37*
G36*
X1487754Y812758D02*
X1477347D01*
Y814596D01*
X1487754D01*
Y812758D01*
D02*
G37*
G36*
X1446159Y820683D02*
X1444272D01*
Y831191D01*
X1446159D01*
Y820683D01*
D02*
G37*
G36*
X1451128Y820734D02*
X1449322D01*
Y831222D01*
X1451128D01*
Y820734D01*
D02*
G37*
G36*
X1456173Y820699D02*
X1454288D01*
Y831178D01*
X1456173D01*
Y820699D01*
D02*
G37*
G36*
X1466196Y820692D02*
X1464280D01*
Y831154D01*
X1466196D01*
Y820692D01*
D02*
G37*
G36*
X1461185Y820696D02*
X1459285D01*
Y831165D01*
X1461185D01*
Y820696D01*
D02*
G37*
G36*
X1471203Y820693D02*
X1469282D01*
Y831148D01*
X1471203D01*
Y820693D01*
D02*
G37*
D11*
X1395610Y297180D02*
G03*
X1395610Y297180I-1000J0D01*
G01*
X1384690Y389570D02*
G03*
X1384690Y389570I-1000J0D01*
G01*
X1384180Y650240D02*
G03*
X1384180Y650240I-1000J0D01*
G01*
X1597240Y745490D02*
G03*
X1597240Y745490I-1000J0D01*
G01*
D15*
X1428719Y806131D02*
G03*
X1428719Y806131I-6000J0D01*
G01*
D16*
X1378690Y363070D02*
Y376070D01*
Y363070D02*
X1407690D01*
Y376070D01*
X1378690D02*
X1407690D01*
X1407220Y821630D02*
X1478220D01*
X1407220Y750630D02*
Y821630D01*
Y750630D02*
X1478220D01*
Y821630D01*
X1307830Y488850D02*
X1327830D01*
X1307830Y476350D02*
X1327830D01*
X1307830D02*
Y488850D01*
X1327830Y476350D02*
Y488850D01*
D98*
X1609610Y391760D02*
G03*
X1609610Y391760I-5000J0D01*
G01*
X1552970Y840340D02*
G03*
X1544720Y832090I0J-8250D01*
G01*
X1544720Y798590D02*
G03*
X1552970Y790340I8250J0D01*
G01*
X1649970D02*
G03*
X1658220Y798590I0J8250D01*
G01*
X1658220Y832090D02*
G03*
X1649970Y840340I-8250J0D01*
G01*
X1653970Y829340D02*
G03*
X1648970Y834340I-5000J0D01*
G01*
X1548970Y801340D02*
G03*
X1553970Y796340I5000J0D01*
G01*
X1648970D02*
G03*
X1653970Y801340I0J5000D01*
G01*
X1553970Y834340D02*
G03*
X1548970Y829340I0J-5000D01*
G01*
X1564550Y934500D02*
Y1264700D01*
X1394550Y934500D02*
Y1264700D01*
X1564550D01*
X1394550Y934500D02*
X1564550D01*
X1388110Y284480D02*
Y309880D01*
X1286510Y284480D02*
X1388110D01*
X1286510D02*
Y309880D01*
X1388110D01*
Y284480D02*
Y309880D01*
X1286510Y284480D02*
X1388110D01*
X1286510D02*
Y309880D01*
X1543610Y330760D02*
Y400760D01*
X1613610Y330760D02*
Y400760D01*
X1543610Y330760D02*
X1613610D01*
X1543610Y400760D02*
X1613610D01*
X1450120Y394310D02*
X1456220Y388210D01*
Y375310D02*
Y394310D01*
X1429220Y375310D02*
X1456220D01*
X1429220D02*
Y394310D01*
X1456220D01*
X1442960Y506550D02*
X1508960D01*
X1442960Y568550D02*
X1508960D01*
Y506550D02*
Y568550D01*
X1442960Y506550D02*
Y568550D01*
X1286470Y502560D02*
X1352470D01*
X1286470Y564560D02*
X1352470D01*
Y502560D02*
Y564560D01*
X1286470Y502560D02*
Y564560D01*
X1309840Y356210D02*
X1336840D01*
X1309840Y337210D02*
Y356210D01*
Y337210D02*
X1336840D01*
Y356210D01*
X1330740D02*
X1336840Y350110D01*
X1376680Y612140D02*
Y662940D01*
X1300480Y612140D02*
X1376680D01*
X1300480D02*
Y662940D01*
X1376680D01*
Y612140D02*
Y662940D01*
X1300480Y612140D02*
X1376680D01*
X1300480D02*
Y662940D01*
X1602740Y732790D02*
Y758190D01*
X1653540D01*
Y732790D02*
Y758190D01*
X1602740Y732790D02*
X1653540D01*
X1602740D02*
Y758190D01*
X1653540D01*
Y732790D02*
Y758190D01*
X1658220Y798590D02*
Y832090D01*
X1552970Y790340D02*
X1649970D01*
X1552970Y840340D02*
X1649970D01*
X1544720Y798590D02*
Y832090D01*
X1553970Y796340D02*
X1648970D01*
X1653970Y801340D02*
Y829340D01*
X1548970Y801340D02*
Y829340D01*
X1553970Y834340D02*
X1648970D01*
X1476720Y897260D02*
X1509220D01*
X1476720Y913760D02*
X1509220D01*
Y897260D02*
Y913760D01*
X1476720Y897260D02*
Y913760D01*
X1339020Y1156785D02*
X1361020D01*
X1339020Y1171285D02*
X1361020D01*
Y1156785D02*
Y1171285D01*
X1339020Y1156785D02*
Y1171285D01*
Y1083484D02*
X1361020D01*
X1339020Y1097984D02*
X1361020D01*
Y1083484D02*
Y1097984D01*
X1339020Y1083484D02*
Y1097984D01*
X1427020Y876930D02*
X1459520D01*
X1427020Y860430D02*
X1459520D01*
X1427020D02*
Y876930D01*
X1459520Y860430D02*
Y876930D01*
X1381470Y860430D02*
X1413970D01*
X1381470Y876930D02*
X1413970D01*
Y860430D02*
Y876930D01*
X1381470Y860430D02*
Y876930D01*
X1428290Y916300D02*
X1460790D01*
X1428290Y899800D02*
X1460790D01*
X1428290D02*
Y916300D01*
X1460790Y899800D02*
Y916300D01*
X1330650Y329300D02*
Y343800D01*
X1308650Y329300D02*
Y343800D01*
Y329300D02*
X1330650D01*
X1308650Y343800D02*
X1330650D01*
M02*
