G04*
G04 #@! TF.GenerationSoftware,Altium Limited,Altium Designer,23.0.1 (38)*
G04*
G04 Layer_Color=128*
%FSLAX44Y44*%
%MOMM*%
G71*
G04*
G04 #@! TF.SameCoordinates,29EA246D-3BC2-426E-A151-39073B1FECC7*
G04*
G04*
G04 #@! TF.FilePolarity,Positive*
G04*
G01*
G75*
%ADD22R,1.3046X1.4562*%
%ADD26R,0.9500X1.3500*%
%ADD34R,1.3500X0.9500*%
G04:AMPARAMS|DCode=75|XSize=2.0528mm|YSize=0.4549mm|CornerRadius=0.2275mm|HoleSize=0mm|Usage=FLASHONLY|Rotation=0.000|XOffset=0mm|YOffset=0mm|HoleType=Round|Shape=RoundedRectangle|*
%AMROUNDEDRECTD75*
21,1,2.0528,0.0000,0,0,0.0*
21,1,1.5979,0.4549,0,0,0.0*
1,1,0.4549,0.7990,0.0000*
1,1,0.4549,-0.7990,0.0000*
1,1,0.4549,-0.7990,0.0000*
1,1,0.4549,0.7990,0.0000*
%
%ADD75ROUNDEDRECTD75*%
%ADD76R,2.0528X0.4549*%
%ADD77R,0.9500X2.1000*%
%ADD78R,0.9000X1.8000*%
%ADD79R,1.4562X1.3046*%
%ADD80R,1.5082X1.2065*%
%ADD81R,5.4500X6.2000*%
%ADD82R,1.2200X1.1200*%
%ADD83R,1.3082X1.0057*%
%ADD84R,2.4000X1.9000*%
%ADD86R,5.5000X6.5000*%
%ADD87R,1.5534X1.5562*%
%ADD94R,0.5000X0.6000*%
D22*
X1355528Y435610D02*
D03*
X1408868Y562610D02*
D03*
X1392752D02*
D03*
X1339412Y435610D02*
D03*
D26*
X1390650Y486410D02*
D03*
X1405650D02*
D03*
X1291830Y436880D02*
D03*
X1306830D02*
D03*
D34*
X1699260Y444260D02*
D03*
Y429260D02*
D03*
D75*
X1582343Y353730D02*
D03*
Y360230D02*
D03*
Y366730D02*
D03*
Y373230D02*
D03*
Y379730D02*
D03*
Y386230D02*
D03*
Y392730D02*
D03*
Y399230D02*
D03*
Y405730D02*
D03*
Y412230D02*
D03*
Y418730D02*
D03*
Y425230D02*
D03*
Y431730D02*
D03*
Y438230D02*
D03*
X1513840D02*
D03*
Y431730D02*
D03*
Y425230D02*
D03*
Y418730D02*
D03*
Y412230D02*
D03*
Y405730D02*
D03*
Y399230D02*
D03*
Y392730D02*
D03*
Y386230D02*
D03*
Y379730D02*
D03*
Y373230D02*
D03*
Y366730D02*
D03*
Y360230D02*
D03*
D76*
Y353730D02*
D03*
D77*
X1296670Y480060D02*
D03*
X1342270D02*
D03*
D78*
X1453160Y485050D02*
D03*
X1498760D02*
D03*
D79*
X1644650Y447478D02*
D03*
Y431362D02*
D03*
D80*
X1485900Y375223D02*
D03*
Y396240D02*
D03*
D81*
X1475960Y547050D02*
D03*
D82*
X1427720Y384810D02*
D03*
X1457720D02*
D03*
X1338340Y346710D02*
D03*
X1308340D02*
D03*
D83*
X1700530Y388978D02*
D03*
Y403502D02*
D03*
Y348338D02*
D03*
Y362862D02*
D03*
D84*
X1643380Y396600D02*
D03*
Y355600D02*
D03*
D86*
X1319470Y543060D02*
D03*
D87*
X1311546Y392430D02*
D03*
X1330054D02*
D03*
D94*
X1383690Y379570D02*
D03*
X1402690D02*
D03*
X1393190Y359570D02*
D03*
M02*
