G04*
G04 #@! TF.GenerationSoftware,Altium Limited,Altium Designer,23.0.1 (38)*
G04*
G04 Layer_Color=32768*
%FSLAX44Y44*%
%MOMM*%
G71*
G04*
G04 #@! TF.SameCoordinates,29EA246D-3BC2-426E-A151-39073B1FECC7*
G04*
G04*
G04 #@! TF.FilePolarity,Positive*
G04*
G01*
G75*
%ADD11C,0.2000*%
%ADD96C,0.0500*%
D11*
X1335120Y813690D02*
Y829690D01*
Y813690D02*
X1367120D01*
Y829690D01*
X1335120D02*
X1367120D01*
X1613297Y433229D02*
X1656380D01*
X1613297D02*
Y458311D01*
X1656380D01*
Y433229D02*
Y458311D01*
X1561967Y435989D02*
X1596129D01*
X1561967D02*
Y455551D01*
X1596129D01*
Y435989D02*
Y455551D01*
X1544147Y648190D02*
X1582593D01*
Y614190D02*
Y648190D01*
X1544147Y614190D02*
X1582593D01*
X1544147D02*
Y648190D01*
X1551180Y538100D02*
X1583180D01*
X1551180D02*
Y554100D01*
X1583180D01*
Y538100D02*
Y554100D01*
X1544670Y576200D02*
X1576670D01*
X1544670D02*
Y592200D01*
X1576670D01*
Y576200D02*
Y592200D01*
X1494405Y649460D02*
X1532851D01*
Y615460D02*
Y649460D01*
X1494405Y615460D02*
X1532851D01*
X1494405D02*
Y649460D01*
X1494030Y555370D02*
X1526030D01*
Y539370D02*
Y555370D01*
X1494030Y539370D02*
X1526030D01*
X1494030D02*
Y555370D01*
X1492920Y593470D02*
X1524920D01*
Y577470D02*
Y593470D01*
X1492920Y577470D02*
X1524920D01*
X1492920D02*
Y593470D01*
X1598170Y536830D02*
X1630170D01*
X1598170D02*
Y552830D01*
X1630170D01*
Y536830D02*
Y552830D01*
X1642780Y577470D02*
X1674780D01*
X1642780D02*
Y593470D01*
X1674780D01*
Y577470D02*
Y593470D01*
X1596429Y614190D02*
X1634875D01*
X1596429D02*
Y648190D01*
X1634875D01*
Y614190D02*
Y648190D01*
X1592930Y577470D02*
X1624930D01*
X1592930D02*
Y593470D01*
X1624930D01*
Y577470D02*
Y593470D01*
X1645160Y552830D02*
X1677160D01*
Y536830D02*
Y552830D01*
X1645160Y536830D02*
X1677160D01*
X1645160D02*
Y552830D01*
X1648499Y648850D02*
X1686945D01*
Y614850D02*
Y648850D01*
X1648499Y614850D02*
X1686945D01*
X1648499D02*
Y648850D01*
X1510729Y435989D02*
X1544891D01*
X1510729D02*
Y455551D01*
X1544891D01*
Y435989D02*
Y455551D01*
X1338930Y753490D02*
X1370930D01*
Y737490D02*
Y753490D01*
X1338930Y737490D02*
X1370930D01*
X1338930D02*
Y753490D01*
X1485510Y377040D02*
Y405040D01*
X1468510Y377040D02*
X1485510D01*
X1468510D02*
Y405040D01*
X1485510D01*
X1426780Y465040D02*
X1488780D01*
Y429040D02*
Y465040D01*
X1426780Y429040D02*
X1488780D01*
X1426780D02*
Y465040D01*
X1446140Y375770D02*
Y403770D01*
X1429140Y375770D02*
X1446140D01*
X1429140D02*
Y403770D01*
X1446140D01*
X1555840Y739530D02*
X1583840D01*
X1555840D02*
Y756530D01*
X1583840D01*
Y739530D02*
Y756530D01*
X1523850Y752720D02*
X1551850D01*
Y735720D02*
Y752720D01*
X1523850Y735720D02*
X1551850D01*
X1523850D02*
Y752720D01*
X1652180Y1098940D02*
Y1115940D01*
X1624180D02*
X1652180D01*
X1624180Y1098940D02*
Y1115940D01*
Y1098940D02*
X1652180D01*
X1626960Y1059570D02*
Y1076570D01*
Y1059570D02*
X1654960D01*
Y1076570D01*
X1626960D02*
X1654960D01*
X1627990Y1038470D02*
X1655990D01*
Y1021470D02*
Y1038470D01*
X1627990Y1021470D02*
X1655990D01*
X1627990D02*
Y1038470D01*
X1626720Y997830D02*
X1654720D01*
Y980830D02*
Y997830D01*
X1626720Y980830D02*
X1654720D01*
X1626720D02*
Y997830D01*
X1653450Y1142120D02*
Y1159120D01*
X1625450D02*
X1653450D01*
X1625450Y1142120D02*
Y1159120D01*
Y1142120D02*
X1653450D01*
X1623150Y1198490D02*
X1651150D01*
Y1181490D02*
Y1198490D01*
X1623150Y1181490D02*
X1651150D01*
X1623150D02*
Y1198490D01*
X1587470Y1180220D02*
X1615470D01*
X1587470D02*
Y1197220D01*
X1615470D01*
Y1180220D02*
Y1197220D01*
X1533270Y804580D02*
Y836580D01*
X1517270Y804580D02*
X1533270D01*
X1517270D02*
Y836580D01*
X1533270D01*
X1628230Y942730D02*
X1656230D01*
X1628230D02*
Y959730D01*
X1656230D01*
Y942730D02*
Y959730D01*
X1618650Y867240D02*
X1650650D01*
X1618650D02*
Y883240D01*
X1650650D01*
Y867240D02*
Y883240D01*
X1572770D02*
X1604770D01*
Y867240D02*
Y883240D01*
X1572770Y867240D02*
X1604770D01*
X1572770D02*
Y883240D01*
X1620821Y896240D02*
X1652821D01*
X1620821D02*
Y912240D01*
X1652821D01*
Y896240D02*
Y912240D01*
X1585050Y1077840D02*
X1613050D01*
Y1060840D02*
Y1077840D01*
X1585050Y1060840D02*
X1613050D01*
X1585050D02*
Y1077840D01*
Y1039740D02*
X1613050D01*
Y1022740D02*
Y1039740D01*
X1585050Y1022740D02*
X1613050D01*
X1585050D02*
Y1039740D01*
X1586200Y942730D02*
X1614200D01*
X1586200D02*
Y959730D01*
X1614200D01*
Y942730D02*
Y959730D01*
X1587470Y997830D02*
X1615470D01*
Y980830D02*
Y997830D01*
X1587470Y980830D02*
X1615470D01*
X1587470D02*
Y997830D01*
X1587530Y1101690D02*
Y1113190D01*
Y1101690D02*
X1609530D01*
Y1113190D01*
X1587530D02*
X1609530D01*
X1586200Y1142120D02*
X1614200D01*
X1586200D02*
Y1159120D01*
X1614200D01*
Y1142120D02*
Y1159120D01*
X1525940Y880490D02*
X1557940D01*
Y864490D02*
Y880490D01*
X1525940Y864490D02*
X1557940D01*
X1525940D02*
Y880490D01*
X1478950Y863220D02*
X1510950D01*
X1478950D02*
Y879220D01*
X1510950D01*
Y863220D02*
Y879220D01*
X1335504Y912240D02*
X1367504D01*
Y896240D02*
Y912240D01*
X1335504Y896240D02*
X1367504D01*
X1335504D02*
Y912240D01*
X1570390Y892430D02*
X1602390D01*
X1570390D02*
Y908430D01*
X1602390D01*
Y892430D02*
Y908430D01*
X1524670Y910970D02*
X1556670D01*
Y894970D02*
Y910970D01*
X1524670Y894970D02*
X1556670D01*
X1524670D02*
Y910970D01*
X1335504Y863990D02*
X1363504D01*
X1335504D02*
Y880990D01*
X1363504D01*
Y863990D02*
Y880990D01*
X1389890Y917320D02*
X1421890D01*
Y901320D02*
Y917320D01*
X1389890Y901320D02*
X1421890D01*
X1389890D02*
Y917320D01*
X1442335Y648190D02*
X1480781D01*
Y614190D02*
Y648190D01*
X1442335Y614190D02*
X1480781D01*
X1442335D02*
Y648190D01*
X1335504Y1062817D02*
X1367504D01*
Y1046817D02*
Y1062817D01*
X1335504Y1046817D02*
X1367504D01*
X1335504D02*
Y1062817D01*
Y1030350D02*
X1367504D01*
Y1014350D02*
Y1030350D01*
X1335504Y1014350D02*
X1367504D01*
X1335504D02*
Y1030350D01*
Y974480D02*
X1363504D01*
X1335504D02*
Y991480D01*
X1363504D01*
Y974480D02*
Y991480D01*
X1335504Y947800D02*
X1367504D01*
Y931800D02*
Y947800D01*
X1335504Y931800D02*
X1367504D01*
X1335504D02*
Y947800D01*
Y798440D02*
X1363504D01*
Y781440D02*
Y798440D01*
X1335504Y781440D02*
X1363504D01*
X1335504D02*
Y798440D01*
X1648400Y327220D02*
Y399220D01*
X1704400D01*
Y327220D02*
Y399220D01*
X1648400Y327220D02*
X1704400D01*
X1444500Y555370D02*
X1476500D01*
Y539370D02*
Y555370D01*
X1444500Y539370D02*
X1476500D01*
X1444500D02*
Y555370D01*
X1443230Y576200D02*
X1475230D01*
X1443230D02*
Y592200D01*
X1475230D01*
Y576200D02*
Y592200D01*
X1401117Y468549D02*
Y494111D01*
X1358056D02*
X1401117D01*
X1358056Y468549D02*
Y494111D01*
Y468549D02*
X1401117D01*
D96*
X1336503Y1210170D02*
X1372503D01*
Y1192670D02*
Y1210170D01*
X1336503Y1192670D02*
X1372503D01*
X1336503D02*
Y1210170D01*
Y1136868D02*
X1372503D01*
Y1119369D02*
Y1136868D01*
X1336503Y1119369D02*
X1372503D01*
X1336503D02*
Y1136868D01*
X1357070Y517030D02*
Y534530D01*
Y517030D02*
X1393070D01*
Y534530D01*
X1357070D02*
X1393070D01*
X1359020Y438010D02*
X1395020D01*
Y420510D02*
Y438010D01*
X1359020Y420510D02*
X1395020D01*
X1359020D02*
Y438010D01*
M02*
