G04*
G04 #@! TF.GenerationSoftware,Altium Limited,Altium Designer,23.0.1 (38)*
G04*
G04 Layer_Color=16711935*
%FSLAX44Y44*%
%MOMM*%
G71*
G04*
G04 #@! TF.SameCoordinates,29EA246D-3BC2-426E-A151-39073B1FECC7*
G04*
G04*
G04 #@! TF.FilePolarity,Negative*
G04*
G01*
G75*
%ADD22R,1.3046X1.4562*%
%ADD26R,0.9500X1.3500*%
%ADD34R,1.3500X0.9500*%
%ADD52C,5.2032*%
%ADD53C,3.0032*%
%ADD54C,2.5582*%
%ADD55C,1.5382*%
%ADD56C,1.7332*%
%ADD57C,1.6012*%
%ADD58R,1.5732X1.5732*%
%ADD59C,1.5732*%
%ADD60C,1.4032*%
%ADD61R,1.4032X1.4032*%
%ADD62C,0.8032*%
G04:AMPARAMS|DCode=75|XSize=2.0528mm|YSize=0.4549mm|CornerRadius=0.2275mm|HoleSize=0mm|Usage=FLASHONLY|Rotation=0.000|XOffset=0mm|YOffset=0mm|HoleType=Round|Shape=RoundedRectangle|*
%AMROUNDEDRECTD75*
21,1,2.0528,0.0000,0,0,0.0*
21,1,1.5979,0.4549,0,0,0.0*
1,1,0.4549,0.7990,0.0000*
1,1,0.4549,-0.7990,0.0000*
1,1,0.4549,-0.7990,0.0000*
1,1,0.4549,0.7990,0.0000*
%
%ADD75ROUNDEDRECTD75*%
%ADD76R,2.0528X0.4549*%
%ADD79R,1.4562X1.3046*%
%ADD80R,1.5082X1.2065*%
%ADD83R,1.3082X1.0057*%
%ADD84R,2.4000X1.9000*%
%ADD87R,1.5534X1.5562*%
%ADD88R,1.1532X2.3032*%
%ADD89R,1.1032X2.0032*%
%ADD90R,5.6532X6.4032*%
%ADD91R,1.4232X1.3232*%
%ADD92R,0.8032X0.9032*%
%ADD93R,5.7032X6.7032*%
D22*
X1355528Y435610D02*
D03*
X1408868Y562610D02*
D03*
X1392752D02*
D03*
X1339412Y435610D02*
D03*
D26*
X1390650Y486410D02*
D03*
X1405650D02*
D03*
X1291830Y436880D02*
D03*
X1306830D02*
D03*
D34*
X1699260Y444260D02*
D03*
Y429260D02*
D03*
D52*
X1694180Y247650D02*
D03*
X1267460D02*
D03*
X1694180Y1207770D02*
D03*
X1267460D02*
D03*
D53*
X1416050Y1155700D02*
D03*
X1543050D02*
D03*
D54*
X1398900Y1187500D02*
D03*
X1560200D02*
D03*
D55*
X1423650Y1074500D02*
D03*
Y1089100D02*
D03*
X1535450Y1074500D02*
D03*
Y1089100D02*
D03*
D56*
X1418650Y952500D02*
D03*
X1444000D02*
D03*
X1515100D02*
D03*
X1540450D02*
D03*
D57*
X1418650Y977900D02*
D03*
X1438950D02*
D03*
X1459250D02*
D03*
X1499850D02*
D03*
X1520150D02*
D03*
X1540450D02*
D03*
X1469400Y1003300D02*
D03*
X1489700D02*
D03*
X1510000D02*
D03*
X1530300D02*
D03*
X1449100D02*
D03*
X1428800D02*
D03*
D58*
X1375410Y297180D02*
D03*
X1363980Y650240D02*
D03*
X1615440Y745490D02*
D03*
D59*
X1350010Y297180D02*
D03*
X1324610D02*
D03*
X1299210D02*
D03*
X1363980Y624840D02*
D03*
X1338580Y650240D02*
D03*
Y624840D02*
D03*
X1313180Y650240D02*
D03*
Y624840D02*
D03*
X1640840Y745490D02*
D03*
D60*
X1625870Y815340D02*
D03*
X1601470D02*
D03*
D61*
X1577070D02*
D03*
D62*
X1406540Y992490D02*
D03*
X1583690Y848360D02*
D03*
X1496060Y332601D02*
D03*
X1569747Y304615D02*
D03*
X1581150Y928370D02*
D03*
X1553210Y443230D02*
D03*
X1596529Y389890D02*
D03*
X1671320Y420370D02*
D03*
X1416315Y785125D02*
D03*
X1425990Y774763D02*
D03*
X1437640Y777240D02*
D03*
X1418590Y720090D02*
D03*
X1543050Y725170D02*
D03*
X1466850Y782320D02*
D03*
X1362710Y767080D02*
D03*
X1577340Y1093470D02*
D03*
X1651000Y928370D02*
D03*
X1656080Y887730D02*
D03*
X1619250Y929640D02*
D03*
X1374140Y501650D02*
D03*
X1561720Y362225D02*
D03*
X1532890Y289560D02*
D03*
X1507490Y464820D02*
D03*
X1421130Y364490D02*
D03*
X1357630Y355600D02*
D03*
X1435100Y588010D02*
D03*
X1394460Y501650D02*
D03*
X1299210Y365760D02*
D03*
X1327334Y366846D02*
D03*
X1484630Y486049D02*
D03*
X1633220Y464820D02*
D03*
X1567180Y346710D02*
D03*
X1559560Y374650D02*
D03*
X1476745Y330465D02*
D03*
X1504950Y313230D02*
D03*
X1517650Y525780D02*
D03*
X1277620Y464820D02*
D03*
X1686560Y529590D02*
D03*
X1535430Y659130D02*
D03*
Y589280D02*
D03*
X1560506Y469187D02*
D03*
X1677670Y657860D02*
D03*
X1633220Y589280D02*
D03*
X1591310Y568960D02*
D03*
X1431290Y657860D02*
D03*
X1441450Y654050D02*
D03*
X1485900Y659130D02*
D03*
X1386840Y741680D02*
D03*
X1527810Y848360D02*
D03*
X1667510Y981710D02*
D03*
X1616710Y1089660D02*
D03*
X1371600Y923290D02*
D03*
X1372870Y878840D02*
D03*
X1380490Y1017270D02*
D03*
X1318260Y1076960D02*
D03*
X1461770Y796290D02*
D03*
X1557020Y927100D02*
D03*
X1617980Y1009650D02*
D03*
X1625368Y422698D02*
D03*
X1490980Y725170D02*
D03*
X1507950Y741220D02*
D03*
X1523719Y729440D02*
D03*
X1569720Y782320D02*
D03*
X1540665Y792710D02*
D03*
X1528378Y795110D02*
D03*
X1562100Y805180D02*
D03*
X1497860Y801820D02*
D03*
X1464310Y687070D02*
D03*
X1518920Y605790D02*
D03*
X1509396Y824150D02*
D03*
X1372870Y810166D02*
D03*
X1565910Y567690D02*
D03*
X1493520Y414020D02*
D03*
X1376680Y845820D02*
D03*
D75*
X1582343Y353730D02*
D03*
Y360230D02*
D03*
Y366730D02*
D03*
Y373230D02*
D03*
Y379730D02*
D03*
Y386230D02*
D03*
Y392730D02*
D03*
Y399230D02*
D03*
Y405730D02*
D03*
Y412230D02*
D03*
Y418730D02*
D03*
Y425230D02*
D03*
Y431730D02*
D03*
Y438230D02*
D03*
X1513840D02*
D03*
Y431730D02*
D03*
Y425230D02*
D03*
Y418730D02*
D03*
Y412230D02*
D03*
Y405730D02*
D03*
Y399230D02*
D03*
Y392730D02*
D03*
Y386230D02*
D03*
Y379730D02*
D03*
Y373230D02*
D03*
Y366730D02*
D03*
Y360230D02*
D03*
D76*
Y353730D02*
D03*
D79*
X1644650Y447478D02*
D03*
Y431362D02*
D03*
D80*
X1485900Y375223D02*
D03*
Y396240D02*
D03*
D83*
X1700530Y388978D02*
D03*
Y403502D02*
D03*
Y348338D02*
D03*
Y362862D02*
D03*
D84*
X1643380Y396600D02*
D03*
Y355600D02*
D03*
D87*
X1311546Y392430D02*
D03*
X1330054D02*
D03*
D88*
X1296670Y480060D02*
D03*
X1342270D02*
D03*
D89*
X1453160Y485050D02*
D03*
X1498760D02*
D03*
D90*
X1475960Y547050D02*
D03*
D91*
X1427720Y384810D02*
D03*
X1457720D02*
D03*
X1338340Y346710D02*
D03*
X1308340D02*
D03*
D92*
X1383690Y379570D02*
D03*
X1402690D02*
D03*
X1393190Y359570D02*
D03*
D93*
X1319470Y543060D02*
D03*
M02*
