G04*
G04 #@! TF.GenerationSoftware,Altium Limited,Altium Designer,23.0.1 (38)*
G04*
G04 Layer_Color=128*
%FSLAX44Y44*%
%MOMM*%
G71*
G04*
G04 #@! TF.SameCoordinates,29EA246D-3BC2-426E-A151-39073B1FECC7*
G04*
G04*
G04 #@! TF.FilePolarity,Positive*
G04*
G01*
G75*
%ADD16C,0.1270*%
D16*
X1678680Y247650D02*
X1709680D01*
X1694180Y232150D02*
Y263150D01*
X1251960Y247650D02*
X1282960D01*
X1267460Y232150D02*
Y263150D01*
X1678680Y1207770D02*
X1709680D01*
X1694180Y1192270D02*
Y1223270D01*
X1251960Y1207770D02*
X1282960D01*
X1267460Y1192270D02*
Y1223270D01*
X1402050Y1155700D02*
X1430050D01*
X1416050Y1141700D02*
Y1169700D01*
X1529050Y1155700D02*
X1557050D01*
X1543050Y1141700D02*
Y1169700D01*
X1391050Y1187500D02*
X1406750D01*
X1398900Y1179650D02*
Y1195350D01*
X1552350Y1187500D02*
X1568050D01*
X1560200Y1179650D02*
Y1195350D01*
X1419200Y1074500D02*
X1428100D01*
X1423650Y1070050D02*
Y1078950D01*
X1419200Y1089100D02*
X1428100D01*
X1423650Y1084650D02*
Y1093550D01*
X1531000Y1074500D02*
X1539900D01*
X1535450Y1070050D02*
Y1078950D01*
X1531000Y1089100D02*
X1539900D01*
X1535450Y1084650D02*
Y1093550D01*
X1413550Y952500D02*
X1423750D01*
X1418650Y947400D02*
Y957600D01*
X1438900Y952500D02*
X1449100D01*
X1444000Y947400D02*
Y957600D01*
X1510000Y952500D02*
X1520200D01*
X1515100Y947400D02*
Y957600D01*
X1535350Y952500D02*
X1545550D01*
X1540450Y947400D02*
Y957600D01*
X1414200Y977900D02*
X1423100D01*
X1418650Y973450D02*
Y982350D01*
X1434500Y977900D02*
X1443400D01*
X1438950Y973450D02*
Y982350D01*
X1454800Y977900D02*
X1463700D01*
X1459250Y973450D02*
Y982350D01*
X1495400Y977900D02*
X1504300D01*
X1499850Y973450D02*
Y982350D01*
X1515700Y977900D02*
X1524600D01*
X1520150Y973450D02*
Y982350D01*
X1536000Y977900D02*
X1544900D01*
X1540450Y973450D02*
Y982350D01*
X1464950Y1003300D02*
X1473850D01*
X1469400Y998850D02*
Y1007750D01*
X1485250Y1003300D02*
X1494150D01*
X1489700Y998850D02*
Y1007750D01*
X1505550Y1003300D02*
X1514450D01*
X1510000Y998850D02*
Y1007750D01*
X1525850Y1003300D02*
X1534750D01*
X1530300Y998850D02*
Y1007750D01*
X1444650Y1003300D02*
X1453550D01*
X1449100Y998850D02*
Y1007750D01*
X1424350Y1003300D02*
X1433250D01*
X1428800Y998850D02*
Y1007750D01*
X1370310Y297180D02*
X1380510D01*
X1375410Y292080D02*
Y302280D01*
X1344910Y297180D02*
X1355110D01*
X1350010Y292080D02*
Y302280D01*
X1319510Y297180D02*
X1329710D01*
X1324610Y292080D02*
Y302280D01*
X1294110Y297180D02*
X1304310D01*
X1299210Y292080D02*
Y302280D01*
X1358880Y624840D02*
X1369080D01*
X1363980Y619740D02*
Y629940D01*
X1358880Y650240D02*
X1369080D01*
X1363980Y645140D02*
Y655340D01*
X1333480Y650240D02*
X1343680D01*
X1338580Y645140D02*
Y655340D01*
X1333480Y624840D02*
X1343680D01*
X1338580Y619740D02*
Y629940D01*
X1308080Y650240D02*
X1318280D01*
X1313180Y645140D02*
Y655340D01*
X1308080Y624840D02*
X1318280D01*
X1313180Y619740D02*
Y629940D01*
X1610340Y745490D02*
X1620540D01*
X1615440Y740390D02*
Y750590D01*
X1635740Y745490D02*
X1645940D01*
X1640840Y740390D02*
Y750590D01*
X1622370Y815340D02*
X1629370D01*
X1625870Y811840D02*
Y818840D01*
X1597970Y815340D02*
X1604970D01*
X1601470Y811840D02*
Y818840D01*
X1573570Y815340D02*
X1580570D01*
X1577070Y811840D02*
Y818840D01*
X1405040Y992490D02*
X1408040D01*
X1406540Y990990D02*
Y993990D01*
X1582190Y848360D02*
X1585190D01*
X1583690Y846860D02*
Y849860D01*
X1494560Y332601D02*
X1497560D01*
X1496060Y331101D02*
Y334101D01*
X1568247Y304615D02*
X1571247D01*
X1569747Y303115D02*
Y306115D01*
X1579650Y928370D02*
X1582650D01*
X1581150Y926870D02*
Y929870D01*
X1551710Y443230D02*
X1554710D01*
X1553210Y441730D02*
Y444730D01*
X1595029Y389890D02*
X1598029D01*
X1596529Y388390D02*
Y391390D01*
X1669820Y420370D02*
X1672820D01*
X1671320Y418870D02*
Y421870D01*
X1414815Y785125D02*
X1417815D01*
X1416315Y783625D02*
Y786625D01*
X1424490Y774763D02*
X1427490D01*
X1425990Y773263D02*
Y776263D01*
X1436140Y777240D02*
X1439140D01*
X1437640Y775740D02*
Y778740D01*
X1417090Y720090D02*
X1420090D01*
X1418590Y718590D02*
Y721590D01*
X1541550Y725170D02*
X1544550D01*
X1543050Y723670D02*
Y726670D01*
X1465350Y782320D02*
X1468350D01*
X1466850Y780820D02*
Y783820D01*
X1361210Y767080D02*
X1364210D01*
X1362710Y765580D02*
Y768580D01*
X1575840Y1093470D02*
X1578840D01*
X1577340Y1091970D02*
Y1094970D01*
X1649500Y928370D02*
X1652500D01*
X1651000Y926870D02*
Y929870D01*
X1654580Y887730D02*
X1657580D01*
X1656080Y886230D02*
Y889230D01*
X1617750Y929640D02*
X1620750D01*
X1619250Y928140D02*
Y931140D01*
X1372640Y501650D02*
X1375640D01*
X1374140Y500150D02*
Y503150D01*
X1560220Y362225D02*
X1563220D01*
X1561720Y360725D02*
Y363725D01*
X1531390Y289560D02*
X1534390D01*
X1532890Y288060D02*
Y291060D01*
X1506240Y464820D02*
X1508740D01*
X1507490Y463570D02*
Y466070D01*
X1419630Y364490D02*
X1422630D01*
X1421130Y362990D02*
Y365990D01*
X1356130Y355600D02*
X1359130D01*
X1357630Y354100D02*
Y357100D01*
X1433600Y588010D02*
X1436600D01*
X1435100Y586510D02*
Y589510D01*
X1392960Y501650D02*
X1395960D01*
X1394460Y500150D02*
Y503150D01*
X1297710Y365760D02*
X1300710D01*
X1299210Y364260D02*
Y367260D01*
X1325834Y366846D02*
X1328834D01*
X1327334Y365346D02*
Y368346D01*
X1483130Y486049D02*
X1486130D01*
X1484630Y484549D02*
Y487550D01*
X1631720Y464820D02*
X1634720D01*
X1633220Y463320D02*
Y466320D01*
X1565680Y346710D02*
X1568680D01*
X1567180Y345210D02*
Y348210D01*
X1558060Y374650D02*
X1561060D01*
X1559560Y373150D02*
Y376150D01*
X1475245Y330465D02*
X1478245D01*
X1476745Y328965D02*
Y331965D01*
X1503450Y313230D02*
X1506450D01*
X1504950Y311730D02*
Y314730D01*
X1516150Y525780D02*
X1519150D01*
X1517650Y524280D02*
Y527280D01*
X1276120Y464820D02*
X1279120D01*
X1277620Y463320D02*
Y466320D01*
X1685060Y529590D02*
X1688060D01*
X1686560Y528090D02*
Y531090D01*
X1533930Y659130D02*
X1536930D01*
X1535430Y657630D02*
Y660630D01*
X1533930Y589280D02*
X1536930D01*
X1535430Y587780D02*
Y590780D01*
X1559006Y469187D02*
X1562006D01*
X1560506Y467687D02*
Y470687D01*
X1676170Y657860D02*
X1679170D01*
X1677670Y656360D02*
Y659360D01*
X1631720Y589280D02*
X1634720D01*
X1633220Y587780D02*
Y590780D01*
X1589810Y568960D02*
X1592810D01*
X1591310Y567460D02*
Y570460D01*
X1429790Y657860D02*
X1432790D01*
X1431290Y656360D02*
Y659360D01*
X1439950Y654050D02*
X1442950D01*
X1441450Y652550D02*
Y655550D01*
X1484400Y659130D02*
X1487400D01*
X1485900Y657630D02*
Y660630D01*
X1385340Y741680D02*
X1388340D01*
X1386840Y740180D02*
Y743180D01*
X1526310Y848360D02*
X1529310D01*
X1527810Y846860D02*
Y849860D01*
X1666010Y981710D02*
X1669010D01*
X1667510Y980210D02*
Y983210D01*
X1615210Y1089660D02*
X1618210D01*
X1616710Y1088160D02*
Y1091160D01*
X1370100Y923290D02*
X1373100D01*
X1371600Y921790D02*
Y924790D01*
X1371370Y878840D02*
X1374370D01*
X1372870Y877340D02*
Y880340D01*
X1378990Y1017270D02*
X1381990D01*
X1380490Y1015770D02*
Y1018770D01*
X1316760Y1076960D02*
X1319760D01*
X1318260Y1075460D02*
Y1078460D01*
X1460270Y796290D02*
X1463270D01*
X1461770Y794790D02*
Y797790D01*
X1555520Y927100D02*
X1558520D01*
X1557020Y925600D02*
Y928600D01*
X1616480Y1009650D02*
X1619480D01*
X1617980Y1008150D02*
Y1011150D01*
X1623868Y422698D02*
X1626868D01*
X1625368Y421198D02*
Y424198D01*
X1489480Y725170D02*
X1492480D01*
X1490980Y723670D02*
Y726670D01*
X1506450Y741220D02*
X1509450D01*
X1507950Y739720D02*
Y742720D01*
X1522219Y729440D02*
X1525219D01*
X1523719Y727940D02*
Y730940D01*
X1568220Y782320D02*
X1571220D01*
X1569720Y780820D02*
Y783820D01*
X1539165Y792710D02*
X1542165D01*
X1540665Y791210D02*
Y794210D01*
X1526878Y795110D02*
X1529878D01*
X1528378Y793610D02*
Y796610D01*
X1560600Y805180D02*
X1563600D01*
X1562100Y803680D02*
Y806680D01*
X1496360Y801820D02*
X1499360D01*
X1497860Y800320D02*
Y803320D01*
X1462810Y687070D02*
X1465810D01*
X1464310Y685570D02*
Y688570D01*
X1517420Y605790D02*
X1520420D01*
X1518920Y604290D02*
Y607290D01*
X1507896Y824150D02*
X1510896D01*
X1509396Y822650D02*
Y825650D01*
X1371370Y810166D02*
X1374370D01*
X1372870Y808667D02*
Y811666D01*
X1564410Y567690D02*
X1567410D01*
X1565910Y566190D02*
Y569190D01*
X1492020Y414020D02*
X1495020D01*
X1493520Y412520D02*
Y415520D01*
X1375180Y845820D02*
X1378180D01*
X1376680Y844320D02*
Y847320D01*
M02*
