G04*
G04 #@! TF.GenerationSoftware,Altium Limited,Altium Designer,23.0.1 (38)*
G04*
G04 Layer_Color=16711935*
%FSLAX44Y44*%
%MOMM*%
G71*
G04*
G04 #@! TF.SameCoordinates,29EA246D-3BC2-426E-A151-39073B1FECC7*
G04*
G04*
G04 #@! TF.FilePolarity,Positive*
G04*
G01*
G75*
%ADD11C,0.2000*%
D11*
X1501076Y342480D02*
Y449480D01*
X1595107D01*
Y342480D02*
Y449480D01*
X1501076Y342480D02*
X1595107D01*
X1498441Y364190D02*
Y407273D01*
X1473359D02*
X1498441D01*
X1473359Y364190D02*
Y407273D01*
Y364190D02*
X1498441D01*
X1692530Y409531D02*
X1708530D01*
Y382949D02*
Y409531D01*
X1692530Y382949D02*
X1708530D01*
X1692530D02*
Y409531D01*
X1634869Y456501D02*
X1654431D01*
Y422339D02*
Y456501D01*
X1634869Y422339D02*
X1654431D01*
X1634869D02*
Y456501D01*
X1690760Y450760D02*
X1707760D01*
Y422760D02*
Y450760D01*
X1690760Y422760D02*
X1707760D01*
X1690760D02*
Y450760D01*
X1692530Y368891D02*
X1708530D01*
Y342309D02*
Y368891D01*
X1692530Y342309D02*
X1708530D01*
X1692530D02*
Y368891D01*
X1625380Y345100D02*
X1661380D01*
X1625380D02*
Y407100D01*
X1661380D01*
Y345100D02*
Y407100D01*
X1383729Y572391D02*
X1417891D01*
X1383729Y552829D02*
Y572391D01*
Y552829D02*
X1417891D01*
Y572391D01*
X1384150Y477910D02*
Y494910D01*
X1412150D01*
Y477910D02*
Y494910D01*
X1384150Y477910D02*
X1412150D01*
X1364551Y425829D02*
Y445391D01*
X1330389Y425829D02*
X1364551D01*
X1330389D02*
Y445391D01*
X1364551D01*
X1342821Y379649D02*
Y405211D01*
X1298779Y379649D02*
X1342821D01*
X1298779D02*
Y405211D01*
X1342821D01*
X1313330Y428380D02*
Y445380D01*
X1285330Y428380D02*
X1313330D01*
X1285330D02*
Y445380D01*
X1313330D01*
M02*
