G04*
G04 #@! TF.GenerationSoftware,Altium Limited,Altium Designer,23.0.1 (38)*
G04*
G04 Layer_Physical_Order=4*
G04 Layer_Color=16711680*
%FSLAX44Y44*%
%MOMM*%
G71*
G04*
G04 #@! TF.SameCoordinates,29EA246D-3BC2-426E-A151-39073B1FECC7*
G04*
G04*
G04 #@! TF.FilePolarity,Positive*
G04*
G01*
G75*
%ADD15C,0.2540*%
%ADD22R,1.3046X1.4562*%
%ADD26R,0.9500X1.3500*%
%ADD34R,1.3500X0.9500*%
%ADD63C,0.3810*%
%ADD64C,5.0000*%
%ADD65C,2.8000*%
%ADD66C,2.3550*%
%ADD67C,1.3350*%
%ADD68C,1.5300*%
%ADD69C,1.3980*%
%ADD70R,1.3700X1.3700*%
%ADD71C,1.3700*%
%ADD72C,1.2000*%
%ADD73R,1.2000X1.2000*%
%ADD74C,0.6000*%
G04:AMPARAMS|DCode=75|XSize=2.0528mm|YSize=0.4549mm|CornerRadius=0.2275mm|HoleSize=0mm|Usage=FLASHONLY|Rotation=0.000|XOffset=0mm|YOffset=0mm|HoleType=Round|Shape=RoundedRectangle|*
%AMROUNDEDRECTD75*
21,1,2.0528,0.0000,0,0,0.0*
21,1,1.5979,0.4549,0,0,0.0*
1,1,0.4549,0.7990,0.0000*
1,1,0.4549,-0.7990,0.0000*
1,1,0.4549,-0.7990,0.0000*
1,1,0.4549,0.7990,0.0000*
%
%ADD75ROUNDEDRECTD75*%
%ADD76R,2.0528X0.4549*%
%ADD77R,0.9500X2.1000*%
%ADD78R,0.9000X1.8000*%
%ADD79R,1.4562X1.3046*%
%ADD80R,1.5082X1.2065*%
%ADD81R,5.4500X6.2000*%
%ADD82R,1.2200X1.1200*%
%ADD83R,1.3082X1.0057*%
%ADD84R,2.4000X1.9000*%
%ADD85R,0.6000X0.7000*%
%ADD86R,5.5000X6.5000*%
%ADD87R,1.5534X1.5562*%
G36*
X1276868Y1248997D02*
X1276900Y1249003D01*
X1276931Y1248996D01*
X1690085Y1248996D01*
X1692846Y1248972D01*
X1698350Y1248131D01*
X1703715Y1246575D01*
X1708830Y1244332D01*
X1713609Y1241440D01*
X1717970Y1237949D01*
X1721838Y1233918D01*
X1725146Y1229418D01*
X1727839Y1224524D01*
X1729870Y1219320D01*
X1731205Y1213896D01*
X1731819Y1208344D01*
X1731775Y1206169D01*
X1731761Y1206101D01*
X1731761Y1205476D01*
X1731761Y1205476D01*
X1731761Y248155D01*
X1731723Y247982D01*
X1731666Y245192D01*
X1730823Y239670D01*
X1729266Y234305D01*
X1727023Y229190D01*
X1724131Y224410D01*
X1720640Y220050D01*
X1716610Y216182D01*
X1712109Y212874D01*
X1707215Y210181D01*
X1702011Y208150D01*
X1696587Y206815D01*
X1691035Y206201D01*
X1689206Y206238D01*
X1689155Y206249D01*
X1688187Y206259D01*
X1688135Y206249D01*
X1274291Y206326D01*
X1271394Y206385D01*
X1265603Y207270D01*
X1259976Y208902D01*
X1254611Y211255D01*
X1249599Y214288D01*
X1245026Y217949D01*
X1240969Y222176D01*
X1237499Y226896D01*
X1234675Y232029D01*
X1232545Y237487D01*
X1231146Y243175D01*
X1230501Y248998D01*
X1230561Y251927D01*
X1230555Y251959D01*
X1230562Y251991D01*
X1230044Y1204094D01*
X1230106Y1207068D01*
X1231013Y1213015D01*
X1232690Y1218792D01*
X1235106Y1224302D01*
X1238220Y1229448D01*
X1241979Y1234144D01*
X1246320Y1238309D01*
X1251166Y1241872D01*
X1256437Y1244772D01*
X1262041Y1246960D01*
X1267882Y1248397D01*
X1273861Y1249059D01*
X1276868Y1248997D01*
D02*
G37*
%LPC*%
G36*
X1696720Y1235251D02*
Y1210310D01*
X1721661D01*
X1721042Y1214219D01*
X1719702Y1218342D01*
X1717734Y1222204D01*
X1715186Y1225711D01*
X1712121Y1228776D01*
X1708614Y1231324D01*
X1704752Y1233292D01*
X1700629Y1234632D01*
X1696720Y1235251D01*
D02*
G37*
G36*
X1691640D02*
X1687731Y1234632D01*
X1683608Y1233292D01*
X1679746Y1231324D01*
X1676239Y1228776D01*
X1673174Y1225711D01*
X1670626Y1222204D01*
X1668658Y1218342D01*
X1667318Y1214219D01*
X1666699Y1210310D01*
X1691640D01*
Y1235251D01*
D02*
G37*
G36*
X1270000D02*
Y1210310D01*
X1294941D01*
X1294322Y1214219D01*
X1292982Y1218342D01*
X1291014Y1222204D01*
X1288466Y1225711D01*
X1285401Y1228776D01*
X1281894Y1231324D01*
X1278032Y1233292D01*
X1273909Y1234632D01*
X1270000Y1235251D01*
D02*
G37*
G36*
X1264920D02*
X1261011Y1234632D01*
X1256888Y1233292D01*
X1253026Y1231324D01*
X1249519Y1228776D01*
X1246454Y1225711D01*
X1243906Y1222204D01*
X1241938Y1218342D01*
X1240598Y1214219D01*
X1239979Y1210310D01*
X1264920D01*
Y1235251D01*
D02*
G37*
G36*
X1721661Y1205230D02*
X1696720D01*
Y1180289D01*
X1700629Y1180908D01*
X1704752Y1182248D01*
X1708614Y1184216D01*
X1712121Y1186764D01*
X1715186Y1189829D01*
X1717734Y1193336D01*
X1719702Y1197198D01*
X1721042Y1201321D01*
X1721661Y1205230D01*
D02*
G37*
G36*
X1691640D02*
X1666699D01*
X1667318Y1201321D01*
X1668658Y1197198D01*
X1670626Y1193336D01*
X1673174Y1189829D01*
X1676239Y1186764D01*
X1679746Y1184216D01*
X1683608Y1182248D01*
X1687731Y1180908D01*
X1691640Y1180289D01*
Y1205230D01*
D02*
G37*
G36*
X1294941D02*
X1270000D01*
Y1180289D01*
X1273909Y1180908D01*
X1278032Y1182248D01*
X1281894Y1184216D01*
X1285401Y1186764D01*
X1288466Y1189829D01*
X1291014Y1193336D01*
X1292982Y1197198D01*
X1294322Y1201321D01*
X1294941Y1205230D01*
D02*
G37*
G36*
X1264920D02*
X1239979D01*
X1240598Y1201321D01*
X1241938Y1197198D01*
X1243906Y1193336D01*
X1246454Y1189829D01*
X1249519Y1186764D01*
X1253026Y1184216D01*
X1256888Y1182248D01*
X1261011Y1180908D01*
X1264920Y1180289D01*
Y1205230D01*
D02*
G37*
G36*
X1562014Y1201275D02*
X1558387D01*
X1554883Y1200336D01*
X1551742Y1198522D01*
X1549177Y1195958D01*
X1547364Y1192817D01*
X1546425Y1189313D01*
Y1185686D01*
X1547364Y1182183D01*
X1549177Y1179042D01*
X1551742Y1176477D01*
X1554883Y1174663D01*
X1558387Y1173725D01*
X1562014D01*
X1565517Y1174663D01*
X1568658Y1176477D01*
X1571223Y1179042D01*
X1573036Y1182183D01*
X1573975Y1185686D01*
Y1189313D01*
X1573036Y1192817D01*
X1571223Y1195958D01*
X1568658Y1198522D01*
X1565517Y1200336D01*
X1562014Y1201275D01*
D02*
G37*
G36*
X1400713D02*
X1397086D01*
X1393583Y1200336D01*
X1390442Y1198522D01*
X1387877Y1195958D01*
X1386064Y1192817D01*
X1385125Y1189313D01*
Y1185686D01*
X1386064Y1182183D01*
X1387877Y1179042D01*
X1390442Y1176477D01*
X1393583Y1174663D01*
X1397086Y1173725D01*
X1400713D01*
X1404217Y1174663D01*
X1407358Y1176477D01*
X1409923Y1179042D01*
X1411736Y1182183D01*
X1412675Y1185686D01*
Y1189313D01*
X1411736Y1192817D01*
X1409923Y1195958D01*
X1407358Y1198522D01*
X1404217Y1200336D01*
X1400713Y1201275D01*
D02*
G37*
G36*
X1544626Y1171700D02*
X1541474D01*
X1538383Y1171085D01*
X1535471Y1169879D01*
X1532851Y1168128D01*
X1530622Y1165899D01*
X1528871Y1163279D01*
X1527665Y1160367D01*
X1527050Y1157276D01*
Y1154124D01*
X1527665Y1151033D01*
X1528871Y1148121D01*
X1530622Y1145501D01*
X1532851Y1143272D01*
X1535471Y1141521D01*
X1538383Y1140315D01*
X1541474Y1139700D01*
X1544626D01*
X1547717Y1140315D01*
X1550629Y1141521D01*
X1553249Y1143272D01*
X1555478Y1145501D01*
X1557229Y1148121D01*
X1558435Y1151033D01*
X1559050Y1154124D01*
Y1157276D01*
X1558435Y1160367D01*
X1557229Y1163279D01*
X1555478Y1165899D01*
X1553249Y1168128D01*
X1550629Y1169879D01*
X1547717Y1171085D01*
X1544626Y1171700D01*
D02*
G37*
G36*
X1417626D02*
X1414474D01*
X1411383Y1171085D01*
X1408471Y1169879D01*
X1405851Y1168128D01*
X1403622Y1165899D01*
X1401871Y1163279D01*
X1400665Y1160367D01*
X1400050Y1157276D01*
Y1154124D01*
X1400665Y1151033D01*
X1401871Y1148121D01*
X1403622Y1145501D01*
X1405851Y1143272D01*
X1408471Y1141521D01*
X1411383Y1140315D01*
X1414474Y1139700D01*
X1417626D01*
X1420717Y1140315D01*
X1423629Y1141521D01*
X1426249Y1143272D01*
X1428478Y1145501D01*
X1430229Y1148121D01*
X1431435Y1151033D01*
X1432050Y1154124D01*
Y1157276D01*
X1431435Y1160367D01*
X1430229Y1163279D01*
X1428478Y1165899D01*
X1426249Y1168128D01*
X1423629Y1169879D01*
X1420717Y1171085D01*
X1417626Y1171700D01*
D02*
G37*
G36*
X1617705Y1094660D02*
X1615715D01*
X1613878Y1093899D01*
X1612471Y1092492D01*
X1611710Y1090655D01*
Y1088665D01*
X1612471Y1086828D01*
X1613878Y1085421D01*
X1615715Y1084660D01*
X1617705D01*
X1619542Y1085421D01*
X1620949Y1086828D01*
X1621710Y1088665D01*
Y1090655D01*
X1620949Y1092492D01*
X1619542Y1093899D01*
X1617705Y1094660D01*
D02*
G37*
G36*
X1319255Y1081960D02*
X1317265D01*
X1315428Y1081199D01*
X1314021Y1079792D01*
X1313260Y1077955D01*
Y1075965D01*
X1314021Y1074128D01*
X1315428Y1072721D01*
X1317265Y1071960D01*
X1319255D01*
X1321092Y1072721D01*
X1322499Y1074128D01*
X1323260Y1075965D01*
Y1077955D01*
X1322499Y1079792D01*
X1321092Y1081199D01*
X1319255Y1081960D01*
D02*
G37*
G36*
X1536592Y1097775D02*
X1534308D01*
X1532101Y1097184D01*
X1530123Y1096042D01*
X1528508Y1094427D01*
X1527366Y1092449D01*
X1526775Y1090242D01*
Y1087958D01*
X1527366Y1085752D01*
X1528508Y1083774D01*
X1529648Y1082634D01*
X1529980Y1081800D01*
X1529648Y1080966D01*
X1528508Y1079827D01*
X1527366Y1077849D01*
X1526775Y1075642D01*
Y1073358D01*
X1527366Y1071152D01*
X1528508Y1069174D01*
X1530123Y1067559D01*
X1532101Y1066416D01*
X1534308Y1065825D01*
X1536592D01*
X1538798Y1066416D01*
X1540776Y1067559D01*
X1542392Y1069174D01*
X1543534Y1071152D01*
X1544125Y1073358D01*
Y1075642D01*
X1543534Y1077849D01*
X1542392Y1079827D01*
X1541252Y1080966D01*
X1540919Y1081800D01*
X1541252Y1082634D01*
X1542392Y1083774D01*
X1543534Y1085752D01*
X1544125Y1087958D01*
Y1090242D01*
X1543534Y1092449D01*
X1542392Y1094427D01*
X1540776Y1096042D01*
X1538798Y1097184D01*
X1536592Y1097775D01*
D02*
G37*
G36*
X1424792D02*
X1422508D01*
X1420302Y1097184D01*
X1418324Y1096042D01*
X1416709Y1094427D01*
X1415566Y1092449D01*
X1414975Y1090242D01*
Y1087958D01*
X1415566Y1085752D01*
X1416709Y1083774D01*
X1417848Y1082634D01*
X1418181Y1081800D01*
X1417848Y1080966D01*
X1416709Y1079827D01*
X1415566Y1077849D01*
X1414975Y1075642D01*
Y1073358D01*
X1415566Y1071152D01*
X1416709Y1069174D01*
X1418324Y1067559D01*
X1420302Y1066416D01*
X1422508Y1065825D01*
X1424792D01*
X1426999Y1066416D01*
X1428977Y1067559D01*
X1430592Y1069174D01*
X1431734Y1071152D01*
X1432325Y1073358D01*
Y1075642D01*
X1431734Y1077849D01*
X1430592Y1079827D01*
X1429452Y1080966D01*
X1429120Y1081800D01*
X1429452Y1082634D01*
X1430592Y1083774D01*
X1431734Y1085752D01*
X1432325Y1087958D01*
Y1090242D01*
X1431734Y1092449D01*
X1430592Y1094427D01*
X1428977Y1096042D01*
X1426999Y1097184D01*
X1424792Y1097775D01*
D02*
G37*
G36*
X1381485Y1022270D02*
X1379495D01*
X1377658Y1021509D01*
X1376251Y1020102D01*
X1375490Y1018265D01*
Y1016275D01*
X1376251Y1014438D01*
X1377658Y1013031D01*
X1379495Y1012270D01*
X1381485D01*
X1383322Y1013031D01*
X1384729Y1014438D01*
X1385490Y1016275D01*
Y1018265D01*
X1384729Y1020102D01*
X1383322Y1021509D01*
X1381485Y1022270D01*
D02*
G37*
G36*
X1531484Y1012290D02*
X1529117D01*
X1526830Y1011677D01*
X1524780Y1010494D01*
X1523106Y1008820D01*
X1521923Y1006770D01*
X1521310Y1004484D01*
Y1002116D01*
X1521923Y999830D01*
X1523106Y997780D01*
X1524780Y996106D01*
X1526830Y994923D01*
X1529117Y994310D01*
X1531484D01*
X1533770Y994923D01*
X1535820Y996106D01*
X1537494Y997780D01*
X1538678Y999830D01*
X1539290Y1002116D01*
Y1004484D01*
X1538678Y1006770D01*
X1537494Y1008820D01*
X1535820Y1010494D01*
X1533770Y1011677D01*
X1531484Y1012290D01*
D02*
G37*
G36*
X1511184D02*
X1508817D01*
X1506530Y1011677D01*
X1504480Y1010494D01*
X1502806Y1008820D01*
X1501623Y1006770D01*
X1501010Y1004484D01*
Y1002116D01*
X1501623Y999830D01*
X1502806Y997780D01*
X1504480Y996106D01*
X1506530Y994923D01*
X1508817Y994310D01*
X1511184D01*
X1513470Y994923D01*
X1515520Y996106D01*
X1517194Y997780D01*
X1518377Y999830D01*
X1518990Y1002116D01*
Y1004484D01*
X1518377Y1006770D01*
X1517194Y1008820D01*
X1515520Y1010494D01*
X1513470Y1011677D01*
X1511184Y1012290D01*
D02*
G37*
G36*
X1490883D02*
X1488516D01*
X1486230Y1011677D01*
X1484180Y1010494D01*
X1482506Y1008820D01*
X1481322Y1006770D01*
X1480710Y1004484D01*
Y1002116D01*
X1481322Y999830D01*
X1482506Y997780D01*
X1484180Y996106D01*
X1486230Y994923D01*
X1488516Y994310D01*
X1490883D01*
X1493170Y994923D01*
X1495220Y996106D01*
X1496894Y997780D01*
X1498077Y999830D01*
X1498690Y1002116D01*
Y1004484D01*
X1498077Y1006770D01*
X1496894Y1008820D01*
X1495220Y1010494D01*
X1493170Y1011677D01*
X1490883Y1012290D01*
D02*
G37*
G36*
X1668505Y986710D02*
X1666515D01*
X1664678Y985949D01*
X1663271Y984542D01*
X1662510Y982705D01*
Y980715D01*
X1663271Y978878D01*
X1664678Y977471D01*
X1666515Y976710D01*
X1668505D01*
X1670342Y977471D01*
X1671749Y978878D01*
X1672510Y980715D01*
Y982705D01*
X1671749Y984542D01*
X1670342Y985949D01*
X1668505Y986710D01*
D02*
G37*
G36*
X1541634Y986890D02*
X1539267D01*
X1536980Y986277D01*
X1534930Y985094D01*
X1533256Y983420D01*
X1532073Y981370D01*
X1531460Y979084D01*
Y976716D01*
X1532073Y974430D01*
X1533256Y972380D01*
X1534930Y970706D01*
X1536980Y969523D01*
X1539267Y968910D01*
X1541634D01*
X1543920Y969523D01*
X1545970Y970706D01*
X1547644Y972380D01*
X1548827Y974430D01*
X1549440Y976716D01*
Y979084D01*
X1548827Y981370D01*
X1547644Y983420D01*
X1545970Y985094D01*
X1543920Y986277D01*
X1541634Y986890D01*
D02*
G37*
G36*
X1521333D02*
X1518966D01*
X1516680Y986277D01*
X1514630Y985094D01*
X1512956Y983420D01*
X1511772Y981370D01*
X1511160Y979084D01*
Y976716D01*
X1511772Y974430D01*
X1512956Y972380D01*
X1514630Y970706D01*
X1516680Y969523D01*
X1518966Y968910D01*
X1521333D01*
X1523620Y969523D01*
X1525670Y970706D01*
X1527344Y972380D01*
X1528527Y974430D01*
X1529140Y976716D01*
Y979084D01*
X1528527Y981370D01*
X1527344Y983420D01*
X1525670Y985094D01*
X1523620Y986277D01*
X1521333Y986890D01*
D02*
G37*
G36*
X1501034D02*
X1498667D01*
X1496380Y986277D01*
X1494330Y985094D01*
X1492656Y983420D01*
X1491473Y981370D01*
X1490860Y979084D01*
Y976716D01*
X1491473Y974430D01*
X1492656Y972380D01*
X1494330Y970706D01*
X1496380Y969523D01*
X1498667Y968910D01*
X1501034D01*
X1503320Y969523D01*
X1505370Y970706D01*
X1507044Y972380D01*
X1508228Y974430D01*
X1508840Y976716D01*
Y979084D01*
X1508228Y981370D01*
X1507044Y983420D01*
X1505370Y985094D01*
X1503320Y986277D01*
X1501034Y986890D01*
D02*
G37*
G36*
X1460433D02*
X1458066D01*
X1455780Y986277D01*
X1453730Y985094D01*
X1452056Y983420D01*
X1450872Y981370D01*
X1450260Y979084D01*
Y976716D01*
X1450872Y974430D01*
X1452056Y972380D01*
X1453730Y970706D01*
X1455780Y969523D01*
X1458066Y968910D01*
X1460433D01*
X1462720Y969523D01*
X1464770Y970706D01*
X1466444Y972380D01*
X1467627Y974430D01*
X1468240Y976716D01*
Y979084D01*
X1467627Y981370D01*
X1466444Y983420D01*
X1464770Y985094D01*
X1462720Y986277D01*
X1460433Y986890D01*
D02*
G37*
G36*
X1516370Y962150D02*
X1513829D01*
X1511375Y961492D01*
X1509175Y960222D01*
X1507378Y958425D01*
X1506107Y956225D01*
X1505450Y953771D01*
Y951229D01*
X1506107Y948775D01*
X1507378Y946575D01*
X1509175Y944778D01*
X1511375Y943508D01*
X1513829Y942850D01*
X1516370D01*
X1518825Y943508D01*
X1521025Y944778D01*
X1522822Y946575D01*
X1524092Y948775D01*
X1524750Y951229D01*
Y953771D01*
X1524092Y956225D01*
X1522822Y958425D01*
X1521025Y960222D01*
X1518825Y961492D01*
X1516370Y962150D01*
D02*
G37*
G36*
X1558015Y932100D02*
X1556025D01*
X1554188Y931339D01*
X1552781Y929932D01*
X1552020Y928095D01*
Y926105D01*
X1552781Y924268D01*
X1554188Y922861D01*
X1556025Y922100D01*
X1558015D01*
X1559852Y922861D01*
X1561259Y924268D01*
X1562020Y926105D01*
Y928095D01*
X1561259Y929932D01*
X1559852Y931339D01*
X1558015Y932100D01*
D02*
G37*
G36*
X1528805Y853360D02*
X1526815D01*
X1524978Y852599D01*
X1523571Y851192D01*
X1522810Y849355D01*
Y847365D01*
X1523571Y845528D01*
X1524978Y844121D01*
X1526815Y843360D01*
X1528805D01*
X1530642Y844121D01*
X1532049Y845528D01*
X1532810Y847365D01*
Y849355D01*
X1532049Y851192D01*
X1530642Y852599D01*
X1528805Y853360D01*
D02*
G37*
G36*
X1626924Y823340D02*
X1624817D01*
X1622782Y822795D01*
X1620958Y821742D01*
X1619469Y820252D01*
X1618416Y818428D01*
X1617870Y816393D01*
Y814287D01*
X1618416Y812252D01*
X1619469Y810428D01*
X1620958Y808938D01*
X1622782Y807885D01*
X1624817Y807340D01*
X1626924D01*
X1628958Y807885D01*
X1630782Y808938D01*
X1632272Y810428D01*
X1633325Y812252D01*
X1633870Y814287D01*
Y816393D01*
X1633325Y818428D01*
X1632272Y820252D01*
X1630782Y821742D01*
X1628958Y822795D01*
X1626924Y823340D01*
D02*
G37*
G36*
X1602523D02*
X1600417D01*
X1598382Y822795D01*
X1596558Y821742D01*
X1595068Y820252D01*
X1594015Y818428D01*
X1593470Y816393D01*
Y814287D01*
X1594015Y812252D01*
X1595068Y810428D01*
X1596558Y808938D01*
X1598382Y807885D01*
X1600417Y807340D01*
X1602523D01*
X1604558Y807885D01*
X1606382Y808938D01*
X1607872Y810428D01*
X1608925Y812252D01*
X1609470Y814287D01*
Y816393D01*
X1608925Y818428D01*
X1607872Y820252D01*
X1606382Y821742D01*
X1604558Y822795D01*
X1602523Y823340D01*
D02*
G37*
G36*
X1585070D02*
X1569070D01*
Y807340D01*
X1585070D01*
Y823340D01*
D02*
G37*
G36*
X1373865Y815166D02*
X1371875D01*
X1370038Y814405D01*
X1368631Y812999D01*
X1367870Y811161D01*
Y809172D01*
X1368631Y807334D01*
X1370038Y805928D01*
X1371875Y805166D01*
X1373155D01*
X1395554Y782767D01*
X1396636Y782044D01*
X1397912Y781791D01*
X1412578D01*
X1413482Y780886D01*
X1415320Y780125D01*
X1417309D01*
X1419147Y780886D01*
X1420553Y782292D01*
X1421315Y784130D01*
Y786119D01*
X1420553Y787957D01*
X1419147Y789363D01*
X1417309Y790125D01*
X1415320D01*
X1413482Y789363D01*
X1412578Y788459D01*
X1399293D01*
X1377870Y809882D01*
Y811161D01*
X1377109Y812999D01*
X1375702Y814405D01*
X1373865Y815166D01*
D02*
G37*
G36*
X1541659Y797710D02*
X1539670D01*
X1537832Y796949D01*
X1536426Y795542D01*
X1535665Y793705D01*
Y791715D01*
X1536426Y789878D01*
X1537832Y788471D01*
X1539670Y787710D01*
X1540950D01*
X1548697Y779962D01*
X1549779Y779240D01*
X1551055Y778986D01*
X1565983D01*
X1566888Y778081D01*
X1568725Y777320D01*
X1570715D01*
X1572552Y778081D01*
X1573959Y779488D01*
X1574720Y781325D01*
Y783315D01*
X1573959Y785152D01*
X1572552Y786559D01*
X1570715Y787320D01*
X1568725D01*
X1566888Y786559D01*
X1565983Y785654D01*
X1552436D01*
X1545665Y792425D01*
Y793705D01*
X1544903Y795542D01*
X1543497Y796949D01*
X1541659Y797710D01*
D02*
G37*
G36*
X1438635Y782240D02*
X1436645D01*
X1434808Y781479D01*
X1433401Y780072D01*
X1432640Y778235D01*
Y776245D01*
X1433401Y774408D01*
X1434808Y773001D01*
X1436645Y772240D01*
X1438635D01*
X1440472Y773001D01*
X1441879Y774408D01*
X1442640Y776245D01*
Y778235D01*
X1441879Y780072D01*
X1440472Y781479D01*
X1438635Y782240D01*
D02*
G37*
G36*
X1426984Y779763D02*
X1424995D01*
X1423158Y779002D01*
X1421751Y777595D01*
X1420990Y775758D01*
Y773768D01*
X1421751Y771931D01*
X1423158Y770524D01*
X1424995Y769763D01*
X1426984D01*
X1428822Y770524D01*
X1430229Y771931D01*
X1430990Y773768D01*
Y775758D01*
X1430229Y777595D01*
X1428822Y779002D01*
X1426984Y779763D01*
D02*
G37*
G36*
X1387835Y746680D02*
X1385845D01*
X1384008Y745919D01*
X1382601Y744512D01*
X1381840Y742675D01*
Y740685D01*
X1382601Y738848D01*
X1384008Y737441D01*
X1385845Y736680D01*
X1387835D01*
X1389672Y737441D01*
X1391079Y738848D01*
X1391840Y740685D01*
Y742675D01*
X1391079Y744512D01*
X1389672Y745919D01*
X1387835Y746680D01*
D02*
G37*
G36*
X1642005Y754340D02*
X1639675D01*
X1637424Y753737D01*
X1635406Y752572D01*
X1633758Y750924D01*
X1632593Y748906D01*
X1631990Y746655D01*
Y744325D01*
X1632593Y742074D01*
X1632635Y742001D01*
X1623010Y732375D01*
X1622288Y731294D01*
X1622034Y730018D01*
Y426435D01*
X1621129Y425530D01*
X1620368Y423692D01*
Y421703D01*
X1621129Y419865D01*
X1622536Y418459D01*
X1624373Y417698D01*
X1626362D01*
X1628200Y418459D01*
X1629607Y419865D01*
X1630368Y421703D01*
Y423692D01*
X1629607Y425530D01*
X1628702Y426435D01*
Y460471D01*
X1629972Y460997D01*
X1630388Y460581D01*
X1632225Y459820D01*
X1633505D01*
X1635305Y458020D01*
Y452731D01*
X1635369Y452409D01*
Y440425D01*
X1634829D01*
Y433902D01*
X1644650D01*
X1654471D01*
Y440425D01*
X1653931D01*
Y444144D01*
X1690510D01*
X1690510Y437596D01*
X1689970Y436550D01*
X1689970Y436464D01*
Y431800D01*
X1699260D01*
X1708550D01*
Y436464D01*
X1708550Y436550D01*
X1708010Y437596D01*
X1708010Y437820D01*
Y451010D01*
X1702594D01*
Y516890D01*
X1702340Y518166D01*
X1701617Y519248D01*
X1691560Y529305D01*
Y530585D01*
X1690799Y532422D01*
X1689392Y533829D01*
X1687555Y534590D01*
X1685565D01*
X1683728Y533829D01*
X1682321Y532422D01*
X1681560Y530585D01*
Y528595D01*
X1682321Y526758D01*
X1683728Y525351D01*
X1685565Y524590D01*
X1686845D01*
X1695926Y515509D01*
Y451010D01*
X1690510D01*
Y450812D01*
X1653931D01*
Y456001D01*
X1641973D01*
Y459401D01*
X1641719Y460677D01*
X1640997Y461758D01*
X1638220Y464535D01*
Y465815D01*
X1637459Y467652D01*
X1636052Y469059D01*
X1634215Y469820D01*
X1632225D01*
X1630388Y469059D01*
X1629972Y468643D01*
X1628702Y469169D01*
Y584931D01*
X1629972Y585457D01*
X1630388Y585041D01*
X1632225Y584280D01*
X1634215D01*
X1636052Y585041D01*
X1637459Y586448D01*
X1638220Y588285D01*
Y590275D01*
X1637459Y592112D01*
X1636052Y593519D01*
X1634215Y594280D01*
X1632225D01*
X1630388Y593519D01*
X1629972Y593103D01*
X1628702Y593629D01*
Y728637D01*
X1637351Y737286D01*
X1637424Y737243D01*
X1639675Y736640D01*
X1642005D01*
X1644256Y737243D01*
X1646274Y738408D01*
X1647922Y740056D01*
X1649087Y742074D01*
X1649690Y744325D01*
Y746655D01*
X1649087Y748906D01*
X1647922Y750924D01*
X1646274Y752572D01*
X1644256Y753737D01*
X1642005Y754340D01*
D02*
G37*
G36*
X1536425Y664130D02*
X1534435D01*
X1532598Y663369D01*
X1531191Y661962D01*
X1530430Y660125D01*
Y658135D01*
X1531191Y656298D01*
X1532598Y654891D01*
X1534435Y654130D01*
X1536425D01*
X1538262Y654891D01*
X1539669Y656298D01*
X1540430Y658135D01*
Y660125D01*
X1539669Y661962D01*
X1538262Y663369D01*
X1536425Y664130D01*
D02*
G37*
G36*
X1486895D02*
X1484905D01*
X1483068Y663369D01*
X1481661Y661962D01*
X1480900Y660125D01*
Y658135D01*
X1481661Y656298D01*
X1483068Y654891D01*
X1484905Y654130D01*
X1486895D01*
X1488732Y654891D01*
X1490139Y656298D01*
X1490900Y658135D01*
Y660125D01*
X1490139Y661962D01*
X1488732Y663369D01*
X1486895Y664130D01*
D02*
G37*
G36*
X1678665Y662860D02*
X1676675D01*
X1674838Y662099D01*
X1673431Y660692D01*
X1672670Y658855D01*
Y656865D01*
X1673431Y655028D01*
X1674838Y653621D01*
X1676675Y652860D01*
X1678665D01*
X1680502Y653621D01*
X1681909Y655028D01*
X1682670Y656865D01*
Y658855D01*
X1681909Y660692D01*
X1680502Y662099D01*
X1678665Y662860D01*
D02*
G37*
G36*
X1372830Y659090D02*
X1355130D01*
Y641390D01*
X1372830D01*
Y659090D01*
D02*
G37*
G36*
X1339745D02*
X1337415D01*
X1335164Y658487D01*
X1333146Y657322D01*
X1331498Y655674D01*
X1330333Y653656D01*
X1329730Y651405D01*
Y649075D01*
X1330333Y646824D01*
X1331498Y644806D01*
X1333146Y643158D01*
X1335164Y641993D01*
X1337415Y641390D01*
X1339745D01*
X1341996Y641993D01*
X1344014Y643158D01*
X1345662Y644806D01*
X1346827Y646824D01*
X1347430Y649075D01*
Y651405D01*
X1346827Y653656D01*
X1345662Y655674D01*
X1344014Y657322D01*
X1341996Y658487D01*
X1339745Y659090D01*
D02*
G37*
G36*
X1314345D02*
X1312015D01*
X1309764Y658487D01*
X1307746Y657322D01*
X1306098Y655674D01*
X1304933Y653656D01*
X1304330Y651405D01*
Y649075D01*
X1304933Y646824D01*
X1306098Y644806D01*
X1307746Y643158D01*
X1309764Y641993D01*
X1312015Y641390D01*
X1314345D01*
X1316596Y641993D01*
X1318614Y643158D01*
X1320262Y644806D01*
X1321427Y646824D01*
X1322030Y649075D01*
Y651405D01*
X1321427Y653656D01*
X1320262Y655674D01*
X1318614Y657322D01*
X1316596Y658487D01*
X1314345Y659090D01*
D02*
G37*
G36*
X1315720Y633881D02*
Y627380D01*
X1322221D01*
X1321930Y628464D01*
X1320694Y630606D01*
X1318946Y632354D01*
X1316804Y633590D01*
X1315720Y633881D01*
D02*
G37*
G36*
X1310640D02*
X1309556Y633590D01*
X1307414Y632354D01*
X1305666Y630606D01*
X1304430Y628464D01*
X1304139Y627380D01*
X1310640D01*
Y633881D01*
D02*
G37*
G36*
X1339745Y633690D02*
X1337415D01*
X1335164Y633087D01*
X1333146Y631922D01*
X1331498Y630274D01*
X1330333Y628256D01*
X1329730Y626005D01*
Y623675D01*
X1330333Y621424D01*
X1331498Y619406D01*
X1333146Y617758D01*
X1335164Y616593D01*
X1337415Y615990D01*
X1339745D01*
X1341996Y616593D01*
X1344014Y617758D01*
X1345662Y619406D01*
X1346827Y621424D01*
X1347430Y623675D01*
Y626005D01*
X1346827Y628256D01*
X1345662Y630274D01*
X1344014Y631922D01*
X1341996Y633087D01*
X1339745Y633690D01*
D02*
G37*
G36*
X1322221Y622300D02*
X1315720D01*
Y615799D01*
X1316804Y616090D01*
X1318946Y617326D01*
X1320694Y619074D01*
X1321930Y621216D01*
X1322221Y622300D01*
D02*
G37*
G36*
X1310640D02*
X1304139D01*
X1304430Y621216D01*
X1305666Y619074D01*
X1307414Y617326D01*
X1309556Y616090D01*
X1310640Y615799D01*
Y622300D01*
D02*
G37*
G36*
X1536425Y594280D02*
X1534435D01*
X1532598Y593519D01*
X1531191Y592112D01*
X1530430Y590275D01*
Y588285D01*
X1531191Y586448D01*
X1532598Y585041D01*
X1534435Y584280D01*
X1536425D01*
X1538262Y585041D01*
X1539669Y586448D01*
X1540430Y588285D01*
Y590275D01*
X1539669Y592112D01*
X1538262Y593519D01*
X1536425Y594280D01*
D02*
G37*
G36*
X1436095Y593010D02*
X1434105D01*
X1432268Y592249D01*
X1430861Y590842D01*
X1430100Y589005D01*
Y587015D01*
X1430861Y585178D01*
X1432268Y583771D01*
X1434105Y583010D01*
X1436095D01*
X1437932Y583771D01*
X1439339Y585178D01*
X1440100Y587015D01*
Y589005D01*
X1439339Y590842D01*
X1437932Y592249D01*
X1436095Y593010D01*
D02*
G37*
G36*
X1592305Y573960D02*
X1590315D01*
X1588478Y573199D01*
X1587071Y571792D01*
X1586310Y569955D01*
Y567965D01*
X1587071Y566128D01*
X1588478Y564721D01*
X1590315Y563960D01*
X1592305D01*
X1594142Y564721D01*
X1595549Y566128D01*
X1596310Y567965D01*
Y569955D01*
X1595549Y571792D01*
X1594142Y573199D01*
X1592305Y573960D01*
D02*
G37*
G36*
X1457965Y1018717D02*
X1424063D01*
X1422540Y1018413D01*
X1421248Y1017550D01*
X1408873Y1005176D01*
X1408010Y1003884D01*
X1407707Y1002360D01*
Y999881D01*
X1405155Y997328D01*
X1403707Y996729D01*
X1402301Y995322D01*
X1401540Y993485D01*
Y991496D01*
X1402301Y989658D01*
X1403707Y988251D01*
X1404906Y987755D01*
X1405265Y986317D01*
X1378945Y959997D01*
X1378082Y958705D01*
X1377778Y957182D01*
Y924505D01*
X1376600Y924285D01*
X1375839Y926122D01*
X1374432Y927529D01*
X1372595Y928290D01*
X1370605D01*
X1368768Y927529D01*
X1367361Y926122D01*
X1366600Y924285D01*
Y922295D01*
X1367361Y920458D01*
X1368768Y919051D01*
X1370605Y918290D01*
X1372595D01*
X1374432Y919051D01*
X1375839Y920458D01*
X1376600Y922295D01*
X1377778Y922075D01*
Y889379D01*
X1372239Y883840D01*
X1371875D01*
X1370038Y883079D01*
X1368631Y881672D01*
X1367870Y879835D01*
Y877845D01*
X1368631Y876008D01*
X1370038Y874601D01*
X1371875Y873840D01*
X1373865D01*
X1375702Y874601D01*
X1377109Y876008D01*
X1377870Y877845D01*
Y878209D01*
X1384575Y884915D01*
X1385438Y886206D01*
X1385741Y887730D01*
Y955532D01*
X1408390Y978181D01*
X1409660Y977655D01*
Y976716D01*
X1410273Y974430D01*
X1411456Y972380D01*
X1413130Y970706D01*
X1415180Y969523D01*
X1416923Y969056D01*
Y967100D01*
X1417177Y965824D01*
X1417899Y964743D01*
X1419222Y963420D01*
X1418696Y962150D01*
X1417379D01*
X1414925Y961492D01*
X1412725Y960222D01*
X1410928Y958425D01*
X1409658Y956225D01*
X1409000Y953771D01*
Y951229D01*
X1409658Y948775D01*
X1410928Y946575D01*
X1412725Y944778D01*
X1414925Y943508D01*
X1417379Y942850D01*
X1419920D01*
X1422375Y943508D01*
X1424575Y944778D01*
X1425506Y945709D01*
X1426776Y945183D01*
Y900631D01*
X1376965Y850820D01*
X1375685D01*
X1373848Y850059D01*
X1372441Y848652D01*
X1371680Y846815D01*
Y844825D01*
X1372441Y842988D01*
X1373848Y841581D01*
X1375685Y840820D01*
X1377675D01*
X1379512Y841581D01*
X1380919Y842988D01*
X1381680Y844825D01*
Y846105D01*
X1432467Y896892D01*
X1433190Y897974D01*
X1433444Y899250D01*
Y949705D01*
X1434714Y949872D01*
X1435008Y948775D01*
X1436278Y946575D01*
X1438075Y944778D01*
X1440275Y943508D01*
X1440666Y943403D01*
Y801360D01*
X1440666Y801360D01*
X1440920Y800084D01*
X1441643Y799002D01*
X1453872Y786773D01*
X1454954Y786050D01*
X1456230Y785796D01*
X1471359D01*
X1495774Y761381D01*
X1496855Y760658D01*
X1498131Y760405D01*
X1500235D01*
X1501511Y760658D01*
X1502593Y761381D01*
X1505097Y763886D01*
X1505820Y764967D01*
X1506074Y766243D01*
Y770613D01*
X1505820Y771889D01*
X1505097Y772971D01*
X1502268Y775800D01*
Y778680D01*
X1505097Y781509D01*
X1505820Y782591D01*
X1506074Y783867D01*
Y785427D01*
X1505820Y786703D01*
X1505097Y787785D01*
X1498257Y794625D01*
X1498675Y796003D01*
X1498914Y796051D01*
X1513026Y781939D01*
Y762832D01*
X1499828Y749634D01*
X1496129D01*
X1494853Y749380D01*
X1493772Y748658D01*
X1461953Y716838D01*
X1461230Y715757D01*
X1460976Y714481D01*
Y690807D01*
X1460071Y689902D01*
X1459310Y688065D01*
Y686075D01*
X1460071Y684238D01*
X1461478Y682831D01*
X1463063Y682174D01*
X1463582Y680897D01*
X1441735Y659050D01*
X1440455D01*
X1438618Y658289D01*
X1437560Y657231D01*
X1436290Y657724D01*
Y658855D01*
X1435529Y660692D01*
X1434122Y662099D01*
X1432285Y662860D01*
X1430295D01*
X1428458Y662099D01*
X1427051Y660692D01*
X1426290Y658855D01*
Y656865D01*
X1427051Y655028D01*
X1428458Y653621D01*
X1430295Y652860D01*
X1432285D01*
X1434122Y653621D01*
X1435180Y654679D01*
X1436450Y654186D01*
Y653055D01*
X1437211Y651218D01*
X1438618Y649811D01*
X1440455Y649050D01*
X1442445D01*
X1444282Y649811D01*
X1445689Y651218D01*
X1446450Y653055D01*
Y654335D01*
X1484778Y692663D01*
X1485501Y693745D01*
X1485755Y695021D01*
Y696392D01*
X1517546Y728182D01*
X1518979Y727819D01*
X1519480Y726608D01*
X1520385Y725703D01*
Y611970D01*
X1519205Y610790D01*
X1517925D01*
X1516088Y610029D01*
X1514681Y608622D01*
X1513920Y606785D01*
Y604795D01*
X1514681Y602958D01*
X1516088Y601551D01*
X1517925Y600790D01*
X1519439D01*
X1520000Y599556D01*
X1500495Y580050D01*
X1446710D01*
Y514354D01*
X1436219D01*
X1417134Y533439D01*
Y553329D01*
X1417391D01*
Y571891D01*
X1412202D01*
Y579952D01*
X1411948Y581228D01*
X1411225Y582310D01*
X1372184Y621351D01*
X1372227Y621424D01*
X1372830Y623675D01*
Y626005D01*
X1372227Y628256D01*
X1371062Y630274D01*
X1369414Y631922D01*
X1367396Y633087D01*
X1365145Y633690D01*
X1362815D01*
X1360564Y633087D01*
X1358546Y631922D01*
X1356898Y630274D01*
X1355733Y628256D01*
X1355130Y626005D01*
Y623675D01*
X1355733Y621424D01*
X1356898Y619406D01*
X1358546Y617758D01*
X1360564Y616593D01*
X1362815Y615990D01*
X1365145D01*
X1367396Y616593D01*
X1367469Y616636D01*
X1405534Y578571D01*
Y574631D01*
X1404361Y574145D01*
X1397319Y581187D01*
X1396237Y581910D01*
X1394961Y582164D01*
X1290616D01*
X1289340Y581910D01*
X1288258Y581187D01*
X1286342Y579272D01*
X1285620Y578190D01*
X1285366Y576914D01*
Y509205D01*
X1285620Y507929D01*
X1286342Y506848D01*
X1290708Y502482D01*
X1291790Y501759D01*
X1293065Y501506D01*
X1303985D01*
X1304510Y500236D01*
X1296835Y492560D01*
X1289920D01*
Y474164D01*
X1283630D01*
X1282354Y473910D01*
X1281272Y473187D01*
X1277905Y469820D01*
X1276625D01*
X1274788Y469059D01*
X1273381Y467652D01*
X1272620Y465815D01*
Y463825D01*
X1273381Y461988D01*
X1274788Y460581D01*
X1276625Y459820D01*
X1278615D01*
X1280452Y460581D01*
X1281859Y461988D01*
X1282620Y463825D01*
Y465105D01*
X1285011Y467496D01*
X1293190D01*
X1293512Y467560D01*
X1298434D01*
X1298920Y466387D01*
X1281452Y448919D01*
X1280730Y447838D01*
X1280476Y446562D01*
Y381160D01*
X1280730Y379884D01*
X1281452Y378803D01*
X1294210Y366045D01*
Y364765D01*
X1294971Y362928D01*
X1296378Y361521D01*
X1298215Y360760D01*
X1300205D01*
X1302042Y361521D01*
X1303449Y362928D01*
X1304210Y364765D01*
Y366755D01*
X1303449Y368592D01*
X1302042Y369999D01*
X1300205Y370760D01*
X1298925D01*
X1287144Y382541D01*
Y427590D01*
X1289290D01*
Y436880D01*
X1294370D01*
Y427590D01*
X1299034D01*
X1299120Y427590D01*
X1300166Y428130D01*
X1300390Y428130D01*
X1313580D01*
Y445630D01*
X1300390D01*
X1300166Y445630D01*
X1299120Y446170D01*
X1299034Y446170D01*
X1289792D01*
X1289306Y447343D01*
X1314798Y472834D01*
X1315520Y473916D01*
X1315774Y475192D01*
Y495036D01*
X1348874D01*
X1352194Y491716D01*
Y444891D01*
X1348475D01*
Y445431D01*
X1341952D01*
Y435610D01*
Y425789D01*
X1348475D01*
Y426329D01*
X1364051D01*
Y440176D01*
X1375201Y451326D01*
X1396680D01*
X1397956Y451580D01*
X1399037Y452303D01*
X1428451Y481716D01*
X1446660D01*
Y474050D01*
X1459660D01*
Y496050D01*
X1446660D01*
Y488384D01*
X1430123D01*
X1429637Y489557D01*
X1443225Y503145D01*
X1461699D01*
X1462378Y501875D01*
X1462279Y501727D01*
X1462025Y500452D01*
Y409597D01*
X1462279Y408321D01*
X1463002Y407239D01*
X1470646Y399595D01*
Y334166D01*
X1470900Y332890D01*
X1471622Y331809D01*
X1471812Y331619D01*
X1471745Y331459D01*
Y329470D01*
X1472507Y327632D01*
X1473913Y326226D01*
X1475751Y325465D01*
X1477740D01*
X1479578Y326226D01*
X1480984Y327632D01*
X1481745Y329470D01*
Y331459D01*
X1480984Y333297D01*
X1479578Y334703D01*
X1477740Y335465D01*
X1477397D01*
X1477314Y335547D01*
Y367191D01*
X1481513D01*
Y343953D01*
X1481767Y342677D01*
X1482489Y341595D01*
X1491060Y333025D01*
Y331606D01*
X1491821Y329769D01*
X1493228Y328362D01*
X1494819Y327703D01*
X1495339Y326428D01*
X1489357Y320446D01*
X1488897Y319757D01*
X1479191Y310051D01*
X1446909D01*
X1421404Y335557D01*
X1421404Y335557D01*
X1420135Y336825D01*
X1418844Y337688D01*
X1417320Y337991D01*
X1346806D01*
X1346440Y339110D01*
X1346440D01*
Y343376D01*
X1436370D01*
X1437646Y343630D01*
X1438728Y344352D01*
X1459048Y364673D01*
X1459770Y365754D01*
X1460024Y367030D01*
Y377210D01*
X1465820D01*
Y392410D01*
X1449620D01*
Y377210D01*
X1453356D01*
Y368411D01*
X1434989Y350044D01*
X1377343D01*
X1376857Y351217D01*
X1386477Y360837D01*
X1387650Y360351D01*
Y353530D01*
X1390650D01*
Y359570D01*
X1393190D01*
Y362110D01*
X1398730D01*
Y363696D01*
X1404620D01*
X1405896Y363950D01*
X1406978Y364673D01*
X1410207Y367902D01*
X1410929Y368983D01*
X1411183Y370259D01*
Y383964D01*
X1410929Y385240D01*
X1410207Y386322D01*
X1401741Y394787D01*
X1400659Y395510D01*
X1399383Y395764D01*
X1339821D01*
Y402211D01*
X1333388D01*
Y425789D01*
X1336872D01*
Y435610D01*
Y445431D01*
X1333388D01*
Y460713D01*
X1340235Y467560D01*
X1349020D01*
Y492560D01*
X1335520D01*
Y472275D01*
X1327696Y464451D01*
X1326974Y463370D01*
X1326720Y462094D01*
Y402211D01*
X1321853D01*
Y402751D01*
X1314086D01*
Y392430D01*
Y382109D01*
X1318463D01*
X1318949Y380936D01*
X1313906Y375893D01*
X1313043Y374601D01*
X1312740Y373078D01*
Y356911D01*
X1312897Y356120D01*
X1312223Y355033D01*
X1311991Y354850D01*
X1310880D01*
Y346710D01*
Y338570D01*
X1314363D01*
Y330024D01*
X1314666Y328501D01*
X1315529Y327209D01*
X1320629Y322110D01*
Y305100D01*
X1319176Y304262D01*
X1317528Y302614D01*
X1316363Y300596D01*
X1315760Y298345D01*
Y296015D01*
X1316363Y293764D01*
X1317528Y291746D01*
X1319176Y290098D01*
X1321194Y288933D01*
X1323445Y288330D01*
X1325775D01*
X1328026Y288933D01*
X1330044Y290098D01*
X1331692Y291746D01*
X1332857Y293764D01*
X1333460Y296015D01*
Y298345D01*
X1332857Y300596D01*
X1331692Y302614D01*
X1330044Y304262D01*
X1328591Y305100D01*
Y323759D01*
X1328288Y325283D01*
X1327425Y326575D01*
X1322326Y331674D01*
Y337448D01*
X1323500Y337934D01*
X1330239Y331195D01*
X1331530Y330332D01*
X1333054Y330028D01*
X1415671D01*
X1415773Y329926D01*
X1415773Y329926D01*
X1442445Y303255D01*
X1443736Y302392D01*
X1445260Y302089D01*
X1480841D01*
X1482364Y302392D01*
X1483656Y303255D01*
X1493633Y313231D01*
X1494806Y312745D01*
Y310409D01*
X1495060Y309133D01*
X1495782Y308052D01*
X1501392Y302442D01*
X1502473Y301720D01*
X1503749Y301466D01*
X1565826D01*
X1566915Y300376D01*
X1568753Y299615D01*
X1570742D01*
X1572580Y300376D01*
X1573986Y301783D01*
X1574747Y303621D01*
Y305610D01*
X1573986Y307447D01*
X1572580Y308854D01*
X1570742Y309615D01*
X1568753D01*
X1566915Y308854D01*
X1566195Y308134D01*
X1508721D01*
X1508195Y309404D01*
X1509189Y310398D01*
X1509950Y312235D01*
Y312599D01*
X1514069Y316719D01*
X1514932Y318010D01*
X1515235Y319534D01*
Y320426D01*
X1517852Y323042D01*
X1518715Y324334D01*
X1519018Y325858D01*
Y344680D01*
X1525262D01*
X1526785Y344983D01*
X1528077Y345846D01*
X1529713Y347483D01*
X1530577Y348774D01*
X1530880Y350298D01*
Y362329D01*
X1530577Y363853D01*
X1529713Y365145D01*
X1525677Y369182D01*
X1524911Y370148D01*
X1525856Y371562D01*
X1526188Y373230D01*
X1525856Y374898D01*
X1525056Y376095D01*
X1525301Y376259D01*
X1525923Y377190D01*
X1523598D01*
X1523498Y377257D01*
X1521830Y377589D01*
X1505851D01*
X1504182Y377257D01*
X1504082Y377190D01*
X1501280D01*
X1500951Y376111D01*
X1500681Y375930D01*
X1496855Y372105D01*
X1496711Y371889D01*
X1495441Y372274D01*
Y383256D01*
X1477314D01*
Y388208D01*
X1495441D01*
Y404272D01*
X1482583D01*
X1473773Y413082D01*
Y494066D01*
X1491720D01*
Y485547D01*
X1490547Y485061D01*
X1489630Y485978D01*
Y487044D01*
X1488869Y488882D01*
X1487462Y490288D01*
X1485625Y491049D01*
X1483635D01*
X1481798Y490288D01*
X1480391Y488882D01*
X1479630Y487044D01*
Y485055D01*
X1480391Y483217D01*
X1481798Y481811D01*
X1483635Y481049D01*
X1485128D01*
X1487116Y479062D01*
Y453630D01*
X1487370Y452354D01*
X1488092Y451273D01*
X1501581Y437785D01*
X1501824Y436562D01*
X1502769Y435148D01*
Y434812D01*
X1502009Y433675D01*
X1501196Y433132D01*
X1491252Y423187D01*
X1490529Y422106D01*
X1490275Y420830D01*
Y417846D01*
X1489281Y416852D01*
X1488520Y415015D01*
Y413025D01*
X1489281Y411188D01*
X1490688Y409781D01*
X1492525Y409020D01*
X1494515D01*
X1496352Y409781D01*
X1497759Y411188D01*
X1498520Y413025D01*
Y415015D01*
X1497759Y416852D01*
X1496943Y417668D01*
Y419449D01*
X1500699Y423204D01*
X1502236Y422946D01*
X1502769Y422148D01*
Y421811D01*
X1501824Y420398D01*
X1501492Y418730D01*
X1501824Y417062D01*
X1502624Y415864D01*
X1502379Y415701D01*
X1501757Y414770D01*
X1504082D01*
X1504182Y414703D01*
X1505851Y414371D01*
X1521830D01*
X1523498Y414703D01*
X1523598Y414770D01*
X1525923D01*
X1525301Y415701D01*
X1525056Y415864D01*
X1525856Y417062D01*
X1526188Y418730D01*
X1525856Y420398D01*
X1524911Y421811D01*
Y422148D01*
X1525856Y423562D01*
X1526188Y425230D01*
X1525856Y426898D01*
X1524911Y428312D01*
Y428648D01*
X1525750Y429903D01*
X1526962Y430397D01*
X1527031Y430418D01*
X1556226Y401223D01*
Y380247D01*
X1554956Y379862D01*
X1554461Y380602D01*
X1527360Y407703D01*
X1526279Y408426D01*
X1526002Y409690D01*
X1523598D01*
X1523498Y409757D01*
X1521830Y410089D01*
X1505851D01*
X1504182Y409757D01*
X1504082Y409690D01*
X1501757D01*
X1502379Y408759D01*
X1502624Y408595D01*
X1501824Y407398D01*
X1501492Y405730D01*
X1501824Y404062D01*
X1502769Y402648D01*
Y402312D01*
X1501824Y400898D01*
X1501492Y399230D01*
X1501824Y397562D01*
X1502769Y396148D01*
Y395812D01*
X1501824Y394398D01*
X1501492Y392730D01*
X1501824Y391062D01*
X1502769Y389648D01*
Y389312D01*
X1501824Y387898D01*
X1501492Y386230D01*
X1501824Y384562D01*
X1502624Y383365D01*
X1502379Y383201D01*
X1501757Y382270D01*
X1504082D01*
X1504182Y382203D01*
X1505851Y381871D01*
X1521830D01*
X1523498Y382203D01*
X1523598Y382270D01*
X1525923D01*
X1525301Y383201D01*
X1525056Y383365D01*
X1525856Y384562D01*
X1526188Y386230D01*
X1525856Y387898D01*
X1524911Y389312D01*
Y389648D01*
X1525750Y390903D01*
X1526958Y391396D01*
X1527031Y391418D01*
X1543690Y374760D01*
Y348456D01*
X1543943Y347180D01*
X1544666Y346098D01*
X1557762Y333003D01*
X1558843Y332280D01*
X1560119Y332026D01*
X1595620D01*
X1596896Y332280D01*
X1597977Y333003D01*
X1617241Y352266D01*
X1629380D01*
Y344100D01*
X1657380D01*
Y352266D01*
X1662773D01*
X1664048Y352520D01*
X1665130Y353242D01*
X1667657Y355770D01*
X1676451D01*
X1677727Y356023D01*
X1678809Y356746D01*
X1681591Y359528D01*
X1691989D01*
Y355906D01*
X1691449D01*
Y350878D01*
X1700530D01*
X1709611D01*
Y355906D01*
X1709071D01*
Y369891D01*
X1691989D01*
Y366196D01*
X1680210D01*
X1678934Y365943D01*
X1677852Y365220D01*
X1675070Y362438D01*
X1666276D01*
X1665000Y362184D01*
X1663919Y361461D01*
X1661392Y358934D01*
X1657380D01*
Y367100D01*
X1629380D01*
Y358934D01*
X1618179D01*
X1617928Y359160D01*
X1617307Y360204D01*
X1617480Y361070D01*
Y368485D01*
X1634095Y385100D01*
X1657380D01*
Y401081D01*
X1691989D01*
Y396546D01*
X1691449D01*
Y391518D01*
X1700530D01*
X1709611D01*
Y396546D01*
X1709071D01*
Y410531D01*
X1691989D01*
Y407749D01*
X1657380D01*
Y408100D01*
X1629380D01*
Y389815D01*
X1611788Y372223D01*
X1611372Y371601D01*
X1610102Y371986D01*
Y444811D01*
X1609849Y446087D01*
X1609126Y447168D01*
X1577940Y478355D01*
X1576858Y479077D01*
X1575582Y479331D01*
X1557685D01*
X1556409Y479077D01*
X1555327Y478355D01*
X1551338Y474365D01*
X1550616Y473284D01*
X1550362Y472008D01*
Y465719D01*
X1550367Y465693D01*
X1549561Y464711D01*
X1547782D01*
X1536618Y475875D01*
X1568268Y507524D01*
X1568990Y508605D01*
X1569244Y509881D01*
Y563953D01*
X1570149Y564858D01*
X1570910Y566695D01*
Y568685D01*
X1570149Y570522D01*
X1568742Y571929D01*
X1566905Y572690D01*
X1564915D01*
X1563078Y571929D01*
X1561671Y570522D01*
X1560910Y568685D01*
Y566695D01*
X1561671Y564858D01*
X1562576Y563953D01*
Y511262D01*
X1532955Y481642D01*
X1512625Y501972D01*
X1513111Y503145D01*
X1515390D01*
X1516666Y503399D01*
X1517747Y504122D01*
X1527088Y513462D01*
X1527810Y514543D01*
X1528064Y515819D01*
Y528331D01*
X1527810Y529607D01*
X1527088Y530688D01*
X1520748Y537028D01*
X1519667Y537750D01*
X1518391Y538004D01*
X1505210D01*
Y575335D01*
X1607137Y677263D01*
X1607860Y678344D01*
X1608114Y679620D01*
Y736640D01*
X1624290D01*
Y754340D01*
X1609601D01*
X1609075Y755610D01*
X1665247Y811783D01*
X1665970Y812865D01*
X1666224Y814140D01*
Y953310D01*
X1665970Y954586D01*
X1665247Y955667D01*
X1621314Y999601D01*
Y1005913D01*
X1622219Y1006818D01*
X1622980Y1008655D01*
Y1010645D01*
X1622219Y1012482D01*
X1620812Y1013889D01*
X1618975Y1014650D01*
X1616985D01*
X1615148Y1013889D01*
X1613741Y1012482D01*
X1612980Y1010645D01*
Y1008655D01*
X1613741Y1006818D01*
X1614646Y1005913D01*
Y998220D01*
X1614900Y996944D01*
X1615623Y995863D01*
X1659556Y951929D01*
Y892984D01*
X1658286Y892228D01*
X1657075Y892730D01*
X1655085D01*
X1653248Y891969D01*
X1652343Y891064D01*
X1623060D01*
X1621784Y890810D01*
X1620703Y890088D01*
X1583975Y853360D01*
X1582695D01*
X1580858Y852599D01*
X1579451Y851192D01*
X1578690Y849355D01*
Y847365D01*
X1579451Y845528D01*
X1580858Y844121D01*
X1582695Y843360D01*
X1584685D01*
X1586522Y844121D01*
X1587929Y845528D01*
X1588690Y847365D01*
Y848645D01*
X1624441Y884396D01*
X1652343D01*
X1653248Y883491D01*
X1655085Y882730D01*
X1657075D01*
X1658286Y883232D01*
X1659556Y882476D01*
Y815521D01*
X1602422Y758388D01*
X1601700Y757306D01*
X1601446Y756031D01*
Y681001D01*
X1525707Y605262D01*
X1524369Y605720D01*
X1524278Y606433D01*
X1526077Y608232D01*
X1526799Y609313D01*
X1527053Y610589D01*
Y725703D01*
X1527958Y726608D01*
X1528719Y728445D01*
Y730435D01*
X1527958Y732272D01*
X1526552Y733679D01*
X1525340Y734181D01*
X1524977Y735613D01*
X1530736Y741372D01*
X1531459Y742454D01*
X1531712Y743730D01*
Y791373D01*
X1532617Y792278D01*
X1533378Y794116D01*
Y796105D01*
X1532617Y797942D01*
X1531211Y799349D01*
X1529373Y800110D01*
X1527384D01*
X1525546Y799349D01*
X1524140Y797942D01*
X1523378Y796105D01*
Y795654D01*
X1522108Y795128D01*
X1520984Y796252D01*
Y799651D01*
X1520730Y800927D01*
X1520007Y802008D01*
X1505920Y816096D01*
Y818895D01*
X1507190Y819652D01*
X1508402Y819150D01*
X1510391D01*
X1512229Y819911D01*
X1513133Y820816D01*
X1541749D01*
X1557100Y805465D01*
Y804185D01*
X1557861Y802348D01*
X1559268Y800941D01*
X1561105Y800180D01*
X1563095D01*
X1564932Y800941D01*
X1566339Y802348D01*
X1567100Y804185D01*
Y806175D01*
X1566339Y808012D01*
X1564932Y809419D01*
X1563095Y810180D01*
X1561815D01*
X1545488Y826507D01*
X1544406Y827230D01*
X1543130Y827484D01*
X1513133D01*
X1512229Y828389D01*
X1510391Y829150D01*
X1508402D01*
X1507190Y828648D01*
X1505920Y829405D01*
Y864875D01*
X1542808Y901763D01*
X1543530Y902844D01*
X1543784Y904120D01*
Y943403D01*
X1544175Y943508D01*
X1546375Y944778D01*
X1548172Y946575D01*
X1549442Y948775D01*
X1550100Y951229D01*
Y953771D01*
X1549442Y956225D01*
X1548172Y958425D01*
X1546375Y960222D01*
X1544175Y961492D01*
X1541720Y962150D01*
X1539180D01*
X1536725Y961492D01*
X1534525Y960222D01*
X1532728Y958425D01*
X1531458Y956225D01*
X1530800Y953771D01*
Y951229D01*
X1531458Y948775D01*
X1532728Y946575D01*
X1534525Y944778D01*
X1536725Y943508D01*
X1537116Y943403D01*
Y905501D01*
X1500229Y868614D01*
X1499506Y867532D01*
X1499252Y866256D01*
Y814715D01*
X1499506Y813439D01*
X1499642Y813234D01*
X1498964Y811964D01*
X1495039D01*
X1493763Y811711D01*
X1492681Y810988D01*
X1488692Y806999D01*
X1487970Y805917D01*
X1487716Y804641D01*
Y797117D01*
X1487970Y795841D01*
X1488692Y794760D01*
X1498805Y784647D01*
X1496576Y782418D01*
X1495853Y781337D01*
X1495600Y780061D01*
Y774419D01*
X1495853Y773143D01*
X1496576Y772062D01*
X1498615Y770023D01*
X1498573Y769808D01*
X1497195Y769390D01*
X1475098Y791488D01*
X1474016Y792210D01*
X1472740Y792464D01*
X1466674D01*
X1466123Y793734D01*
X1466770Y795295D01*
Y797285D01*
X1466009Y799122D01*
X1464602Y800529D01*
X1462765Y801290D01*
X1460775D01*
X1458938Y800529D01*
X1457531Y799122D01*
X1456770Y797285D01*
Y795295D01*
X1456907Y794964D01*
X1455831Y794244D01*
X1447334Y802741D01*
Y943403D01*
X1447725Y943508D01*
X1449925Y944778D01*
X1451722Y946575D01*
X1452993Y948775D01*
X1453650Y951229D01*
Y953771D01*
X1452993Y956225D01*
X1451722Y958425D01*
X1449925Y960222D01*
X1447725Y961492D01*
X1445271Y962150D01*
X1442730D01*
X1440275Y961492D01*
X1438075Y960222D01*
X1436278Y958425D01*
X1435008Y956225D01*
X1434714Y955128D01*
X1433444Y955295D01*
Y957247D01*
X1433190Y958523D01*
X1432467Y959604D01*
X1423591Y968481D01*
Y970372D01*
X1424170Y970706D01*
X1425844Y972380D01*
X1427027Y974430D01*
X1427640Y976716D01*
Y979084D01*
X1427027Y981370D01*
X1425844Y983420D01*
X1424170Y985094D01*
X1422120Y986277D01*
X1420865Y986613D01*
X1421033Y987884D01*
X1436567D01*
X1436735Y986613D01*
X1435480Y986277D01*
X1433430Y985094D01*
X1431756Y983420D01*
X1430573Y981370D01*
X1429960Y979084D01*
Y976716D01*
X1430573Y974430D01*
X1431756Y972380D01*
X1433430Y970706D01*
X1435480Y969523D01*
X1437767Y968910D01*
X1440134D01*
X1442420Y969523D01*
X1444470Y970706D01*
X1446144Y972380D01*
X1447328Y974430D01*
X1447940Y976716D01*
Y979084D01*
X1447328Y981370D01*
X1446144Y983420D01*
X1444470Y985094D01*
X1442420Y986277D01*
X1440134Y986890D01*
X1439180D01*
X1438936Y988136D01*
X1439189Y988187D01*
X1440480Y989050D01*
X1446200Y994770D01*
X1447916Y994310D01*
X1450284D01*
X1452570Y994923D01*
X1454620Y996106D01*
X1456294Y997780D01*
X1457477Y999830D01*
X1458090Y1002116D01*
Y1004484D01*
X1457477Y1006770D01*
X1456499Y1008465D01*
X1456808Y1009540D01*
X1457042Y1009868D01*
X1457175Y1009894D01*
X1460870Y1006199D01*
X1460410Y1004484D01*
Y1002116D01*
X1461023Y999830D01*
X1462206Y997780D01*
X1463880Y996106D01*
X1465930Y994923D01*
X1468217Y994310D01*
X1470584D01*
X1472870Y994923D01*
X1474920Y996106D01*
X1476594Y997780D01*
X1477778Y999830D01*
X1478390Y1002116D01*
Y1004484D01*
X1477778Y1006770D01*
X1476594Y1008820D01*
X1474920Y1010494D01*
X1472870Y1011677D01*
X1470584Y1012290D01*
X1468217D01*
X1466501Y1011830D01*
X1460780Y1017550D01*
X1459489Y1018413D01*
X1459236Y1018464D01*
X1457965Y1018717D01*
D02*
G37*
G36*
X1654471Y428822D02*
X1647190D01*
Y422299D01*
X1654471D01*
Y428822D01*
D02*
G37*
G36*
X1642110D02*
X1634829D01*
Y422299D01*
X1642110D01*
Y428822D01*
D02*
G37*
G36*
X1708550Y426720D02*
X1701800D01*
Y421970D01*
X1708550D01*
Y426720D01*
D02*
G37*
G36*
X1696720D02*
X1689970D01*
Y421970D01*
X1696720D01*
Y426720D01*
D02*
G37*
G36*
X1309006Y402751D02*
X1301239D01*
Y394970D01*
X1309006D01*
Y402751D01*
D02*
G37*
G36*
X1436360Y392950D02*
X1430260D01*
Y387350D01*
X1436360D01*
Y392950D01*
D02*
G37*
G36*
X1425180D02*
X1419080D01*
Y387350D01*
X1425180D01*
Y392950D01*
D02*
G37*
G36*
X1309006Y389890D02*
X1301239D01*
Y382109D01*
X1309006D01*
Y389890D01*
D02*
G37*
G36*
X1709611Y386438D02*
X1703070D01*
Y381409D01*
X1709611D01*
Y386438D01*
D02*
G37*
G36*
X1697990D02*
X1691449D01*
Y381409D01*
X1697990D01*
Y386438D01*
D02*
G37*
G36*
X1436360Y382270D02*
X1430260D01*
Y376670D01*
X1436360D01*
Y382270D01*
D02*
G37*
G36*
X1425180D02*
X1419080D01*
Y376670D01*
X1425180D01*
Y382270D01*
D02*
G37*
G36*
X1398730Y357030D02*
X1395730D01*
Y353530D01*
X1398730D01*
Y357030D01*
D02*
G37*
G36*
X1305800Y354850D02*
X1299700D01*
Y349250D01*
X1305800D01*
Y354850D01*
D02*
G37*
G36*
X1709611Y345798D02*
X1703070D01*
Y340769D01*
X1709611D01*
Y345798D01*
D02*
G37*
G36*
X1697990D02*
X1691449D01*
Y340769D01*
X1697990D01*
Y345798D01*
D02*
G37*
G36*
X1305800Y344170D02*
X1299700D01*
Y338570D01*
X1305800D01*
Y344170D01*
D02*
G37*
G36*
X1384800Y306570D02*
X1377950D01*
Y299720D01*
X1384800D01*
Y306570D01*
D02*
G37*
G36*
X1372870D02*
X1366020D01*
Y299720D01*
X1372870D01*
Y306570D01*
D02*
G37*
G36*
X1351175Y306030D02*
X1348845D01*
X1346594Y305427D01*
X1344576Y304262D01*
X1342928Y302614D01*
X1341763Y300596D01*
X1341160Y298345D01*
Y296015D01*
X1341763Y293764D01*
X1342928Y291746D01*
X1344576Y290098D01*
X1346594Y288933D01*
X1348845Y288330D01*
X1351175D01*
X1353426Y288933D01*
X1355444Y290098D01*
X1357092Y291746D01*
X1358257Y293764D01*
X1358860Y296015D01*
Y298345D01*
X1358257Y300596D01*
X1357092Y302614D01*
X1355444Y304262D01*
X1353426Y305427D01*
X1351175Y306030D01*
D02*
G37*
G36*
X1300375D02*
X1298045D01*
X1295794Y305427D01*
X1293776Y304262D01*
X1292128Y302614D01*
X1290963Y300596D01*
X1290360Y298345D01*
Y296015D01*
X1290963Y293764D01*
X1292128Y291746D01*
X1293776Y290098D01*
X1295794Y288933D01*
X1298045Y288330D01*
X1300375D01*
X1302626Y288933D01*
X1304644Y290098D01*
X1306292Y291746D01*
X1307457Y293764D01*
X1308060Y296015D01*
Y298345D01*
X1307457Y300596D01*
X1306292Y302614D01*
X1304644Y304262D01*
X1302626Y305427D01*
X1300375Y306030D01*
D02*
G37*
G36*
X1384800Y294640D02*
X1377950D01*
Y287790D01*
X1384800D01*
Y294640D01*
D02*
G37*
G36*
X1372870D02*
X1366020D01*
Y287790D01*
X1372870D01*
Y294640D01*
D02*
G37*
G36*
X1696720Y275131D02*
Y250190D01*
X1721661D01*
X1721042Y254099D01*
X1719702Y258222D01*
X1717734Y262084D01*
X1715186Y265591D01*
X1712121Y268656D01*
X1708614Y271204D01*
X1704752Y273172D01*
X1700629Y274512D01*
X1696720Y275131D01*
D02*
G37*
G36*
X1691640D02*
X1687731Y274512D01*
X1683608Y273172D01*
X1679746Y271204D01*
X1676239Y268656D01*
X1673174Y265591D01*
X1670626Y262084D01*
X1668658Y258222D01*
X1667318Y254099D01*
X1666699Y250190D01*
X1691640D01*
Y275131D01*
D02*
G37*
G36*
X1270000D02*
Y250190D01*
X1294941D01*
X1294322Y254099D01*
X1292982Y258222D01*
X1291014Y262084D01*
X1288466Y265591D01*
X1285401Y268656D01*
X1281894Y271204D01*
X1278032Y273172D01*
X1273909Y274512D01*
X1270000Y275131D01*
D02*
G37*
G36*
X1264920D02*
X1261011Y274512D01*
X1256888Y273172D01*
X1253026Y271204D01*
X1249519Y268656D01*
X1246454Y265591D01*
X1243906Y262084D01*
X1241938Y258222D01*
X1240598Y254099D01*
X1239979Y250190D01*
X1264920D01*
Y275131D01*
D02*
G37*
G36*
X1721661Y245110D02*
X1696720D01*
Y220169D01*
X1700629Y220788D01*
X1704752Y222128D01*
X1708614Y224096D01*
X1712121Y226644D01*
X1715186Y229709D01*
X1717734Y233216D01*
X1719702Y237078D01*
X1721042Y241201D01*
X1721661Y245110D01*
D02*
G37*
G36*
X1691640D02*
X1666699D01*
X1667318Y241201D01*
X1668658Y237078D01*
X1670626Y233216D01*
X1673174Y229709D01*
X1676239Y226644D01*
X1679746Y224096D01*
X1683608Y222128D01*
X1687731Y220788D01*
X1691640Y220169D01*
Y245110D01*
D02*
G37*
G36*
X1294941D02*
X1270000D01*
Y220169D01*
X1273909Y220788D01*
X1278032Y222128D01*
X1281894Y224096D01*
X1285401Y226644D01*
X1288466Y229709D01*
X1291014Y233216D01*
X1292982Y237078D01*
X1294322Y241201D01*
X1294941Y245110D01*
D02*
G37*
G36*
X1264920D02*
X1239979D01*
X1240598Y241201D01*
X1241938Y237078D01*
X1243906Y233216D01*
X1246454Y229709D01*
X1249519Y226644D01*
X1253026Y224096D01*
X1256888Y222128D01*
X1261011Y220788D01*
X1264920Y220169D01*
Y245110D01*
D02*
G37*
%LPD*%
G36*
X1395471Y573604D02*
X1395292Y573172D01*
Y562610D01*
Y552789D01*
X1401815D01*
Y553329D01*
X1407762D01*
X1408362Y552598D01*
X1408616Y551322D01*
X1409338Y550240D01*
X1410420Y549518D01*
X1410466Y549508D01*
Y532058D01*
X1410720Y530782D01*
X1411443Y529700D01*
X1432481Y508662D01*
X1433562Y507939D01*
X1434838Y507685D01*
X1436676D01*
X1437162Y506512D01*
X1414114Y483464D01*
X1413133Y483870D01*
X1405650D01*
Y486410D01*
X1403110D01*
Y495700D01*
X1398360D01*
Y495700D01*
X1397314Y495160D01*
X1393984D01*
Y496459D01*
X1394175Y496650D01*
X1395455D01*
X1397292Y497411D01*
X1398699Y498818D01*
X1399460Y500655D01*
Y502645D01*
X1398699Y504482D01*
X1397292Y505889D01*
X1395455Y506650D01*
X1393465D01*
X1391628Y505889D01*
X1390221Y504482D01*
X1389460Y502645D01*
Y501365D01*
X1388293Y500197D01*
X1387570Y499116D01*
X1387316Y497840D01*
Y495160D01*
X1383900D01*
Y477660D01*
X1392685D01*
X1396313Y474033D01*
X1397394Y473310D01*
X1398670Y473056D01*
X1408701D01*
X1409187Y471883D01*
X1395299Y457994D01*
X1373820D01*
X1372544Y457740D01*
X1371463Y457018D01*
X1360132Y445687D01*
X1358862Y446213D01*
Y493097D01*
X1358608Y494373D01*
X1357885Y495455D01*
X1352613Y500728D01*
X1351531Y501450D01*
X1350255Y501704D01*
X1315529D01*
X1315520Y501750D01*
X1314798Y502832D01*
X1310880Y506750D01*
X1311406Y508020D01*
X1316930D01*
Y543060D01*
X1319470D01*
Y545600D01*
X1349510D01*
Y575496D01*
X1393580D01*
X1395471Y573604D01*
D02*
G37*
G36*
X1542163Y454479D02*
X1543245Y453757D01*
X1544521Y453503D01*
X1547853D01*
X1551952Y449403D01*
X1551589Y447971D01*
X1550378Y447469D01*
X1548971Y446062D01*
X1548210Y444225D01*
Y442235D01*
X1548971Y440398D01*
X1549876Y439493D01*
Y427368D01*
X1550130Y426092D01*
X1550853Y425010D01*
X1565911Y409952D01*
X1566993Y409229D01*
X1568269Y408975D01*
X1569124D01*
X1569509Y407705D01*
X1569506Y407703D01*
X1566283Y404479D01*
X1565560Y403398D01*
X1565306Y402122D01*
Y383338D01*
X1565560Y382062D01*
X1566283Y380981D01*
X1569506Y377757D01*
X1570414Y377150D01*
X1570684Y376562D01*
X1570860Y375697D01*
X1570327Y374898D01*
X1569995Y373230D01*
X1570327Y371562D01*
X1571127Y370364D01*
X1570882Y370201D01*
X1570260Y369270D01*
X1572585D01*
X1572685Y369203D01*
X1574353Y368871D01*
X1590332D01*
X1592000Y369203D01*
X1592100Y369270D01*
X1594426D01*
X1593804Y370201D01*
X1593559Y370364D01*
X1594359Y371562D01*
X1594691Y373230D01*
X1594359Y374898D01*
X1593414Y376312D01*
Y376648D01*
X1594359Y378062D01*
X1594691Y379730D01*
X1594359Y381398D01*
X1593414Y382812D01*
Y383148D01*
X1594359Y384562D01*
X1594691Y386230D01*
X1594359Y387898D01*
X1593414Y389312D01*
Y389648D01*
X1594359Y391062D01*
X1594691Y392730D01*
X1594390Y394242D01*
X1594538Y394733D01*
X1594954Y395512D01*
X1600005D01*
Y363186D01*
X1597969Y361149D01*
X1594508D01*
X1594359Y361898D01*
X1593559Y363095D01*
X1593804Y363259D01*
X1594426Y364190D01*
X1592101D01*
X1592000Y364257D01*
X1590332Y364589D01*
X1574353D01*
X1572685Y364257D01*
X1572585Y364190D01*
X1569666D01*
X1569331Y363564D01*
X1566577D01*
X1565959Y365058D01*
X1564552Y366464D01*
X1562715Y367225D01*
X1560726D01*
X1558888Y366464D01*
X1557481Y365058D01*
X1556720Y363220D01*
Y361231D01*
X1557481Y359393D01*
X1558888Y357987D01*
X1560726Y357225D01*
X1562715D01*
X1563053Y357366D01*
X1563376Y357150D01*
X1564652Y356896D01*
X1569800D01*
X1570479Y355626D01*
X1570327Y355398D01*
X1569995Y353730D01*
X1570298Y352205D01*
X1569952Y351734D01*
X1569364Y351217D01*
X1568175Y351710D01*
X1566185D01*
X1564348Y350949D01*
X1562941Y349542D01*
X1562180Y347705D01*
Y346995D01*
X1560910Y346468D01*
X1555438Y351941D01*
Y370042D01*
X1556611Y370528D01*
X1556728Y370411D01*
X1558565Y369650D01*
X1560555D01*
X1562392Y370411D01*
X1563799Y371818D01*
X1564560Y373655D01*
Y375645D01*
X1563799Y377482D01*
X1562894Y378387D01*
Y402604D01*
X1562640Y403880D01*
X1561918Y404962D01*
X1526676Y440203D01*
X1525595Y440926D01*
X1525104Y441023D01*
X1524911Y441312D01*
X1523497Y442256D01*
X1521830Y442588D01*
X1506207D01*
X1493784Y455011D01*
Y473510D01*
X1496220D01*
Y485050D01*
X1498760D01*
Y487590D01*
X1505800D01*
Y489183D01*
X1506973Y489669D01*
X1542163Y454479D01*
D02*
G37*
%LPC*%
G36*
X1390212Y572431D02*
X1383689D01*
Y565150D01*
X1390212D01*
Y572431D01*
D02*
G37*
G36*
Y560070D02*
X1383689D01*
Y552789D01*
X1390212D01*
Y560070D01*
D02*
G37*
G36*
X1349510Y540520D02*
X1322010D01*
Y508020D01*
X1349510D01*
Y540520D01*
D02*
G37*
G36*
X1412940Y495700D02*
X1408190D01*
Y488950D01*
X1412940D01*
Y495700D01*
D02*
G37*
G36*
X1505800Y482510D02*
X1501300D01*
Y473510D01*
X1505800D01*
Y482510D01*
D02*
G37*
%LPD*%
D15*
X1700530Y403502D02*
G03*
X1698327Y404415I-2203J-2203D01*
G01*
X1583690Y848360D02*
X1623060Y887730D01*
X1496060Y332601D02*
Y332740D01*
X1484847Y343953D02*
X1496060Y332740D01*
X1503749Y304800D02*
X1569563D01*
X1569747Y304615D01*
X1553210Y427368D02*
Y443230D01*
X1582727Y398846D02*
X1602335D01*
X1603339Y361805D02*
Y397841D01*
X1602335Y398846D02*
X1603339Y397841D01*
X1397912Y785125D02*
X1416315D01*
X1444000Y801360D02*
X1456230Y789130D01*
X1472740D02*
X1498131Y763739D01*
X1456230Y789130D02*
X1472740D01*
X1502740Y783867D02*
Y785427D01*
X1498934Y780061D02*
X1502740Y783867D01*
X1498934Y774419D02*
Y780061D01*
X1502740Y766243D02*
Y770613D01*
X1498934Y774419D02*
X1502740Y770613D01*
X1498131Y763739D02*
X1500235D01*
X1491050Y797117D02*
X1502740Y785427D01*
X1500235Y763739D02*
X1502740Y766243D01*
X1510771Y734410D02*
X1523218Y746857D01*
X1497860Y801820D02*
X1516360Y783320D01*
X1507950Y741220D02*
X1519789Y753059D01*
X1516360Y761451D02*
Y783320D01*
X1523218Y746857D02*
Y789303D01*
X1519789Y753059D02*
Y786312D01*
X1517650Y794871D02*
X1523218Y789303D01*
X1509165Y796935D02*
X1519789Y786312D01*
X1528378Y743730D02*
Y795110D01*
X1501209Y746300D02*
X1516360Y761451D01*
X1491050Y797117D02*
Y804641D01*
X1617980Y998220D02*
X1662890Y953310D01*
X1604780Y756031D02*
X1662890Y814140D01*
Y953310D01*
X1623060Y887730D02*
X1656080D01*
X1564652Y360230D02*
X1582343D01*
X1562656Y362225D02*
X1564652Y360230D01*
X1561720Y362225D02*
X1562656D01*
X1593094Y346710D02*
X1606768Y360384D01*
X1562763Y339900D02*
X1592976D01*
X1614146Y361070D01*
X1599350Y357815D02*
X1603339Y361805D01*
X1575582Y475997D02*
X1606768Y444811D01*
X1590332Y353730D02*
X1594418Y357815D01*
X1599350D01*
X1560119Y335360D02*
X1595620D01*
X1606768Y360384D02*
Y444811D01*
X1595620Y335360D02*
X1615860Y355600D01*
X1582343Y353730D02*
X1590332D01*
X1614146Y361070D02*
Y369866D01*
X1615860Y355600D02*
X1643380D01*
X1567180Y346710D02*
X1593094D01*
X1643380Y355600D02*
X1662773D01*
X1614146Y369866D02*
X1640880Y396600D01*
X1357630Y349250D02*
Y355600D01*
X1355090Y346710D02*
X1367634D01*
X1338340D02*
X1355090D01*
X1357630Y349250D01*
X1399383Y392430D02*
X1407849Y383964D01*
X1330054Y392430D02*
X1399383D01*
X1330054D02*
Y462094D01*
X1342270Y474310D01*
X1367634Y346710D02*
X1436370D01*
X1387954Y367030D02*
X1404620D01*
X1367634Y346710D02*
X1387954Y367030D01*
X1407849Y370259D02*
Y383964D01*
X1404620Y367030D02*
X1407849Y370259D01*
X1390650Y486410D02*
Y497840D01*
X1394460Y501650D01*
X1390650Y484410D02*
Y486410D01*
X1473980Y334166D02*
X1476745Y331401D01*
X1473980Y334166D02*
Y400976D01*
X1295735Y473375D02*
Y486745D01*
X1312440Y498370D02*
Y500474D01*
Y475192D02*
Y498370D01*
X1350255D01*
X1307360D02*
X1312440D01*
X1403788Y560506D02*
Y570003D01*
X1413800Y552598D02*
Y557678D01*
Y532058D02*
Y552598D01*
X1411696D02*
X1413800D01*
X1283810Y381160D02*
X1299210Y365760D01*
X1283810Y381160D02*
Y446562D01*
X1312440Y475192D01*
X1308074Y504840D02*
X1312440Y500474D01*
X1293065Y504840D02*
X1308074D01*
X1288700Y509205D02*
X1293065Y504840D01*
X1288700Y509205D02*
Y576914D01*
X1290616Y578830D01*
X1394961D01*
X1403788Y570003D01*
X1436370Y346710D02*
X1456690Y367030D01*
X1413800Y532058D02*
X1434838Y511020D01*
X1396680Y454660D02*
X1427070Y485050D01*
X1434838Y511020D02*
X1513510D01*
X1466847Y501940D02*
X1507943D01*
X1465359Y500452D02*
X1466847Y501940D01*
X1465359Y409597D02*
Y500452D01*
X1490450Y453630D02*
Y480443D01*
X1471927Y497399D02*
X1505299D01*
X1470439Y411701D02*
Y495912D01*
X1484843Y486049D02*
X1490450Y480443D01*
X1484630Y486049D02*
X1484843D01*
X1470439Y495912D02*
X1471927Y497399D01*
X1427070Y485050D02*
X1453160D01*
X1470439Y411701D02*
X1485900Y396240D01*
X1465359Y409597D02*
X1473980Y400976D01*
X1441844Y506479D02*
X1515390D01*
X1411755Y476390D02*
X1441844Y506479D01*
X1515390D02*
X1524730Y515819D01*
X1507943Y501940D02*
X1532955Y476927D01*
X1513510Y511020D02*
X1520190Y517700D01*
X1505299Y497399D02*
X1507070Y495628D01*
X1408868Y562610D02*
X1413800Y557678D01*
X1604780Y679620D02*
Y756031D01*
X1475960Y550800D02*
X1604780Y679620D01*
X1398670Y476390D02*
X1411755D01*
X1355528Y436368D02*
X1373820Y454660D01*
X1396680D01*
X1568269Y412309D02*
X1582263D01*
X1553210Y427368D02*
X1568269Y412309D01*
X1582263D02*
X1582343Y412230D01*
X1549234Y456837D02*
X1560020Y446051D01*
Y426978D02*
Y446051D01*
X1568269Y418730D02*
X1582343D01*
X1564560Y435438D02*
Y447931D01*
X1507070Y494288D02*
Y495628D01*
Y494288D02*
X1544521Y456837D01*
X1546401Y461377D02*
X1551114D01*
X1564560Y435438D02*
X1568269Y431730D01*
X1551114Y461377D02*
X1564560Y447931D01*
X1544521Y456837D02*
X1549234D01*
X1560020Y426978D02*
X1568269Y418730D01*
X1532955Y474823D02*
X1546401Y461377D01*
X1498140Y310409D02*
X1503749Y304800D01*
X1498140Y310409D02*
Y316280D01*
X1508680Y326819D02*
Y352725D01*
X1498140Y316280D02*
X1508680Y326819D01*
Y352725D02*
X1509685Y353730D01*
X1513840D01*
X1547024Y348456D02*
X1560119Y335360D01*
X1547024Y348456D02*
Y376141D01*
X1552104Y350560D02*
Y378245D01*
Y350560D02*
X1562763Y339900D01*
X1524319Y398846D02*
X1547024Y376141D01*
X1525003Y405345D02*
X1552104Y378245D01*
X1484847Y374170D02*
X1485900Y375223D01*
X1484847Y343953D02*
Y374170D01*
X1625368Y730018D02*
X1640840Y745490D01*
X1625368Y422698D02*
Y730018D01*
X1633220Y464820D02*
X1638639Y459401D01*
X1644650Y447478D02*
X1696042D01*
X1638639Y452731D02*
Y459401D01*
X1643892Y447478D02*
X1644650D01*
X1638639Y452731D02*
X1643892Y447478D01*
X1559560Y374650D02*
Y402604D01*
X1476745Y330465D02*
Y331401D01*
X1517650Y524844D02*
Y525780D01*
Y524844D02*
X1520190Y522304D01*
Y517700D02*
Y522304D01*
X1488340Y534670D02*
X1518391D01*
X1524730Y515819D02*
Y528331D01*
X1518391Y534670D02*
X1524730Y528331D01*
X1293190Y470830D02*
X1295735Y473375D01*
X1277620Y464820D02*
X1283630Y470830D01*
X1295735Y486745D02*
X1307360Y498370D01*
X1283630Y470830D02*
X1293190D01*
X1475960Y547050D02*
X1488340Y534670D01*
X1355528Y436368D02*
Y493097D01*
Y435610D02*
Y436368D01*
X1350255Y498370D02*
X1355528Y493097D01*
X1696042Y447478D02*
X1699260Y444260D01*
X1686560Y529590D02*
X1699260Y516890D01*
Y444260D02*
Y516890D01*
X1475960Y547050D02*
Y550800D01*
X1363980Y624840D02*
X1408868Y579952D01*
Y562610D02*
Y579952D01*
X1565910Y509881D02*
Y567690D01*
X1532955Y476927D02*
X1565910Y509881D01*
X1553696Y472008D02*
X1557685Y475997D01*
X1576029Y438230D02*
X1582343D01*
X1553696Y465719D02*
Y472008D01*
X1560506Y469187D02*
X1575972D01*
X1553696Y465719D02*
X1575101Y444314D01*
Y439158D02*
Y444314D01*
X1557685Y475997D02*
X1575582D01*
X1575101Y439158D02*
X1576029Y438230D01*
X1575972Y469187D02*
X1600200Y444959D01*
X1592822Y425615D02*
X1600200Y432993D01*
X1582727Y425615D02*
X1592822D01*
X1600200Y432993D02*
Y444959D01*
X1582343Y425230D02*
X1582727Y425615D01*
X1390650Y484410D02*
X1398670Y476390D01*
X1441450Y654050D02*
X1482421Y695021D01*
X1617980Y998220D02*
Y1009650D01*
X1482421Y697773D02*
X1528378Y743730D01*
X1532955Y474823D02*
Y476927D01*
X1568269Y431730D02*
X1582343D01*
X1680210Y362862D02*
X1700530D01*
X1666276Y359104D02*
X1676451D01*
X1662773Y355600D02*
X1666276Y359104D01*
X1676451D02*
X1680210Y362862D01*
X1651195Y404415D02*
X1698327D01*
X1640880Y396600D02*
X1643380D01*
X1651195Y404415D01*
X1493609Y420830D02*
X1503554Y430775D01*
X1493520Y414020D02*
X1493609Y414109D01*
Y420830D01*
X1505307Y431730D02*
X1513840D01*
X1504352Y430775D02*
X1505307Y431730D01*
X1503554Y430775D02*
X1504352D01*
X1490450Y453630D02*
X1505194Y438886D01*
X1513184D02*
X1514225Y437845D01*
X1524319D01*
X1505194Y438886D02*
X1513184D01*
X1568640Y402122D02*
X1571864Y405345D01*
X1568640Y383338D02*
X1571864Y380115D01*
X1568640Y383338D02*
Y402122D01*
X1524319Y437845D02*
X1559560Y402604D01*
X1513840Y399230D02*
X1514225Y398846D01*
X1513840Y405730D02*
X1514225Y405345D01*
Y398846D02*
X1524319D01*
X1514225Y405345D02*
X1525003D01*
X1571864Y380115D02*
X1581958D01*
X1582343Y379730D01*
X1571864Y405345D02*
X1581958D01*
X1490980Y725170D02*
X1500220Y734410D01*
X1510771D01*
X1482421Y695021D02*
Y697773D01*
X1496129Y746300D02*
X1501209D01*
X1464310Y714481D02*
X1496129Y746300D01*
X1500681Y808630D02*
X1509165Y800145D01*
Y796935D02*
Y800145D01*
X1491050Y804641D02*
X1495039Y808630D01*
X1500681D01*
X1517650Y794871D02*
Y799651D01*
X1464310Y687070D02*
Y714481D01*
X1523719Y610589D02*
Y729440D01*
X1518920Y605790D02*
X1523719Y610589D01*
X1456690Y367030D02*
Y384810D01*
X1457720D01*
X1551055Y782320D02*
X1569720D01*
X1540665Y792710D02*
X1551055Y782320D01*
X1509396Y824150D02*
X1543130D01*
X1562100Y805180D01*
X1502586Y814715D02*
X1517650Y799651D01*
X1502586Y814715D02*
Y866256D01*
X1444000Y801360D02*
Y952500D01*
X1540450Y904120D02*
Y952500D01*
X1502586Y866256D02*
X1540450Y904120D01*
X1372870Y810166D02*
X1397912Y785125D01*
X1581958Y405345D02*
X1582343Y405730D01*
Y399230D02*
X1582727Y398846D01*
X1430110Y899250D02*
Y957247D01*
X1418650Y977900D02*
X1420257Y976293D01*
Y967100D02*
Y976293D01*
Y967100D02*
X1430110Y957247D01*
X1376680Y845820D02*
X1430110Y899250D01*
X1342270Y474310D02*
Y480060D01*
D22*
X1355528Y435610D02*
D03*
X1408868Y562610D02*
D03*
X1392752D02*
D03*
X1339412Y435610D02*
D03*
D26*
X1390650Y486410D02*
D03*
X1405650D02*
D03*
X1291830Y436880D02*
D03*
X1306830D02*
D03*
D34*
X1699260Y444260D02*
D03*
Y429260D02*
D03*
D63*
X1406540Y992490D02*
Y993083D01*
X1411689Y998232D01*
X1391253Y376848D02*
X1393975Y379570D01*
X1391253Y375111D02*
Y376848D01*
X1382207Y367030D02*
X1386692Y371515D01*
X1387657D01*
X1391253Y375111D01*
X1327334Y366846D02*
X1327519Y367030D01*
X1382207D01*
X1316721Y373078D02*
X1323214Y379570D01*
X1329161D01*
X1383690D01*
X1318345Y330024D02*
Y355288D01*
X1316721Y356911D02*
X1319705Y353927D01*
X1393975Y379570D02*
X1402690D01*
X1316721Y356911D02*
Y359798D01*
Y356911D02*
Y359798D01*
Y356911D02*
X1318345Y355288D01*
X1503496Y373115D02*
X1513725D01*
X1499671Y369290D02*
X1503496Y373115D01*
X1513725D02*
X1513840Y373230D01*
X1526898Y350298D02*
Y362329D01*
X1513840Y366730D02*
X1513981Y366588D01*
X1522639D02*
X1526898Y362329D01*
X1513981Y366588D02*
X1522639D01*
X1525262Y348661D02*
X1526898Y350298D01*
X1515037Y325858D02*
Y347285D01*
X1516413Y348661D01*
X1525262D01*
X1319705Y347359D02*
Y353927D01*
X1316721Y359798D02*
Y373078D01*
X1319705Y347359D02*
X1333054Y334010D01*
X1318345Y330024D02*
X1324610Y323759D01*
X1333054Y334010D02*
X1417320D01*
X1418589Y332742D01*
X1324610Y297180D02*
Y323759D01*
X1418589Y332742D02*
X1418589D01*
X1503505Y328963D02*
Y337483D01*
X1500904Y340084D02*
Y348605D01*
Y340084D02*
X1503505Y337483D01*
X1499671Y349838D02*
X1500904Y348605D01*
X1492173Y317631D02*
X1503505Y328963D01*
X1492173Y317402D02*
Y317631D01*
X1445260Y306070D02*
X1480841D01*
X1492173Y317402D01*
X1511254Y322075D02*
X1515037Y325858D01*
X1504950Y313230D02*
X1511254Y319534D01*
Y322075D01*
X1499671Y349838D02*
Y369290D01*
X1418589Y332742D02*
X1445260Y306070D01*
X1372870Y878840D02*
X1381760Y887730D01*
Y957182D02*
X1416443Y991865D01*
X1381760Y887730D02*
Y957182D01*
X1437665Y991865D02*
X1449100Y1003300D01*
X1411689Y1002360D02*
X1424063Y1014735D01*
X1416443Y991865D02*
X1437665D01*
X1411689Y998232D02*
Y1002360D01*
X1424063Y1014735D02*
X1457965D01*
X1469400Y1003300D01*
D64*
X1694180Y247650D02*
D03*
X1267460D02*
D03*
X1694180Y1207770D02*
D03*
X1267460D02*
D03*
D65*
X1416050Y1155700D02*
D03*
X1543050D02*
D03*
D66*
X1398900Y1187500D02*
D03*
X1560200D02*
D03*
D67*
X1423650Y1074500D02*
D03*
Y1089100D02*
D03*
X1535450Y1074500D02*
D03*
Y1089100D02*
D03*
D68*
X1418650Y952500D02*
D03*
X1444000D02*
D03*
X1515100D02*
D03*
X1540450D02*
D03*
D69*
X1418650Y977900D02*
D03*
X1438950D02*
D03*
X1459250D02*
D03*
X1499850D02*
D03*
X1520150D02*
D03*
X1540450D02*
D03*
X1469400Y1003300D02*
D03*
X1489700D02*
D03*
X1510000D02*
D03*
X1530300D02*
D03*
X1449100D02*
D03*
X1428800D02*
D03*
D70*
X1375410Y297180D02*
D03*
X1363980Y650240D02*
D03*
X1615440Y745490D02*
D03*
D71*
X1350010Y297180D02*
D03*
X1324610D02*
D03*
X1299210D02*
D03*
X1363980Y624840D02*
D03*
X1338580Y650240D02*
D03*
Y624840D02*
D03*
X1313180Y650240D02*
D03*
Y624840D02*
D03*
X1640840Y745490D02*
D03*
D72*
X1625870Y815340D02*
D03*
X1601470D02*
D03*
D73*
X1577070D02*
D03*
D74*
X1406540Y992490D02*
D03*
X1583690Y848360D02*
D03*
X1496060Y332601D02*
D03*
X1569747Y304615D02*
D03*
X1581150Y928370D02*
D03*
X1553210Y443230D02*
D03*
X1596529Y389890D02*
D03*
X1671320Y420370D02*
D03*
X1416315Y785125D02*
D03*
X1425990Y774763D02*
D03*
X1437640Y777240D02*
D03*
X1418590Y720090D02*
D03*
X1543050Y725170D02*
D03*
X1466850Y782320D02*
D03*
X1362710Y767080D02*
D03*
X1577340Y1093470D02*
D03*
X1651000Y928370D02*
D03*
X1656080Y887730D02*
D03*
X1619250Y929640D02*
D03*
X1374140Y501650D02*
D03*
X1561720Y362225D02*
D03*
X1532890Y289560D02*
D03*
X1507490Y464820D02*
D03*
X1421130Y364490D02*
D03*
X1357630Y355600D02*
D03*
X1435100Y588010D02*
D03*
X1394460Y501650D02*
D03*
X1299210Y365760D02*
D03*
X1327334Y366846D02*
D03*
X1484630Y486049D02*
D03*
X1633220Y464820D02*
D03*
X1567180Y346710D02*
D03*
X1559560Y374650D02*
D03*
X1476745Y330465D02*
D03*
X1504950Y313230D02*
D03*
X1517650Y525780D02*
D03*
X1277620Y464820D02*
D03*
X1686560Y529590D02*
D03*
X1535430Y659130D02*
D03*
Y589280D02*
D03*
X1560506Y469187D02*
D03*
X1677670Y657860D02*
D03*
X1633220Y589280D02*
D03*
X1591310Y568960D02*
D03*
X1431290Y657860D02*
D03*
X1441450Y654050D02*
D03*
X1485900Y659130D02*
D03*
X1386840Y741680D02*
D03*
X1527810Y848360D02*
D03*
X1667510Y981710D02*
D03*
X1616710Y1089660D02*
D03*
X1371600Y923290D02*
D03*
X1372870Y878840D02*
D03*
X1380490Y1017270D02*
D03*
X1318260Y1076960D02*
D03*
X1461770Y796290D02*
D03*
X1557020Y927100D02*
D03*
X1617980Y1009650D02*
D03*
X1625368Y422698D02*
D03*
X1490980Y725170D02*
D03*
X1507950Y741220D02*
D03*
X1523719Y729440D02*
D03*
X1569720Y782320D02*
D03*
X1540665Y792710D02*
D03*
X1528378Y795110D02*
D03*
X1562100Y805180D02*
D03*
X1497860Y801820D02*
D03*
X1464310Y687070D02*
D03*
X1518920Y605790D02*
D03*
X1509396Y824150D02*
D03*
X1372870Y810166D02*
D03*
X1565910Y567690D02*
D03*
X1493520Y414020D02*
D03*
X1376680Y845820D02*
D03*
D75*
X1582343Y353730D02*
D03*
Y360230D02*
D03*
Y366730D02*
D03*
Y373230D02*
D03*
Y379730D02*
D03*
Y386230D02*
D03*
Y392730D02*
D03*
Y399230D02*
D03*
Y405730D02*
D03*
Y412230D02*
D03*
Y418730D02*
D03*
Y425230D02*
D03*
Y431730D02*
D03*
Y438230D02*
D03*
X1513840D02*
D03*
Y431730D02*
D03*
Y425230D02*
D03*
Y418730D02*
D03*
Y412230D02*
D03*
Y405730D02*
D03*
Y399230D02*
D03*
Y392730D02*
D03*
Y386230D02*
D03*
Y379730D02*
D03*
Y373230D02*
D03*
Y366730D02*
D03*
Y360230D02*
D03*
D76*
Y353730D02*
D03*
D77*
X1296670Y480060D02*
D03*
X1342270D02*
D03*
D78*
X1453160Y485050D02*
D03*
X1498760D02*
D03*
D79*
X1644650Y447478D02*
D03*
Y431362D02*
D03*
D80*
X1485900Y375223D02*
D03*
Y396240D02*
D03*
D81*
X1475960Y547050D02*
D03*
D82*
X1427720Y384810D02*
D03*
X1457720D02*
D03*
X1338340Y346710D02*
D03*
X1308340D02*
D03*
D83*
X1700530Y388978D02*
D03*
Y403502D02*
D03*
Y348338D02*
D03*
Y362862D02*
D03*
D84*
X1643380Y396600D02*
D03*
Y355600D02*
D03*
D85*
X1383690Y379570D02*
D03*
X1402690D02*
D03*
X1393190Y359570D02*
D03*
D86*
X1319470Y543060D02*
D03*
D87*
X1311546Y392430D02*
D03*
X1330054D02*
D03*
M02*
