M48
;Layer_Color=9474304
;FILE_FORMAT=4:4
METRIC,LZ
;TYPE=PLATED
T1F00S00C0.2500
T2F00S00C0.3000
T3F00S00C0.7000
T4F00S00C0.8900
T5F00S00C1.0200
T6F00S00C1.5700
T7F00S00C3.1000
;TYPE=NON_PLATED
T8F00S00C2.8000
%
T01
X0150749Y0046482
T02
X0129921Y0036576
X01327334Y00366846
X0135763Y003556
X0142113Y0036449
X01476745Y00330465
X0149606Y00332601
X0150495Y0031323
X0153289Y0028956
X01569747Y00304615
X0156718Y0034671
X0156172Y00362225
X0155956Y0037465
X01596529Y0038989
X01625368Y00422698
X0167132Y0042037
X0163322Y0046482
X0168656Y0052959
X0163322Y0058928
X0159131Y0056896
X0167767Y0065786
X0153543Y0065913
X014859
X0144145Y0065405
X0143129Y0065786
X0146431Y0068707
X0149098Y0072517
X0150795Y0074122
X01523719Y0072944
X0154305Y0072517
X01540665Y0079271
X0156972Y0078232
X0146685
X0143764Y0077724
X0142599Y00774763
X01416315Y00785125
X0141859Y0072009
X0138684Y0074168
X0136271Y0076708
X014351Y0058801
X0153543Y0058928
X0151892Y0060579
X0151765Y0052578
X0148463Y00486049
X0149352Y0041402
X0155321Y0044323
X01560506Y00469187
X0156591Y0056769
X0139446Y0050165
X0137414
X0127762Y0046482
X0137287Y00810166
X0137668Y0084582
X0137287Y0087884
X013716Y0092329
X0138049Y0101727
X0140654Y0099249
X0131826Y0107696
X0157734Y0109347
X0158115Y0092837
X0155702Y009271
X0158369Y0084836
X0152781
X01509396Y0082415
X0149786Y0080182
X01528378Y0079511
X015621Y0080518
X0146177Y0079629
X0165608Y0088773
X01651Y0092837
X0161925Y0092964
X0161798Y0100965
X0166751Y0098171
X0161671Y0108966
T03
X0157707Y0081534
X0160147
X0162587
T04
X0141865Y009779
X0143895
X0145925
X014491Y010033
X014694
X014897
X0151
X015303
X0154045Y009779
X0152015
X0149985
X014288Y010033
X0142365Y010745
Y010891
X0153545
Y010745
T05
X0129921Y0029718
X0132461
X0135001
X0137541
X0161544Y0074549
X0164084
X0136398Y0065024
Y0062484
X0133858
Y0065024
X0131318
Y0062484
X0141865Y009525
X01444
X015151
X0154045
T06
X013989Y011875
X015602
T07
X0126746Y0024765
X0169418
Y0120777
X0126746
T08
X0141605Y011557
X0154305
M30
