G04*
G04 #@! TF.GenerationSoftware,Altium Limited,Altium Designer,23.0.1 (38)*
G04*
G04 Layer_Color=32768*
%FSLAX44Y44*%
%MOMM*%
G71*
G04*
G04 #@! TF.SameCoordinates,29EA246D-3BC2-426E-A151-39073B1FECC7*
G04*
G04*
G04 #@! TF.FilePolarity,Positive*
G04*
G01*
G75*
%ADD11C,0.2000*%
D11*
X1521592Y344980D02*
Y446980D01*
X1574591D01*
Y344980D02*
Y446980D01*
X1521592Y344980D02*
X1574591D01*
X1492150Y375732D02*
Y395732D01*
X1479650D02*
X1492150D01*
X1479650Y375732D02*
Y395732D01*
Y375732D02*
X1492150D01*
X1694280Y406240D02*
X1706780D01*
Y386240D02*
Y406240D01*
X1694280Y386240D02*
X1706780D01*
X1694280D02*
Y406240D01*
X1638400Y449470D02*
X1650900D01*
Y429370D02*
Y449470D01*
X1638400Y429370D02*
X1650900D01*
X1638400D02*
Y449470D01*
X1692010Y447760D02*
X1706510D01*
Y425760D02*
Y447760D01*
X1692010Y425760D02*
X1706510D01*
X1692010D02*
Y447760D01*
X1694280Y365600D02*
X1706780D01*
Y345600D02*
Y365600D01*
X1694280Y345600D02*
X1706780D01*
X1694280D02*
Y365600D01*
X1626380Y350100D02*
X1660380D01*
X1626380D02*
Y402100D01*
X1660380D01*
Y350100D02*
Y402100D01*
X1390760Y568860D02*
X1410860D01*
X1390760Y556360D02*
Y568860D01*
Y556360D02*
X1410860D01*
Y568860D01*
X1387150Y479160D02*
Y493660D01*
X1409150D01*
Y479160D02*
Y493660D01*
X1387150Y479160D02*
X1409150D01*
X1357520Y429360D02*
Y441860D01*
X1337420Y429360D02*
X1357520D01*
X1337420D02*
Y441860D01*
X1357520D01*
X1330800Y386180D02*
Y398680D01*
X1310800Y386180D02*
X1330800D01*
X1310800D02*
Y398680D01*
X1330800D01*
X1310330Y429630D02*
Y444130D01*
X1288330Y429630D02*
X1310330D01*
X1288330D02*
Y444130D01*
X1310330D01*
M02*
